<svg width="170" height="170" viewBox="0 0 170 170" fill="none" xmlns="http://www.w3.org/2000/svg">
<g clip-path="url(#clip0_47:446)">
<path d="M85.0127 0C38.1423 0 0.0126953 38.1438 0.0126953 85C0.0126953 131.863 38.1423 170 85.0127 170C131.876 170 170.013 131.863 170.013 85C170.006 38.1438 131.876 0 85.0127 0ZM122.838 62.8008L69.6985 112.391C68.3031 113.68 66.1356 113.68 64.7756 112.299L47.0814 94.5908C45.7002 93.2096 45.7002 90.9642 47.0814 89.5829C48.4627 88.1946 50.7081 88.1946 52.0894 89.5829L67.3752 104.869L118 57.6229C119.424 56.2913 121.669 56.3621 123.001 57.7929C124.346 59.2167 124.269 61.4621 122.838 62.8008Z" fill="#27CEAC"/>
</g>
<defs>
<clipPath id="clip0_47:446">
<rect width="170" height="170" fill="white"/>
</clipPath>
</defs>
</svg>
