<svg width="121" height="138" viewBox="0 0 121 138" fill="none" xmlns="http://www.w3.org/2000/svg">
<path d="M37.1371 118.895C38.4483 108.775 21.0478 85.276 43.7252 55.5783L47.0101 58.1601C24.8249 86.3863 43.6159 107.793 41.5749 119.728C40.0937 128.39 36.0468 133.576 34.235 135.881L33.148 137.264L29.9307 134.735L31.0178 133.352C32.8317 131.138 36.194 126.173 37.1371 118.895Z" fill="#27CEAC"/>
<path d="M16.976 103.049C26.4994 99.3836 53.4446 110.739 76.9433 81.6868L73.6584 79.1049C51.4733 107.331 26.2332 94.1302 15.1179 98.9335C7.05105 102.419 2.96868 107.577 1.1569 109.882L0.069827 111.265L3.2871 113.794L4.37417 112.411C6.09716 110.125 10.1268 105.685 16.976 103.049Z" fill="#4C5F94"/>
<path d="M50.0522 81.4146L62.4501 91.1591L62.1382 94.3912L48.3628 83.5641L50.0522 81.4146Z" fill="#4C5F94"/>
<path d="M56.5685 73.1239L70.7807 84.2944L70.6705 87.685L54.8791 75.2734L56.5685 73.1239Z" fill="#4C5F94"/>
<path d="M43.5359 89.7053L52.6075 96.8354L51.9261 99.777L41.8465 91.8547L43.5359 89.7053Z" fill="#4C5F94"/>
<path d="M50.0522 81.4147L38.2591 72.1456L35.2593 73.2651L48.3628 83.5641L50.0522 81.4147Z" fill="#27CEAC"/>
<path d="M56.5684 73.1239L42.9609 62.4288L39.7596 63.3899L54.879 75.2733L56.5684 73.1239Z" fill="#27CEAC"/>
<path d="M43.5358 89.7052L35.0689 83.0505L32.4388 84.4605L41.8464 91.8547L43.5358 89.7052Z" fill="#27CEAC"/>
<path d="M29.538 107.515L21.0711 100.86L18.441 102.27L27.8486 109.664L29.538 107.515Z" fill="#4C5F94"/>
<path d="M24.9527 113.349L12.5548 103.605L9.48784 104.671L23.2633 115.499L24.9527 113.349Z" fill="#4C5F94"/>
<path d="M20.1258 119.49L6.51829 108.795L3.31695 109.756L18.4364 121.64L20.1258 119.49Z" fill="#4C5F94"/>
<path d="M29.5381 107.515L38.6097 114.645L37.9283 117.587L27.8487 109.664L29.5381 107.515Z" fill="#27CEAC"/>
<path d="M24.9527 113.349L37.9554 123.569L37.7107 126.854L23.2633 115.499L24.9527 113.349Z" fill="#27CEAC"/>
<path d="M20.1256 119.49L34.3379 130.661L34.2276 134.051L18.4362 121.64L20.1256 119.49Z" fill="#27CEAC"/>
<path d="M103.65 34.2699C94.1268 37.9352 67.1816 26.5797 43.683 55.632L46.9678 58.2138C69.153 29.9876 94.393 43.1886 105.508 38.3853C113.575 34.8993 117.658 29.7418 119.469 27.4367L120.556 26.0536L117.339 23.5249L116.252 24.908C114.529 27.1937 110.499 31.6339 103.65 34.2699Z" fill="#27CEAC"/>
<path d="M83.4892 18.4238C82.1779 28.5435 99.5784 52.0427 76.901 81.7405L73.6162 79.1586C95.8013 50.9324 77.0104 29.5261 79.0513 17.5906C80.5326 8.92853 84.5794 3.74315 86.3912 1.43802L87.4783 0.0549223L90.6955 2.58362L89.6085 3.96671C87.7946 6.18098 84.4322 11.1457 83.4892 18.4238Z" fill="#4C5F94"/>
<path d="M70.2826 55.6752L82.6806 65.4196L85.7475 64.3529L71.972 53.5257L70.2826 55.6752Z" fill="#4C5F94"/>
<path d="M63.7665 63.9658L77.9787 75.1363L81.2473 74.228L65.4559 61.8164L63.7665 63.9658Z" fill="#4C5F94"/>
<path d="M76.7991 47.3845L85.8707 54.5146L88.5681 53.1574L78.4885 45.2351L76.7991 47.3845Z" fill="#4C5F94"/>
<path d="M70.2829 55.6752L58.4898 46.4061L58.8688 43.2268L71.9723 53.5258L70.2829 55.6752Z" fill="#27CEAC"/>
<path d="M63.7666 63.9658L50.1592 53.2707L50.3366 49.9329L65.456 61.8164L63.7666 63.9658Z" fill="#27CEAC"/>
<path d="M76.799 47.3845L68.3321 40.7297L69.0808 37.8409L78.4884 45.235L76.799 47.3845Z" fill="#27CEAC"/>
<path d="M90.7968 29.5748L82.3299 22.9201L83.0786 20.0312L92.4862 27.4254L90.7968 29.5748Z" fill="#4C5F94"/>
<path d="M95.3824 23.7407L82.9845 13.9963L83.2963 10.7641L97.0718 21.5913L95.3824 23.7407Z" fill="#4C5F94"/>
<path d="M100.209 17.5994L86.6018 6.90429L86.7792 3.56651L101.899 15.45L100.209 17.5994Z" fill="#4C5F94"/>
<path d="M90.7969 29.5749L99.8685 36.705L102.566 35.3478L92.4863 27.4254L90.7969 29.5749Z" fill="#27CEAC"/>
<path d="M95.3824 23.7408L108.385 33.9606L111.519 32.9467L97.0718 21.5913L95.3824 23.7408Z" fill="#27CEAC"/>
<path d="M100.209 17.5994L114.422 28.7699L117.69 27.8616L101.899 15.45L100.209 17.5994Z" fill="#27CEAC"/>
</svg>
