<svg width="1441" height="920" viewBox="0 0 1441 920" fill="none" xmlns="http://www.w3.org/2000/svg">
<path d="M1441 0V622C1441 622 61.8955 622 2.91799 622.465C1.9132 622.506 1.26824 622.518 0.999992 622.5C0.820657 622.488 1.47322 622.476 2.91799 622.465C30.0067 621.352 318.619 598.661 537.5 550.477C764.5 500.507 982.5 413.953 1174.5 279.282C1366.5 144.61 1441 0 1441 0Z" fill="#27CEAC"/>
<path d="M1386.55 621.525C1421.23 621.209 1441 621.5 1441 621.5L1386.55 621.525C1246.58 622.801 863.793 633.982 558.917 714.225C178.519 814.345 1 920 1 920V622.155L1386.55 621.525Z" fill="#27CEAC"/>
</svg>
