<svg width="641" height="91" viewBox="0 0 641 91" fill="none" xmlns="http://www.w3.org/2000/svg">
<g filter="url(#filter0_d_23:308)">
<rect x="4" width="633" height="83" fill="#6B7EB3"/>
<path d="M95.92 33.536C97.296 33.536 98.496 33.84 99.52 34.448C100.544 35.04 101.336 35.896 101.896 37.016C102.456 38.12 102.736 39.424 102.736 40.928V42.608C102.736 44.112 102.456 45.424 101.896 46.544C101.336 47.648 100.544 48.504 99.52 49.112C98.496 49.704 97.296 50 95.92 50H90.208V33.536H95.92ZM92.56 35.672V47.864H95.92C97.344 47.864 98.44 47.424 99.208 46.544C99.992 45.648 100.384 44.336 100.384 42.608V40.928C100.384 39.232 100 37.936 99.232 37.04C98.48 36.128 97.376 35.672 95.92 35.672H92.56ZM111.107 37.496C112.115 37.496 113.003 37.712 113.771 38.144C114.555 38.56 115.163 39.16 115.595 39.944C116.027 40.728 116.243 41.64 116.243 42.68V44.384H107.675C107.707 45.68 108.011 46.68 108.587 47.384C109.163 48.088 110.019 48.44 111.155 48.44C112.163 48.44 112.907 48.144 113.387 47.552C113.867 46.96 114.107 46.256 114.107 45.44H116.243C116.243 46.4 116.019 47.24 115.571 47.96C115.139 48.68 114.531 49.24 113.747 49.64C112.979 50.04 112.099 50.24 111.107 50.24H111.011C109.283 50.24 107.915 49.688 106.907 48.584C105.915 47.464 105.419 45.976 105.419 44.12V43.64C105.419 42.424 105.643 41.352 106.091 40.424C106.539 39.496 107.179 38.776 108.011 38.264C108.843 37.752 109.819 37.496 110.939 37.496H111.107ZM110.987 39.296C110.075 39.296 109.331 39.576 108.755 40.136C108.195 40.696 107.851 41.528 107.723 42.632H114.011V42.344C114.011 41.432 113.731 40.696 113.171 40.136C112.627 39.576 111.899 39.296 110.987 39.296ZM124.203 37.496C125.115 37.496 125.923 37.64 126.627 37.928C127.347 38.216 127.899 38.616 128.283 39.128C128.683 39.64 128.883 40.208 128.883 40.832L128.859 41.264H126.627V41.048C126.627 39.88 125.723 39.296 123.915 39.296C122.123 39.296 121.227 39.832 121.227 40.904C121.227 41.4 121.483 41.768 121.995 42.008C122.507 42.232 123.291 42.448 124.347 42.656C125.355 42.864 126.179 43.08 126.819 43.304C127.475 43.528 128.027 43.88 128.475 44.36C128.939 44.84 129.171 45.488 129.171 46.304C129.171 47.616 128.723 48.6 127.827 49.256C126.931 49.912 125.643 50.24 123.963 50.24H123.603C122.595 50.24 121.715 50.088 120.963 49.784C120.211 49.464 119.627 49.04 119.211 48.512C118.811 47.968 118.619 47.36 118.635 46.688V46.16H120.867V46.4C120.867 47.76 122.011 48.44 124.299 48.44C124.971 48.44 125.571 48.288 126.099 47.984C126.643 47.68 126.915 47.264 126.915 46.736C126.915 46.288 126.763 45.936 126.459 45.68C126.171 45.424 125.811 45.232 125.379 45.104C124.947 44.976 124.347 44.848 123.579 44.72C122.587 44.528 121.787 44.336 121.179 44.144C120.571 43.936 120.051 43.592 119.619 43.112C119.187 42.632 118.971 41.976 118.971 41.144C118.971 40.008 119.419 39.12 120.315 38.48C121.211 37.824 122.435 37.496 123.987 37.496H124.203ZM134.648 32.72V34.808H132.296V32.72H134.648ZM134.6 37.736V50H132.344V37.736H134.6ZM149.81 35.528C149.81 36.344 149.594 37.032 149.162 37.592C148.73 38.136 148.13 38.488 147.362 38.648L147.314 38.72C148.114 39.424 148.514 40.304 148.514 41.36C148.514 42.512 148.082 43.44 147.218 44.144C146.354 44.848 145.178 45.2 143.69 45.2H142.058C141.578 45.2 141.178 45.328 140.858 45.584C140.538 45.824 140.378 46.136 140.378 46.52C140.378 46.904 140.53 47.208 140.834 47.432C141.138 47.656 141.546 47.768 142.058 47.768H146.69C147.634 47.768 148.386 48.064 148.946 48.656C149.522 49.248 149.81 50 149.81 50.912C149.81 52 149.394 52.872 148.562 53.528C147.746 54.184 146.642 54.512 145.25 54.512H140.426C139.882 54.512 139.378 54.368 138.914 54.08C138.466 53.792 138.106 53.424 137.834 52.976C137.578 52.544 137.45 52.096 137.45 51.632C137.45 50.96 137.61 50.376 137.93 49.88C138.266 49.384 138.706 49.016 139.25 48.776C138.514 48.328 138.146 47.664 138.146 46.784C138.146 46.208 138.314 45.712 138.65 45.296C138.986 44.88 139.458 44.568 140.066 44.36C138.994 43.768 138.458 42.768 138.458 41.36C138.458 40.176 138.89 39.24 139.754 38.552C140.634 37.848 141.85 37.496 143.402 37.496H143.498C144.394 37.496 145.21 37.632 145.946 37.904C147.082 37.344 147.73 36.552 147.89 35.528H149.81ZM143.474 39.296C142.626 39.296 141.946 39.464 141.434 39.8C140.938 40.12 140.69 40.64 140.69 41.36C140.69 42.08 140.938 42.6 141.434 42.92C141.946 43.24 142.626 43.4 143.474 43.4C144.322 43.4 145.002 43.24 145.514 42.92C146.026 42.6 146.282 42.08 146.282 41.36C146.282 40.64 146.026 40.12 145.514 39.8C145.002 39.464 144.322 39.296 143.474 39.296ZM141.074 49.928C140.69 49.928 140.362 50.064 140.09 50.336C139.818 50.608 139.682 50.936 139.682 51.32C139.682 51.704 139.818 52.032 140.09 52.304C140.362 52.576 140.69 52.712 141.074 52.712H145.706C146.218 52.712 146.658 52.56 147.026 52.256C147.394 51.968 147.578 51.632 147.578 51.248C147.578 50.848 147.442 50.528 147.17 50.288C146.898 50.048 146.514 49.928 146.018 49.928H141.074ZM158.267 37.496C159.611 37.496 160.667 37.856 161.435 38.576C162.203 39.296 162.587 40.352 162.587 41.744V50H160.331V42.152C160.331 40.248 159.467 39.296 157.739 39.296C157.163 39.296 156.627 39.448 156.131 39.752C155.635 40.056 155.235 40.472 154.931 41C154.627 41.512 154.475 42.08 154.475 42.704V50H152.219V37.736H153.851L154.163 39.536C155.187 38.176 156.555 37.496 158.267 37.496ZM184.761 33.536V50H182.769L174.729 37.952L174.657 37.976V50H172.521V33.536H174.585L182.553 45.44L182.625 45.416V33.536H184.761ZM193.889 37.496C194.897 37.496 195.785 37.712 196.553 38.144C197.337 38.56 197.945 39.16 198.377 39.944C198.809 40.728 199.025 41.64 199.025 42.68V44.384H190.457C190.489 45.68 190.793 46.68 191.369 47.384C191.945 48.088 192.801 48.44 193.937 48.44C194.945 48.44 195.689 48.144 196.169 47.552C196.649 46.96 196.889 46.256 196.889 45.44H199.025C199.025 46.4 198.801 47.24 198.353 47.96C197.921 48.68 197.313 49.24 196.529 49.64C195.761 50.04 194.881 50.24 193.889 50.24H193.793C192.065 50.24 190.697 49.688 189.689 48.584C188.697 47.464 188.201 45.976 188.201 44.12V43.64C188.201 42.424 188.425 41.352 188.873 40.424C189.321 39.496 189.961 38.776 190.793 38.264C191.625 37.752 192.601 37.496 193.721 37.496H193.889ZM193.769 39.296C192.857 39.296 192.113 39.576 191.537 40.136C190.977 40.696 190.633 41.528 190.505 42.632H196.793V42.344C196.793 41.432 196.513 40.696 195.953 40.136C195.409 39.576 194.681 39.296 193.769 39.296ZM219.249 37.736L215.241 50H212.889L210.057 41.432H209.961L207.177 50H204.825L200.793 37.736H203.121L205.977 46.712H206.073L208.977 37.736H211.185L214.041 46.712H214.137L217.041 37.736H219.249ZM234.841 33.536C236.297 33.536 237.489 33.88 238.417 34.568C239.361 35.256 239.833 36.2 239.833 37.4C239.833 38.472 239.545 39.384 238.969 40.136C238.409 40.888 237.713 41.344 236.881 41.504V41.624C237.649 41.928 238.281 42.456 238.777 43.208C239.273 43.96 239.521 44.864 239.521 45.92C239.521 46.8 239.569 47.464 239.665 47.912C239.761 48.36 239.889 48.672 240.049 48.848C240.209 49.024 240.441 49.16 240.745 49.256V49.928C240.393 50.072 240.017 50.144 239.617 50.144C238.849 50.144 238.249 49.92 237.817 49.472C237.385 49.008 237.169 48.144 237.169 46.88C237.169 45.584 236.897 44.576 236.353 43.856C235.825 43.12 235.161 42.752 234.361 42.752H230.185V50H227.833V33.536H234.841ZM230.185 35.672V40.616H234.865C235.553 40.616 236.161 40.384 236.689 39.92C237.217 39.456 237.481 38.88 237.481 38.192V38.096C237.481 37.392 237.241 36.816 236.761 36.368C236.281 35.904 235.649 35.672 234.865 35.672H230.185ZM256.151 33.536V50H254.159L246.119 37.952L246.047 37.976V50H243.911V33.536H245.975L253.943 45.44L254.015 45.416V33.536H256.151ZM267.487 33.536L273.919 50H271.375L269.983 46.424H262.111L260.743 50H258.463L264.895 33.536H267.487ZM266.143 36.368H265.999L262.951 44.288H269.167L266.143 36.368ZM287.419 33.296C289.227 33.296 290.643 33.696 291.667 34.496C292.707 35.296 293.227 36.432 293.227 37.904V38.192H290.875V37.832C290.875 37.064 290.563 36.472 289.939 36.056C289.315 35.64 288.491 35.432 287.467 35.432C286.331 35.432 285.443 35.624 284.803 36.008C284.179 36.376 283.867 36.912 283.867 37.616C283.867 38.144 284.043 38.576 284.395 38.912C284.763 39.248 285.211 39.512 285.739 39.704C286.283 39.896 287.027 40.112 287.971 40.352C289.187 40.672 290.171 40.984 290.923 41.288C291.675 41.592 292.315 42.048 292.843 42.656C293.387 43.264 293.659 44.072 293.659 45.08C293.659 46.872 293.107 48.184 292.003 49.016C290.915 49.832 289.379 50.24 287.395 50.24C285.411 50.24 283.867 49.824 282.763 48.992C281.675 48.144 281.131 46.92 281.131 45.32L281.155 44.84H283.507L283.483 45.344C283.483 46.272 283.827 46.968 284.515 47.432C285.219 47.88 286.187 48.104 287.419 48.104C288.619 48.104 289.563 47.888 290.251 47.456C290.955 47.008 291.307 46.4 291.307 45.632C291.307 45.024 291.115 44.536 290.731 44.168C290.363 43.784 289.891 43.488 289.315 43.28C288.755 43.072 287.987 42.84 287.011 42.584C285.811 42.264 284.851 41.96 284.131 41.672C283.411 41.384 282.795 40.944 282.283 40.352C281.771 39.744 281.515 38.952 281.515 37.976C281.515 36.392 282.051 35.216 283.123 34.448C284.195 33.68 285.627 33.296 287.419 33.296ZM301.722 37.496C302.698 37.496 303.57 37.712 304.338 38.144C305.122 38.56 305.73 39.152 306.162 39.92C306.594 40.688 306.81 41.568 306.81 42.56H304.578C304.578 41.568 304.322 40.776 303.81 40.184C303.314 39.592 302.594 39.296 301.65 39.296C300.658 39.296 299.866 39.632 299.274 40.304C298.698 40.96 298.41 41.864 298.41 43.016V44.312C298.41 45.704 298.698 46.744 299.274 47.432C299.85 48.104 300.666 48.44 301.722 48.44C302.698 48.44 303.426 48.152 303.906 47.576C304.402 46.984 304.65 46.192 304.65 45.2H306.81C306.81 46.736 306.346 47.96 305.418 48.872C304.506 49.784 303.282 50.24 301.746 50.24H301.554C300.466 50.24 299.514 49.992 298.698 49.496C297.882 48.984 297.25 48.272 296.802 47.36C296.37 46.448 296.154 45.384 296.154 44.168V43.592C296.154 42.376 296.378 41.312 296.826 40.4C297.274 39.472 297.906 38.76 298.722 38.264C299.538 37.752 300.474 37.496 301.53 37.496H301.722ZM314.8 37.496C316.416 37.496 317.616 37.816 318.4 38.456C319.2 39.096 319.6 40.024 319.6 41.24V47.6C319.6 47.888 319.664 48.104 319.792 48.248C319.92 48.376 320.08 48.44 320.272 48.44C320.64 48.44 321.008 48.328 321.376 48.104V49.76C320.832 50.08 320.216 50.24 319.528 50.24C318.84 50.24 318.328 50.048 317.992 49.664C317.656 49.264 317.472 48.72 317.44 48.032C316.448 49.504 315.016 50.24 313.144 50.24C311.8 50.24 310.792 49.952 310.12 49.376C309.464 48.784 309.136 47.856 309.136 46.592C309.136 45.6 309.392 44.824 309.904 44.264C310.416 43.688 311.264 43.272 312.448 43.016C313.632 42.76 315.264 42.632 317.344 42.632V41.504C317.344 40.688 317.104 40.12 316.624 39.8C316.144 39.464 315.448 39.296 314.536 39.296C313.672 39.296 313 39.464 312.52 39.8C312.04 40.136 311.8 40.608 311.8 41.216V41.504H309.592C309.56 41.28 309.544 41.016 309.544 40.712C309.544 40.152 309.768 39.624 310.216 39.128C310.664 38.632 311.272 38.24 312.04 37.952C312.808 37.648 313.656 37.496 314.584 37.496H314.8ZM317.344 44.384C315.664 44.384 314.392 44.472 313.528 44.648C312.68 44.808 312.112 45.056 311.824 45.392C311.536 45.728 311.392 46.192 311.392 46.784C311.392 47.888 312.232 48.44 313.912 48.44C314.504 48.44 315.064 48.296 315.592 48.008C316.12 47.704 316.544 47.28 316.864 46.736C317.184 46.192 317.344 45.568 317.344 44.864V44.384ZM327.351 32.528C328.263 32.528 329.015 32.68 329.607 32.984V34.64C329.127 34.432 328.719 34.328 328.383 34.328C327.743 34.328 327.311 34.448 327.087 34.688C326.863 34.912 326.751 35.296 326.751 35.84V37.736H329.607V39.536H326.751V50H324.495V39.536H323.151V37.736H324.495V36.08C324.495 33.712 325.447 32.528 327.351 32.528ZM335.461 32.528C336.373 32.528 337.125 32.68 337.717 32.984V34.64C337.237 34.432 336.829 34.328 336.493 34.328C335.853 34.328 335.421 34.448 335.197 34.688C334.973 34.912 334.861 35.296 334.861 35.84V37.736H337.717V39.536H334.861V50H332.605V39.536H331.261V37.736H332.605V36.08C332.605 33.712 333.557 32.528 335.461 32.528ZM345.013 37.496C346.725 37.496 348.093 38.024 349.117 39.08C350.141 40.136 350.653 41.584 350.653 43.424V44.312C350.653 46.152 350.149 47.6 349.141 48.656C348.133 49.712 346.757 50.24 345.013 50.24C343.269 50.24 341.893 49.712 340.885 48.656C339.877 47.6 339.373 46.152 339.373 44.312V43.424C339.373 41.584 339.885 40.136 340.909 39.08C341.933 38.024 343.301 37.496 345.013 37.496ZM345.013 39.296C343.941 39.296 343.109 39.664 342.517 40.4C341.925 41.136 341.629 42.216 341.629 43.64V44.096C341.629 45.488 341.917 46.56 342.493 47.312C343.085 48.064 343.925 48.44 345.013 48.44C346.069 48.44 346.893 48.072 347.485 47.336C348.093 46.584 348.397 45.504 348.397 44.096V43.64C348.397 42.248 348.101 41.176 347.509 40.424C346.933 39.672 346.101 39.296 345.013 39.296ZM356.25 32.72V50H353.994V32.72H356.25ZM370.328 50H368.648C368.536 49.488 368.432 48.928 368.336 48.32C367.424 49.6 366.16 50.24 364.544 50.24C363.008 50.24 361.792 49.672 360.896 48.536C360.016 47.4 359.576 45.84 359.576 43.856V43.592C359.576 41.72 360.008 40.24 360.872 39.152C361.752 38.048 362.976 37.496 364.544 37.496C366.064 37.496 367.24 38.096 368.072 39.296V32.72H370.328V50ZM364.952 39.296C363.88 39.296 363.088 39.672 362.576 40.424C362.08 41.16 361.832 42.312 361.832 43.88C361.832 45.448 362.088 46.6 362.6 47.336C363.112 48.072 363.896 48.44 364.952 48.44C367.048 48.44 368.096 46.92 368.096 43.88C368.096 42.312 367.832 41.16 367.304 40.424C366.776 39.672 365.992 39.296 364.952 39.296Z" fill="#F2F4F8"/>
<rect x="582.821" y="24" width="8.35714" height="36" fill="#F2F4F8"/>
<rect x="569" y="46.1786" width="8.35714" height="36" transform="rotate(-90 569 46.1786)" fill="#F2F4F8"/>
<g clip-path="url(#clip0_23:308)">
<path d="M56.75 35.2V23.9163L47.375 26.5338V39.5838L56.1594 36.0681C56.5156 35.9275 56.75 35.5825 56.75 35.2ZM46.4375 24.8181L56.1369 22.1406L46.7056 19.3019C46.5312 19.2494 46.3456 19.2494 46.1694 19.3019L36.7381 22.1406L46.4375 24.8181ZM36.7138 36.07L45.5 39.5856V26.5356L36.125 23.9163V35.2C36.125 35.5825 36.3575 35.9275 36.7138 36.07ZM49.25 51.1375C49.25 51.4919 49.4487 51.8181 49.7656 51.9756L56.75 55.4669V46.1838L49.25 43.6225V51.1375ZM58.0175 39.0081C57.8056 38.9275 57.5712 38.9275 57.3575 39.0081C57.3575 39.0081 49.8369 41.8319 49.8275 41.8375C49.8275 41.8375 57.6763 44.5056 57.6856 44.5056C57.695 44.5056 65.5438 41.8375 65.5438 41.8375C65.5344 41.8338 58.0175 39.0081 58.0175 39.0081ZM58.625 46.1838V55.4669L65.6075 51.9756C65.9244 51.8163 66.125 51.4919 66.125 51.1375V43.6225L58.625 46.1838ZM35.4837 39.9344C35.2925 39.8706 35.0806 39.8706 34.8913 39.9344L24.8469 43.2813L35.1875 47.3181L45.5281 43.2831L35.4837 39.9344ZM23 59.575C23 59.9781 23.2588 60.3363 23.6413 60.4656L34.25 64V48.9663L23 44.575V59.575ZM36.125 64L46.7337 60.4656C47.1162 60.3363 47.375 59.9781 47.375 59.575V44.575L36.125 48.9663V64Z" fill="#F2F4F8"/>
</g>
</g>
<defs>
<filter id="filter0_d_23:308" x="0" y="0" width="641" height="91" filterUnits="userSpaceOnUse" color-interpolation-filters="sRGB">
<feFlood flood-opacity="0" result="BackgroundImageFix"/>
<feColorMatrix in="SourceAlpha" type="matrix" values="0 0 0 0 0 0 0 0 0 0 0 0 0 0 0 0 0 0 127 0" result="hardAlpha"/>
<feOffset dy="4"/>
<feGaussianBlur stdDeviation="2"/>
<feComposite in2="hardAlpha" operator="out"/>
<feColorMatrix type="matrix" values="0 0 0 0 0 0 0 0 0 0 0 0 0 0 0 0 0 0 0.25 0"/>
<feBlend mode="normal" in2="BackgroundImageFix" result="effect1_dropShadow_23:308"/>
<feBlend mode="normal" in="SourceGraphic" in2="effect1_dropShadow_23:308" result="shape"/>
</filter>
<clipPath id="clip0_23:308">
<rect width="45" height="45" fill="white" transform="translate(23 19)"/>
</clipPath>
</defs>
</svg>
