<svg width="286" height="333" viewBox="0 0 286 333" fill="none" xmlns="http://www.w3.org/2000/svg">
<path d="M146.144 203.164L140.156 217.725C140.156 217.725 139.887 219.764 141.648 218.994C143.409 218.224 142.867 218.141 142.867 218.141L147.92 202.029C147.92 202.029 147.967 200.935 147.218 201.432C146.469 201.929 146.144 203.164 146.144 203.164Z" fill="#4C5F94"/>
<path d="M142.561 196.228L126.958 204.843C126.958 204.843 125.28 206.48 127.392 207.118C129.503 207.755 129.079 207.27 129.079 207.27L144.943 196.548C144.943 196.548 145.757 195.595 144.739 195.477C143.722 195.359 142.561 196.228 142.561 196.228Z" fill="#4C5F94"/>
<path d="M208.16 171.494L190.26 173.645C190.26 173.645 188.069 174.515 189.815 175.841C191.561 177.168 191.344 176.581 191.344 176.581L210.28 172.632C210.28 172.632 211.402 172.069 210.49 171.599C209.578 171.129 208.16 171.494 208.16 171.494Z" fill="#4C5F94"/>
<path d="M130.279 188.58L114.676 197.195C114.676 197.195 112.998 198.833 115.11 199.47C117.221 200.107 116.797 199.622 116.797 199.622L132.662 188.9C132.662 188.9 133.475 187.947 132.457 187.829C131.44 187.711 130.279 188.58 130.279 188.58Z" fill="#4C5F94"/>
<path d="M144.847 252.304L124.352 237.53C124.352 237.53 121.694 236.109 123.318 238.532C124.941 240.955 124.843 240.384 124.843 240.384L146.934 254.944C146.934 254.944 148.323 255.596 147.42 254.473C146.517 253.349 144.847 252.304 144.847 252.304Z" fill="#E4E9F1"/>
<path d="M129.936 231.905L118.623 224.252C118.623 224.252 116.906 223.648 117.167 225.238C117.428 226.828 117.628 226.399 117.628 226.399L130.511 233.576C130.511 233.576 131.456 233.82 131.197 233.112C130.938 232.404 129.936 231.905 129.936 231.905Z" fill="#E4E9F1"/>
<path d="M121.602 293.024L103.859 296.745C103.859 296.745 101.728 297.839 103.562 299.094C105.395 300.35 105.139 299.749 105.139 299.749L123.796 294.051C123.796 294.051 124.88 293.366 123.936 292.945C122.993 292.525 121.602 293.024 121.602 293.024Z" fill="#E4E9F1"/>
<path d="M120.66 282.021L96.3725 285.833C96.3725 285.833 93.5227 286.926 96.2048 288.141C98.8868 289.356 98.4678 288.769 98.4678 288.769L123.821 283.008C123.821 283.008 125.255 282.326 123.9 281.922C122.544 281.519 120.66 282.021 120.66 282.021Z" fill="#E4E9F1"/>
<g filter="url(#filter0_i_34:332)">
<path d="M172.13 237.283C174.59 237.685 178.594 236.234 178.594 236.234L178.366 229.203C178.366 229.203 173.161 228.502 171.76 227.879L163.953 224.403C163.152 224.047 160.064 222.903 156.918 222.426C153.772 221.95 151.055 222.126 149.511 222.362C147.966 222.599 143.99 227.758 142.789 230.457C141.587 233.156 139.842 238.154 140.728 239.934C141.615 241.715 145.475 244.358 147.591 245.531C149.707 246.704 157.2 249.808 158.63 249.29C160.06 248.772 167.267 245.513 167.267 245.513L167.926 238.645C167.926 238.645 167.983 237.978 163.865 237.53C159.747 237.083 159.346 238.521 156.229 238.52C153.112 238.518 150.281 238.412 150.052 237.848C149.823 237.285 150.224 235.846 151.425 234.764C152.626 233.682 155.944 232.156 158.003 232.38C160.062 232.603 169.671 236.881 172.13 237.283Z" fill="#F2F4F8"/>
</g>
<g filter="url(#filter1_i_34:332)">
<path d="M140.448 201.234L148.598 207.173C148.598 207.173 144.908 210.612 142.42 211.352C139.932 212.092 130.094 212.101 130.094 212.101L127.835 208.555C127.835 208.555 134.556 206.927 136.958 204.763C139.361 202.598 140.448 201.234 140.448 201.234Z" fill="#F2F4F8"/>
</g>
<path d="M137.059 238.825L150.278 242.268C150.278 242.268 152.087 242.262 151.281 240.843C150.475 239.423 150.442 239.897 150.442 239.897L135.932 237.435C135.932 237.435 134.969 237.522 135.46 238.106C135.952 238.69 137.059 238.825 137.059 238.825Z" fill="#E4E9F1"/>
<path d="M166.883 221.165L160.476 230.376C160.476 230.376 160.007 231.865 161.43 231.885C162.854 231.905 162.457 231.65 162.457 231.65L168.366 220.907C168.366 220.907 168.544 220.074 167.917 220.197C167.289 220.32 166.883 221.165 166.883 221.165Z" fill="#E4E9F1"/>
<g filter="url(#filter2_i_34:332)">
<path d="M169.587 220.906C168.615 217.701 164.47 205.461 164.47 205.461L173.708 206.802C173.708 206.802 174.88 210.096 175.079 213.418C175.279 216.741 175.05 217.794 175.736 221.102C176.422 224.41 175.964 229.75 175.534 233.948C175.104 238.145 172.358 244.314 170.127 246.093C167.896 247.872 154.14 250.756 159.459 248.504C164.779 246.253 165.881 243.488 168.355 237.681C171.201 231.003 169.854 221.786 169.587 220.906Z" fill="#E4E9F1"/>
</g>
<path d="M147.928 291.647C148.471 292.582 154.22 292.6 154.22 292.6L154.763 288.685C154.763 288.685 150.532 281.488 150.846 283.476C151.16 285.464 147.385 290.712 147.928 291.647Z" fill="#F2F4F8"/>
<g filter="url(#filter3_i_34:332)">
<path d="M156.685 247.731C158.831 242.912 153.57 233.178 153.57 233.178L160.919 241.993C160.919 241.993 161.805 245.391 157.886 251.5C153.967 257.609 146.674 259.444 143.013 260.124C139.353 260.804 135.177 264.258 130.744 265.056C126.311 265.854 114.5 265.447 109.437 267.12C104.375 268.793 100.314 269.295 98.7121 271.816C97.1102 274.336 95.1356 283.621 95.1356 283.621C95.1356 283.621 92.7334 282.551 91.3041 278.219C89.8748 273.887 87.9871 274.895 90.3044 269.69C92.6216 264.485 95.3385 264.308 98.7708 261.447C102.203 258.587 106.808 257.403 112.527 256.946C118.247 256.49 137.408 257.628 141.498 255.984C145.588 254.34 154.54 252.551 156.685 247.731Z" fill="#F2F4F8"/>
</g>
<path d="M113.001 269.454L94.2364 272.46C94.2364 272.46 92.018 273.359 94.0482 274.413C96.0784 275.467 95.7714 274.966 95.7714 274.966L115.405 270.32C115.405 270.32 116.525 269.756 115.493 269.401C114.461 269.046 113.001 269.454 113.001 269.454Z" fill="#E4E9F1"/>
<path d="M123.191 257.274L104.727 261.566C104.727 261.566 102.584 262.617 104.681 263.531C106.778 264.445 106.437 263.965 106.437 263.965L125.647 257.974C125.647 257.974 126.721 257.333 125.669 257.049C124.616 256.766 123.191 257.274 123.191 257.274Z" fill="#E4E9F1"/>
<path d="M119.421 248.449L117.961 261.012C117.961 261.012 118.276 262.748 119.668 262.023C121.06 261.299 120.544 261.251 120.544 261.251L120.727 247.415C120.727 247.415 120.47 246.488 119.924 246.939C119.378 247.391 119.421 248.449 119.421 248.449Z" fill="#E4E9F1"/>
<path d="M147.165 210.013L147.374 222.7C147.374 222.7 147.912 224.388 149.193 223.493C150.474 222.598 149.957 222.615 149.957 222.615L148.32 208.82C148.32 208.82 147.943 207.93 147.464 208.447C146.984 208.965 147.165 210.013 147.165 210.013Z" fill="#E4E9F1"/>
<path d="M177.883 201.987L168.765 188.627C168.765 188.627 167.181 187.216 166.884 189.087C166.587 190.959 166.95 190.57 166.95 190.57L177.887 204.084C177.887 204.084 178.79 204.763 178.772 203.868C178.755 202.973 177.883 201.987 177.883 201.987Z" fill="#4C5F94"/>
<g filter="url(#filter4_i_34:332)">
<path d="M96.5348 298.796L110.948 305.212C110.948 305.212 112.692 305.065 111.892 303.092C111.091 301.119 105.859 293.476 104.286 291.621C102.713 289.766 100.197 290.032 97.8235 286.203C95.4504 282.375 88.9597 273.249 88.9597 273.249C88.9597 273.249 90.8172 283.084 92.1891 289.701C93.5609 296.317 96.5348 298.796 96.5348 298.796Z" fill="#E4E9F1"/>
</g>
<g filter="url(#filter5_i_34:332)">
<path d="M117.853 214.274C118.254 212.836 128.349 212.248 128.349 212.248L126.748 208.302C126.748 208.302 120.199 209.544 117.31 210.106C114.422 210.668 110.361 211.17 109.359 213.958C108.358 216.746 107.557 218.006 108.1 220.558C108.643 223.109 114.905 231.672 115.991 235.158C117.077 238.645 120.737 249.282 122.881 252.547C125.025 255.812 139.666 270.876 140.896 271.885C142.125 272.895 149.102 282.006 151.275 284.129C153.448 286.251 152.275 289.425 152.676 291.22C153.076 293.015 154.82 292.868 156.136 292.067C157.452 291.267 157.08 289.947 157.338 287.752C157.595 285.557 154.107 277.767 154.107 277.767C154.107 277.767 150.905 271.491 148.475 268.33C146.044 265.169 132.119 250.654 129.66 245.401C127.201 240.149 125.4 232.88 124.286 228.919C123.171 224.957 117.452 215.713 117.853 214.274Z" fill="#E4E9F1"/>
</g>
<g filter="url(#filter6_i_34:332)">
<path d="M166.21 239.267C164.951 242.634 158.687 250.239 158.687 250.239C158.687 250.239 160.918 245.227 160.118 243.254C159.317 241.28 158.831 239.678 156.858 237.645C154.885 235.612 150.767 233.547 146.793 230.623C142.818 227.698 138.643 223.068 138.643 223.068L143.563 217.405C143.563 217.405 152.085 221.429 154.315 222.884C156.546 224.339 162.208 229.401 162.951 230.425C163.694 231.449 167.469 235.901 166.21 239.267Z" fill="#E4E9F1"/>
</g>
<g filter="url(#filter7_i_34:332)">
<path d="M92.4447 101.097C92.4447 101.097 90.3868 92.7891 90.901 96.4829C91.4153 100.177 88.6701 98.2615 86.9828 97.7414C85.2956 97.2212 79.89 99.6655 79.2322 100.066C78.5744 100.466 77.7734 101.726 78.0307 102.765C78.2879 103.803 81.8909 107.024 81.8909 107.024L86.6099 106.122C86.6099 106.122 86.5398 105.931 86.4293 105.637C86.6559 105.888 86.9151 106.14 87.2104 106.389C88.9547 107.859 93.8449 109.805 93.8449 109.805L92.4447 101.097Z" fill="#FFEFAD"/>
</g>
<g filter="url(#filter8_i_34:332)">
<path d="M165.224 135.345C168.442 131.003 165.082 123.271 166.627 119.801C168.172 116.331 170.743 134.8 170.743 134.8C170.743 134.8 171.372 138.775 169.627 140.54C167.882 142.304 160.418 141.291 159.646 143.026C158.873 144.761 159.646 143.026 161.476 145.919C163.306 148.813 163.792 150.415 162.762 152.728C161.732 155.042 148.004 161.634 148.004 161.634C148.004 161.634 156.813 154.238 156.441 152.917C156.07 151.597 155.012 151.819 153.868 150.617C152.724 149.415 153.611 146.345 154.498 144.892C155.385 143.438 155.356 142.964 157.702 139.85C160.047 136.737 162.006 139.687 165.224 135.345Z" fill="#FFEFAD"/>
</g>
<g filter="url(#filter9_i_34:332)">
<path d="M98.6728 146.371C95.6984 147.126 97.4142 148.121 95.6409 149.41C93.8676 150.7 93.0103 146.16 92.8676 143.787C92.7249 141.414 94.4127 138.7 95.6998 137.425C96.9869 136.15 101.963 134.67 104.166 134.034C106.368 133.397 119.238 127.115 124.787 120.577C130.336 114.039 135.457 105.231 136.887 99.8624C138.318 94.4937 137.061 83.3087 137.061 83.3087L138.463 82.3157C138.463 82.3157 138.892 82.9686 141.437 86.4114C143.981 89.8542 147.269 97.5546 145.695 103.784C144.121 110.013 141.604 115.129 138.4 120.17C135.197 125.211 129.076 130.34 123.927 133.823C118.779 137.305 101.591 141.434 100.561 142.13C99.5313 142.827 101.647 145.617 98.6728 146.371Z" fill="#FFEFAD"/>
</g>
<path d="M152.487 109.055L167.513 124.263C167.513 124.263 169.824 125.734 169.555 123.259C169.285 120.784 168.99 121.364 168.99 121.364L151.792 106.355C151.792 106.355 150.516 105.678 150.831 106.827C151.146 107.976 152.487 109.055 152.487 109.055Z" fill="#FFE580"/>
<path d="M147.577 130.211L168.93 130.239C168.93 130.239 171.565 129.632 169.534 128.079C167.503 126.527 167.741 127.146 167.741 127.146L145.095 128.802C145.095 128.802 143.743 129.233 144.811 129.819C145.88 130.404 147.577 130.211 147.577 130.211Z" fill="#FFE580"/>
<path d="M150.105 135.872L167.791 135.733C167.791 135.733 169.978 135.195 168.307 133.888C166.636 132.58 166.829 133.105 166.829 133.105L148.06 134.69C148.06 134.69 146.936 135.067 147.817 135.558C148.698 136.049 150.105 135.872 150.105 135.872Z" fill="#FFE580"/>
<path d="M144.857 131.175L134.542 116.876C134.542 116.876 132.822 115.384 132.668 117.434C132.513 119.485 132.851 119.05 132.851 119.05L145.026 133.463C145.026 133.463 145.997 134.176 145.908 133.2C145.82 132.224 144.857 131.175 144.857 131.175Z" fill="#FFE580"/>
<path d="M143.763 145.342L152.195 157.662C152.195 157.662 153.871 159.008 154.68 157.393C155.489 155.778 154.94 156.092 154.94 156.092L144.245 143.508C144.245 143.508 143.261 142.851 143.075 143.635C142.89 144.418 143.763 145.342 143.763 145.342Z" fill="#FFE580"/>
<path d="M124.072 156.629L138.888 169.95C138.888 169.95 141.236 171.17 141.148 168.829C141.061 166.489 140.698 167.066 140.698 167.066L123.549 154.107C123.549 154.107 122.241 153.563 122.485 154.635C122.728 155.706 124.072 156.629 124.072 156.629Z" fill="#FFE580"/>
<path d="M114.382 151.637L98.6133 142.925C98.6133 142.925 96.548 142.2 97.7438 143.915C98.9396 145.631 98.8852 145.18 98.8852 145.18L115.939 153.454C115.939 153.454 117.022 153.758 116.348 152.988C115.673 152.217 114.382 151.637 114.382 151.637Z" fill="#FFE580"/>
<path d="M126.45 164.304L141.151 155.8C141.151 155.8 142.712 154.251 140.674 153.793C138.636 153.335 139.055 153.745 139.055 153.745L124.161 164.143C124.161 164.143 123.408 165.035 124.385 165.087C125.363 165.139 126.45 164.304 126.45 164.304Z" fill="#FFE580"/>
<path d="M120.226 93.16L134.927 84.656C134.927 84.656 136.488 83.1072 134.45 82.6491C132.412 82.191 132.831 82.6018 132.831 82.6018L117.937 92.9994C117.937 92.9994 117.184 93.8919 118.161 93.9438C119.138 93.9958 120.226 93.16 120.226 93.16Z" fill="#FFE580"/>
<path d="M99.4232 99.6242L113.22 93.7362C113.22 93.7362 114.75 92.5774 112.999 92.0411C111.248 91.5048 111.577 91.8767 111.577 91.8767L97.4217 99.3142C97.4217 99.3142 96.6701 99.9933 97.526 100.112C98.3819 100.23 99.4232 99.6242 99.4232 99.6242Z" fill="#FFE580"/>
<path d="M125.99 154.531L129.832 143.1C129.832 143.1 129.928 141.516 128.607 142.165C127.285 142.815 127.709 142.862 127.709 142.862L124.676 155.462C124.676 155.462 124.7 156.309 125.253 155.902C125.805 155.495 125.99 154.531 125.99 154.531Z" fill="#FFE580"/>
<path d="M130.743 112.086L130.939 99.9643C130.939 99.9643 130.554 98.4102 129.497 99.4147C128.44 100.419 128.857 100.343 128.857 100.343L129.779 113.36C129.779 113.36 130.056 114.17 130.457 113.619C130.859 113.068 130.743 112.086 130.743 112.086Z" fill="#FFE580"/>
<path d="M133.859 142.919L138.892 131.964C138.892 131.964 139.155 130.404 137.768 130.915C136.382 131.427 136.8 131.517 136.8 131.517L132.451 143.711C132.451 143.711 132.385 144.553 132.979 144.205C133.574 143.856 133.859 142.919 133.859 142.919Z" fill="#FFE580"/>
<path d="M163.881 120.656L154.52 137.153C154.52 137.153 153.724 139.284 155.523 137.96C157.323 136.635 156.856 136.722 156.856 136.722L165.794 118.96C165.794 118.96 166.133 117.847 165.322 118.58C164.511 119.314 163.881 120.656 163.881 120.656Z" fill="#FFE580"/>
<path d="M116.159 162.499L125.688 179.282C125.688 179.282 127.367 181.106 127.737 178.887C128.106 176.667 127.703 177.103 127.703 177.103L116.209 159.983C116.209 159.983 115.249 159.094 115.245 160.169C115.24 161.244 116.159 162.499 116.159 162.499Z" fill="#FFE580"/>
<path d="M80.2693 121.635L93.4524 135.928C93.4524 135.928 95.5071 137.337 95.3391 135.08C95.1711 132.822 94.8847 133.34 94.8847 133.34L79.7219 119.159C79.7219 119.159 78.5836 118.504 78.834 119.558C79.0845 120.612 80.2693 121.635 80.2693 121.635Z" fill="#FFE580"/>
<path d="M121.195 143.273L102.475 137.634C102.475 137.634 99.9975 137.464 101.352 139.334C102.707 141.203 102.669 140.608 102.669 140.608L122.985 145.138C122.985 145.138 124.29 145.123 123.513 144.338C122.737 143.553 121.195 143.273 121.195 143.273Z" fill="#FFE580"/>
<path d="M112.621 107.579L93.9004 101.94C93.9004 101.94 91.4228 101.77 92.7777 103.64C94.1325 105.51 94.0938 104.915 94.0938 104.915L114.41 109.444C114.41 109.444 115.715 109.429 114.939 108.644C114.162 107.859 112.621 107.579 112.621 107.579Z" fill="#FFE580"/>
<path d="M130.974 135.378L111.688 132.428C111.688 132.428 109.221 132.611 110.835 134.276C112.449 135.941 112.322 135.356 112.322 135.356L133.015 136.976C133.015 136.976 134.299 136.777 133.417 136.107C132.535 135.437 130.974 135.378 130.974 135.378Z" fill="#FFE580"/>
<path d="M122.311 168.552L118.195 180.541C118.195 180.541 117.805 183.187 118.493 185.004C119.182 186.82 119.017 185.774 119.017 185.774L123.058 169.84C123.058 169.84 123.236 168.255 122.918 167.741C122.6 167.226 122.311 168.552 122.311 168.552Z" fill="#FFE580"/>
<path d="M143.519 142.977L156.78 148.614C156.78 148.614 158.592 148.935 157.776 147.448C156.961 145.962 156.931 146.404 156.931 146.404L142.382 141.46C142.382 141.46 141.417 141.368 141.913 142.008C142.408 142.649 143.519 142.977 143.519 142.977Z" fill="#FFE580"/>
<path d="M178.831 139.54L169.123 139.426C169.123 139.426 167.818 139.804 168.467 140.807C169.117 141.811 169.118 141.413 169.118 141.413L179.711 140.454C179.711 140.454 180.402 140.184 180.02 139.804C179.637 139.424 178.831 139.54 178.831 139.54Z" fill="#FFE580"/>
<g filter="url(#filter10_i_34:332)">
<path d="M165.445 117.664C165.102 113.584 166.818 114.579 169.42 115.738C172.023 116.896 172.364 130.676 172.849 133.895C173.335 137.115 169.731 141.978 168.129 142.882C166.528 143.785 164.84 144.882 161.98 144.302C159.121 143.722 151.314 140.246 147.911 138.731C144.508 137.216 131.753 130.845 129.723 127.862C127.693 124.88 126.693 119.584 127.294 115.001C127.895 110.418 135.103 105.542 134.217 103.761C133.33 101.981 118.747 102.412 116.088 100.304C113.428 98.1963 105.448 90.2608 103.189 89.9479C100.93 89.6351 100.969 90.5704 99.9959 92.2163C99.0234 93.8622 100.244 97.6396 98.7283 99.9675C97.2122 102.295 95.9908 101.752 95.4756 104.525C94.9604 107.299 93.6731 110.19 93.6731 110.19C93.6731 110.19 92.8735 101.75 91.7014 98.4562C90.5293 95.1625 89.1568 93.3966 91.3882 88.3843C93.6196 83.372 100.713 79.831 107.633 83.1429C114.554 86.4548 116.318 89.5502 119.95 91.629C123.582 93.7078 136.048 95.337 139.623 98.0833C143.197 100.83 145.656 106.082 142.939 109.492C140.221 112.902 138.791 111.803 137.447 115.363C136.102 118.922 135.902 118.833 137.045 121.652C138.189 124.471 143.308 125.364 147.369 128.095C151.429 130.827 154.203 133.217 154.203 133.217C154.203 133.217 161.066 140.43 163.525 140.832C165.985 141.234 167.729 141.087 168.559 138.684C169.389 136.282 165.787 121.743 165.445 117.664Z" fill="#FFE580"/>
</g>
<g filter="url(#filter11_i_34:332)">
<path d="M111.737 185.45L119.344 188.836C119.344 188.836 118.056 190.111 116.026 191.979C113.995 193.847 114.052 196.413 114.052 196.413L104.558 190.8C104.558 190.8 105.588 188.487 107.447 187.005C109.306 185.523 111.737 185.45 111.737 185.45Z" fill="#6B7EB3"/>
</g>
<g filter="url(#filter12_i_34:332)">
<path d="M138.643 223.068L143.563 217.404C143.563 217.404 129.094 205.188 119.171 198.923C109.248 192.657 104.644 190.608 104.644 190.608C104.644 190.608 106.674 193.59 110.763 198.413C114.852 203.237 138.643 223.068 138.643 223.068Z" fill="#4C5F94"/>
</g>
<g filter="url(#filter13_i_34:332)">
<path d="M159.554 188.489C161.957 184.708 174.769 182.328 174.769 182.328C174.769 182.328 170.021 187.606 170.478 191.967C170.935 196.328 173.708 206.802 173.708 206.802L164.47 205.461C164.47 205.461 157.151 192.27 159.554 188.489Z" fill="#4C5F94"/>
</g>
<g filter="url(#filter14_i_34:332)">
<path d="M200.702 226.442C208.081 224.414 214.373 218.9 214.373 218.9C214.373 218.9 210.054 226.448 205.106 228.403C200.158 230.358 178.594 236.234 178.594 236.234L178.452 229.01C178.452 229.01 193.323 228.47 200.702 226.442Z" fill="#6B7EB3"/>
</g>
<g filter="url(#filter15_i_34:332)">
<path d="M229.318 107.749C230.977 106.178 232.579 100.423 232.579 100.423L236.383 100.5C236.383 100.5 233.378 110.481 230.289 114.187C227.2 117.894 224.168 119.316 222.452 123.172C220.735 127.027 215.415 137.363 209.436 144.865C203.458 152.367 201.542 154.517 195.935 160.105C190.329 165.694 184.122 172.632 181.492 170.999C178.861 169.366 174.685 167.969 173.656 165.432C172.627 162.895 187.184 161.984 195.679 150.983C204.175 139.982 202.43 141.746 207.436 134.273C212.442 126.8 214.015 122.188 218.163 116.642C222.311 111.097 227.659 109.32 229.318 107.749Z" fill="#6B7EB3"/>
</g>
<path d="M135.689 173.959L157.86 167.691C157.86 167.691 157.419 168.598 158.722 166.239C160.026 163.88 158.41 163.468 158.41 163.468L136.339 171.973C136.339 171.973 134.38 173.09 134.141 173.907C133.901 174.724 135.689 173.959 135.689 173.959Z" fill="#4C5F94"/>
<g filter="url(#filter16_i_34:332)">
<path d="M157.886 50.5397C157.915 47.7807 152.768 41.5626 152.768 41.5626C152.768 41.5626 152.768 43.1794 151.824 45.3C150.88 47.4206 147.132 56.3776 144.701 59.684C142.269 62.9903 135.548 67.8516 132.001 68.8137C128.455 69.7757 117.044 71.1633 111.896 69.7956C106.749 68.4279 99.6563 67.1184 97.3688 64.714C95.0812 62.3097 99.0852 60.8584 98.0558 59.9382C97.0264 59.0179 89.3048 58.5832 86.8449 61.4148C84.385 64.2465 86.6727 65.034 88.1881 67.5566C89.7035 70.0791 96.5669 72.4417 96.5669 72.4417L104.374 75.9172C108.177 77.6105 114.612 79.3201 121.504 78.9237C128.397 78.5273 132.915 77.5361 137.406 76.0703C141.896 74.6045 147.159 69.7868 149.275 67.7263C151.392 65.6657 154.167 61.5882 155.368 58.8893C156.57 56.1904 157.857 53.2987 157.886 50.5397Z" fill="#6B7EB3"/>
</g>
<path d="M100.94 83.7533L110.393 64.008C110.393 64.008 111.049 61.3873 108.855 62.7973C106.662 64.2073 108.008 63.4447 108.008 63.4447L98.6667 85.6238C98.6667 85.6238 98.4292 87.0054 99.3904 86.1936C100.352 85.3817 100.94 83.7533 100.94 83.7533Z" fill="#4C5F94"/>
<path d="M109.025 84.8163L127.308 72.3743C127.308 72.3743 129.204 70.4373 126.553 70.6012C123.902 70.7651 124.47 71.0333 124.47 71.0333L106.073 85.3378C106.073 85.3378 105.169 86.4107 106.428 86.1723C107.687 85.9339 109.025 84.8163 109.025 84.8163Z" fill="#4C5F94"/>
<g filter="url(#filter17_i_34:332)">
<path d="M139.108 174.074C139.994 172.621 144.771 167.818 148.289 164.764C151.807 161.711 155.64 160.645 158.271 159.045C160.902 157.444 163.848 154.598 164.592 152.388C165.336 150.179 165.079 147.523 164.021 146.128C162.963 144.733 156.758 141.971 156.758 141.971C156.758 141.971 160.646 146.705 161.275 147.447C161.904 148.189 162.133 150.37 161.275 152.297C160.416 154.225 157.042 154.802 154.954 155.72C152.866 156.639 147.66 160.789 145.887 162.078C144.114 163.368 136.391 171.017 132.816 173.121C129.241 175.225 122.806 176.749 119.374 179.61C115.941 182.471 111.737 185.45 111.737 185.45L119.344 188.836C119.344 188.836 129.125 183.027 132.672 180.449C136.219 177.87 138.221 175.527 139.108 174.074Z" fill="#FFE580"/>
</g>
<path d="M124.339 178.392L111.989 190.946C111.989 190.946 110.835 192.839 112.95 192.518C115.064 192.196 114.551 191.988 114.551 191.988L126.627 177.724C126.627 177.724 127.147 176.685 126.175 176.984C125.202 177.284 124.339 178.392 124.339 178.392Z" fill="#4C5F94"/>
<g filter="url(#filter18_i_34:332)">
<path d="M190.712 87.7905C186.993 93.9885 182.702 102.011 182.702 102.011L178.298 101.667L182.847 91.4496C183.619 89.7146 186.537 83.16 189.684 78.7861C192.83 74.4122 193.631 73.1518 194.919 70.2601C196.206 67.3684 198.008 63.32 199.038 59.3898C200.069 55.4597 200.269 50.6983 199.526 48.0576C198.783 45.4168 198.983 43.8891 196.925 42.0486C194.866 40.2081 189.318 38.6621 189.318 38.6621C189.318 38.6621 190.834 37.951 194.752 38.3094C198.67 38.6677 204.246 40.6883 206.591 42.4252C208.936 44.162 209.25 47.7667 209.821 50.793C210.393 53.8193 210.593 57.142 208.361 62.1543C206.13 67.1666 205.052 69.2278 201.925 73.3792C198.798 77.5307 194.431 81.5924 190.712 87.7905Z" fill="#6B7EB3"/>
</g>
<g filter="url(#filter19_i_34:332)">
<path d="M136.118 77.3452C137.176 78.7402 139.235 82.1975 139.235 82.1975L138.205 84.5109C138.205 84.5109 133.316 77.7144 128.712 74.0479C124.108 70.3813 103.689 61.2913 97.2834 60.0564C90.8775 58.8214 86.7588 61.6076 86.7588 61.6076C86.7588 61.6076 87.7887 59.2943 89.6764 58.2867C91.5641 57.2792 93.709 57.3101 98.2275 57.9358C102.746 58.5615 125.795 69.2847 129.656 71.9273C133.516 74.5699 135.06 75.9503 136.118 77.3452Z" fill="#4C5F94"/>
</g>
<g filter="url(#filter20_i_34:332)">
<path d="M156.686 40.3041L157.542 51.3108C157.542 51.3108 155.713 43.5668 152.31 42.0518C148.907 40.5368 148.536 34.366 150.825 30.3031C153.113 26.2401 156.545 23.3794 160.807 22.9666C165.068 22.5537 168.213 24.6471 172.131 26.6222C176.049 28.5974 179.909 32.8568 181.739 37.3671C183.569 41.8775 180.051 44.931 178.677 51.2492C177.303 57.5673 176.559 61.3938 174.156 66.7917C171.753 72.1895 171.066 75.3486 166.919 77.6601C162.772 79.9716 165.374 81.1302 164.43 83.2507C163.486 85.3713 159.568 83.3962 156.995 82.7124C154.421 82.0285 154.221 80.3226 156.452 75.3103C158.684 70.298 162.115 70.6708 164.776 67.9283C167.436 65.1857 168.666 61.3446 168.723 59.0604C168.781 56.7761 168.324 52.4149 168.925 49.4486C169.526 46.4823 170.527 43.6943 171.643 41.1881C172.759 38.682 169.585 36.1139 169.585 36.1139C169.585 36.1139 167.983 35.401 163.55 34.5826C159.118 33.7641 156.344 32.9911 155.228 35.4973C154.112 38.0034 156.686 40.3041 156.686 40.3041Z" fill="#6B7EB3"/>
</g>
<g filter="url(#filter21_i_34:332)">
<path d="M233.314 158.036C231.693 156.164 227.31 152.129 227.31 152.129C227.31 152.129 229.193 158.287 228.526 161.44C227.859 164.594 227.517 165.362 226.662 167.282C225.807 169.202 224.338 170.848 222.288 172.696C220.237 174.544 216.411 176.521 214.292 177.418C212.174 178.316 205.751 180.057 203.104 180.489C200.456 180.92 194.632 181.318 191.011 180.626C187.391 179.935 177.484 180.125 173.419 181.536C169.353 182.947 161.956 186.325 161.956 186.325C161.956 186.325 164.843 186.46 169.728 185.414C174.613 184.368 188.686 186.953 195.484 187.678C202.281 188.404 209.233 187.128 209.233 187.128C209.233 187.128 214.033 186.274 218.97 184.561C223.906 182.848 224.755 183.086 227.591 181.128C230.427 179.17 233.398 174.011 233.398 174.011C233.398 174.011 236.41 168.401 236.462 164.973C236.515 161.546 234.936 159.908 233.314 158.036Z" fill="#6B7EB3"/>
</g>
<path d="M188.123 149.597L181.224 165.723C181.224 165.723 180.913 168.024 182.937 167.28C184.961 166.535 184.338 166.4 184.338 166.4L190.166 148.438C190.166 148.438 190.221 147.196 189.36 147.706C188.499 148.215 188.123 149.597 188.123 149.597Z" fill="#4C5F94"/>
<path d="M190.046 71.1621L184.368 86.0058C184.368 86.0058 184.197 88.1587 186.08 87.562C187.964 86.9654 187.364 86.8055 187.364 86.8055L191.924 70.1761C191.924 70.1761 191.909 69.0081 191.118 69.4438C190.328 69.8794 190.046 71.1621 190.046 71.1621Z" fill="#4C5F94"/>
<path d="M180.846 66.4695L171.477 84.0015C171.477 84.0015 170.707 86.266 172.579 84.8557C174.45 83.4454 173.954 83.5381 173.954 83.5381L182.824 64.665C182.824 64.665 183.144 63.4825 182.306 64.263C181.467 65.0435 180.846 66.4695 180.846 66.4695Z" fill="#4C5F94"/>
<path d="M199.723 157.513L189.73 159.853C189.73 159.853 188.396 160.672 189.09 161.795C189.784 162.918 189.775 162.407 189.775 162.407L200.652 158.461C200.652 158.461 201.356 157.937 200.953 157.547C200.549 157.157 199.723 157.513 199.723 157.513Z" fill="#4C5F94"/>
<path d="M187.08 137.455L200.486 149.68C200.486 149.68 202.609 150.807 202.524 148.677C202.438 146.548 202.113 147.07 202.113 147.07L186.6 135.157C186.6 135.157 185.419 134.653 185.642 135.629C185.864 136.606 187.08 137.455 187.08 137.455Z" fill="#4C5F94"/>
<path d="M154.956 59.5115L163.601 75.2518C163.601 75.2518 165.244 76.9883 165.883 74.97C166.522 72.9516 166.035 73.335 166.035 73.335L155.277 57.2093C155.277 57.2093 154.321 56.3576 154.203 57.3419C154.085 58.3262 154.956 59.5115 154.956 59.5115Z" fill="#4C5F94"/>
<path d="M204.259 119.65L216.096 127.496C216.096 127.496 218.104 128.085 218.369 126.377C218.633 124.67 218.21 125.141 218.21 125.141L204.144 117.866C204.144 117.866 203.006 117.637 203.075 118.392C203.143 119.147 204.259 119.65 204.259 119.65Z" fill="#4C5F94"/>
<path d="M209.948 77.7777L221.784 85.6236C221.784 85.6236 223.793 86.2126 224.057 84.5053C224.322 82.7979 223.899 83.2688 223.899 83.2688L209.833 75.994C209.833 75.994 208.695 75.7653 208.763 76.5203C208.832 77.2753 209.948 77.7777 209.948 77.7777Z" fill="#4C5F94"/>
<path d="M202.947 75.2787L214.748 87.0067C214.748 87.0067 216.79 88.1238 217.152 86.1716C217.515 84.2195 217.054 84.684 217.054 84.684L202.922 73.1568C202.922 73.1568 201.76 72.6474 201.791 73.5498C201.822 74.4521 202.947 75.2787 202.947 75.2787Z" fill="#4C5F94"/>
<path d="M213.415 108.193L224.928 113.748C224.928 113.748 226.976 114.035 227.473 112.496C227.969 110.957 227.462 111.422 227.462 111.422L213.521 106.63C213.521 106.63 212.347 106.561 212.323 107.22C212.299 107.879 213.415 108.193 213.415 108.193Z" fill="#4C5F94"/>
<path d="M212.785 97.346L231.135 101.063C231.135 101.063 234.997 101.089 237.303 99.6383C239.61 98.1873 238.198 98.6666 238.198 98.6666L214.327 95.9187C214.327 95.9187 212.034 95.9896 211.425 96.5893C210.816 97.1891 212.785 97.346 212.785 97.346Z" fill="#4C5F94"/>
<path d="M101.435 81.0901L93.2591 62.0903C93.2591 62.0903 91.8325 59.9704 91.5503 62.3465C91.2681 64.7226 91.5116 63.3305 91.5116 63.3305L101.424 83.8144C101.424 83.8144 102.238 84.8592 102.228 83.6938C102.219 82.5284 101.435 81.0901 101.435 81.0901Z" fill="#4C5F94"/>
<path d="M99.3859 73.424L97.7469 62.1861C97.7469 62.1861 97.023 60.6949 95.8559 61.4984C94.6887 62.3018 95.4547 61.8671 95.4547 61.8671L98.3765 74.4895C98.3765 74.4895 98.8497 75.2755 99.2664 74.8131C99.6831 74.3507 99.3859 73.424 99.3859 73.424Z" fill="#4C5F94"/>
<path d="M103.78 74.4051L95.7924 65.9881C95.7924 65.9881 94.3279 65.1574 93.8729 66.4849C93.4178 67.8123 93.7715 67.0182 93.7715 67.0182L103.607 75.8612C103.607 75.8612 104.452 76.2474 104.51 75.6275C104.568 75.0076 103.78 74.4051 103.78 74.4051Z" fill="#4C5F94"/>
<path d="M136.21 82.3749L128.222 73.9579C128.222 73.9579 126.758 73.1272 126.303 74.4547C125.848 75.7821 126.201 74.9879 126.201 74.9879L136.036 83.831C136.036 83.831 136.882 84.2172 136.94 83.5973C136.998 82.9774 136.21 82.3749 136.21 82.3749Z" fill="#4C5F94"/>
<path d="M114.216 76.2553L104.187 70.3004C104.187 70.3004 102.553 69.8981 102.503 71.3072C102.452 72.7164 102.56 71.851 102.56 71.851L114.471 77.7117C114.471 77.7117 115.386 77.8537 115.263 77.238C115.14 76.6222 114.216 76.2553 114.216 76.2553Z" fill="#4C5F94"/>
<path d="M133.45 85.4122L121.002 75.5119C121.002 75.5119 119.1 74.6482 119.354 76.4972C119.608 78.3463 119.537 77.2264 119.537 77.2264L134.053 87.3859C134.053 87.3859 135.102 87.7598 134.829 86.9222C134.556 86.0846 133.45 85.4122 133.45 85.4122Z" fill="#4C5F94"/>
<path d="M214.844 182.419L223.952 178.799C223.952 178.799 225.214 177.738 224.698 176.525C224.183 175.312 224.144 175.893 224.144 175.893L214.104 181.427C214.104 181.427 213.429 182.091 213.753 182.497C214.076 182.903 214.844 182.419 214.844 182.419Z" fill="#4C5F94"/>
<path d="M206.108 188.661L211.435 183.413C211.435 183.413 211.996 182.292 211.245 181.589C210.494 180.886 210.651 181.308 210.651 181.308L205.267 188.181C205.267 188.181 204.998 188.849 205.356 189.039C205.715 189.23 206.108 188.661 206.108 188.661Z" fill="#4C5F94"/>
<path d="M202.602 196.625L196.743 184.267C196.743 184.267 195.413 182.809 194.431 184.155C193.448 185.502 193.997 185.296 193.997 185.296L201.886 198.216C201.886 198.216 202.687 198.951 202.974 198.268C203.262 197.585 202.602 196.625 202.602 196.625Z" fill="#4C5F94"/>
<path d="M187.403 197.293L178.285 183.933C178.285 183.933 176.701 182.522 176.404 184.394C176.107 186.265 176.47 185.876 176.47 185.876L187.407 199.39C187.407 199.39 188.309 200.069 188.292 199.174C188.274 198.279 187.403 197.293 187.403 197.293Z" fill="#4C5F94"/>
<path d="M184.318 210.992L192.819 229.536C192.819 229.536 194.344 231.599 194.743 229.264C195.142 226.929 194.755 227.363 194.755 227.363L184.425 208.319C184.425 208.319 183.549 207.304 183.519 208.447C183.49 209.591 184.318 210.992 184.318 210.992Z" fill="#4C5F94"/>
<path d="M196.399 207.472L208.746 223.908C208.746 223.908 210.681 225.614 210.553 223.236C210.425 220.858 210.145 221.366 210.145 221.366L195.913 204.822C195.913 204.822 194.839 204.009 195.062 205.139C195.286 206.268 196.399 207.472 196.399 207.472Z" fill="#4C5F94"/>
<path d="M207.428 203.042L218.479 216.36C218.479 216.36 220.266 217.707 220.287 215.688C220.308 213.67 220.003 214.118 220.003 214.118L207.115 200.812C207.115 200.812 206.116 200.179 206.265 201.128C206.414 202.078 207.428 203.042 207.428 203.042Z" fill="#4C5F94"/>
<path d="M173.298 212.464L178.513 232.053C178.513 232.053 179.667 234.327 180.465 232.102C181.264 229.877 180.806 230.24 180.806 230.24L173.867 209.859C173.867 209.859 173.175 208.719 172.948 209.836C172.721 210.953 173.298 212.464 173.298 212.464Z" fill="#4C5F94"/>
<path d="M218.21 172.935L232.096 167.217C232.096 167.217 233.667 165.985 231.983 165.195C230.3 164.406 230.599 164.874 230.599 164.874L216.268 172.39C216.268 172.39 215.489 173.124 216.321 173.341C217.152 173.557 218.21 172.935 218.21 172.935Z" fill="#4C5F94"/>
<path d="M212.943 162.595L228.331 154.752C228.331 154.752 229.994 153.318 227.933 152.881C225.873 152.443 226.282 152.828 226.282 152.828L210.613 162.433C210.613 162.433 209.805 163.261 210.8 163.314C211.795 163.368 212.943 162.595 212.943 162.595Z" fill="#4C5F94"/>
<path d="M133.314 295.554L150.969 291.494C150.969 291.494 153.077 290.359 151.219 289.138C149.362 287.917 149.63 288.513 149.63 288.513L131.1 294.568C131.1 294.568 130.031 295.274 130.982 295.677C131.933 296.079 133.314 295.554 133.314 295.554Z" fill="#E4E9F1"/>
<path d="M133.631 284.83L151.668 282.556C151.668 282.556 153.89 281.64 152.164 280.244C150.439 278.848 150.644 279.466 150.644 279.466L131.525 283.632C131.525 283.632 130.385 284.226 131.292 284.72C132.198 285.214 133.631 284.83 133.631 284.83Z" fill="#E4E9F1"/>
<path d="M121.737 271.476L139.96 270.837C139.96 270.837 142.264 270.126 140.673 268.585C139.082 267.044 139.228 267.676 139.228 267.676L119.748 270.097C119.748 270.097 118.554 270.585 119.413 271.157C120.271 271.729 121.737 271.476 121.737 271.476Z" fill="#E4E9F1"/>
<path d="M109.889 92.1502L112.841 109.112C112.841 109.112 113.728 111.153 114.774 109.41C115.821 107.666 115.324 107.907 115.324 107.907L110.749 90.0608C110.749 90.0608 110.192 89.0226 109.839 89.9205C109.487 90.8185 109.889 92.1502 109.889 92.1502Z" fill="#4C5F94"/>
<path d="M96.731 93.851L99.683 110.812C99.683 110.812 100.57 112.854 101.617 111.11C102.663 109.367 102.166 109.608 102.166 109.608L97.5915 91.7616C97.5915 91.7616 97.0339 90.7234 96.6814 91.6213C96.3289 92.5193 96.731 93.851 96.731 93.851Z" fill="#4C5F94"/>
<path d="M114.742 84.4471L127.519 102.96C127.519 102.96 129.508 104.915 129.337 102.321C129.167 99.7271 128.892 100.266 128.892 100.266L114.205 81.5395C114.205 81.5395 113.104 80.5993 113.349 81.8401C113.595 83.0808 114.742 84.4471 114.742 84.4471Z" fill="#4C5F94"/>
<path d="M205.55 132.24L212.697 116.792C212.697 116.792 213.106 114.645 211.227 115.503C209.349 116.36 209.907 116.432 209.907 116.432L203.632 133.481C203.632 133.481 203.514 134.63 204.324 134.088C205.133 133.545 205.55 132.24 205.55 132.24Z" fill="#4C5F94"/>
<path d="M193.163 126.899L195.503 112.192C195.503 112.192 195.289 110.225 193.789 111.239C192.289 112.253 192.825 112.243 192.825 112.243L191.732 128.26C191.732 128.26 191.941 129.299 192.539 128.708C193.138 128.117 193.163 126.899 193.163 126.899Z" fill="#4C5F94"/>
<path d="M199.788 96.6625L184.54 94.6643C184.54 94.6643 182.541 94.9114 183.692 96.3533C184.844 97.7952 184.794 97.2734 184.794 97.2734L201.289 98.0301C201.289 98.0301 202.339 97.8072 201.688 97.2353C201.037 96.6634 199.788 96.6625 199.788 96.6625Z" fill="#4C5F94"/>
<path d="M197.244 114.91L185.628 104.835C185.628 104.835 183.808 103.925 183.932 105.727C184.056 107.529 184.318 107.08 184.318 107.08L197.704 116.847C197.704 116.847 198.714 117.249 198.502 116.427C198.291 115.605 197.244 114.91 197.244 114.91Z" fill="#4C5F94"/>
<path d="M197.881 64.398L203.298 46.6291C203.298 46.6291 203.502 44.3285 201.809 45.7438C200.115 47.1591 200.646 47.0707 200.646 47.0707L196.183 66.2141C196.183 66.2141 196.169 67.4165 196.884 66.6307C197.599 65.845 197.881 64.398 197.881 64.398Z" fill="#4C5F94"/>
<path d="M204.913 71.4492L205.537 59.0253C205.537 59.0253 205.162 57.3886 203.959 58.3068C202.755 59.225 203.219 59.1917 203.219 59.1917L203.803 72.6543C203.803 72.6543 204.083 73.5149 204.545 72.9924C205.008 72.4699 204.913 71.4492 204.913 71.4492Z" fill="#4C5F94"/>
<path d="M205.985 79.3655L199.825 70.0491C199.825 70.0491 198.712 69.0547 198.403 70.3338C198.093 71.6129 198.382 71.3523 198.382 71.3523L205.889 80.8047C205.889 80.8047 206.529 81.2852 206.559 80.6708C206.588 80.0563 205.985 79.3655 205.985 79.3655Z" fill="#4C5F94"/>
<path d="M172.747 47.6033L165.174 39.319C165.174 39.319 163.918 38.5053 163.822 39.8218C163.726 41.1383 163.968 40.8351 163.968 40.8351L172.887 49.0455C172.887 49.0455 173.595 49.4228 173.524 48.8089C173.452 48.195 172.747 47.6033 172.747 47.6033Z" fill="#4C5F94"/>
<path d="M143.069 40.8074L152.691 50.103C152.691 50.103 154.162 50.9887 153.966 49.442C153.769 47.8953 153.59 48.2633 153.59 48.2633L142.602 39.1261C142.602 39.1261 141.792 38.7222 142.003 39.4372C142.213 40.1522 143.069 40.8074 143.069 40.8074Z" fill="#4C5F94"/>
<path d="M131.461 36.9321L141 40.3546C141 40.3546 142.837 40.4628 143.604 39.3408C144.371 38.2189 143.809 38.5748 143.809 38.5748L131.871 35.8119C131.871 35.8119 130.799 35.8175 130.646 36.289C130.492 36.7605 131.461 36.9321 131.461 36.9321Z" fill="#4C5F94"/>
<path d="M138.822 50.3083L150.816 56.3702C150.816 56.3702 152.482 56.7826 151.812 55.3552C151.142 53.9277 151.088 54.3348 151.088 54.3348L137.855 48.8321C137.855 48.8321 136.964 48.6856 137.387 49.3097C137.81 49.9339 138.822 50.3083 138.822 50.3083Z" fill="#4C5F94"/>
<path d="M189.277 56.2125L195.196 39.9568C195.196 39.9568 195.444 37.7647 193.657 38.8377C191.871 39.9108 192.425 39.9184 192.425 39.9184L187.479 57.6728C187.479 57.6728 187.445 58.8347 188.203 58.1994C188.961 57.5642 189.277 56.2125 189.277 56.2125Z" fill="#4C5F94"/>
<path d="M207.169 153.344L213.957 146.458C213.957 146.458 214.67 144.985 213.709 144.057C212.748 143.129 212.95 143.684 212.95 143.684L206.094 152.709C206.094 152.709 205.752 153.587 206.21 153.839C206.669 154.091 207.169 153.344 207.169 153.344Z" fill="#4C5F94"/>
<g filter="url(#filter22_i_34:332)">
<path d="M140.448 201.235L148.598 207.173C148.598 207.173 149.552 205.288 153.929 201.923C158.305 198.559 164.042 198.341 167.475 195.48C170.907 192.62 172.452 185.916 171.28 182.622C170.108 179.329 163.799 173.286 163.799 173.286C163.799 173.286 165.657 183.122 163.483 185.85C161.309 188.578 153.93 190.605 150.469 192.992C147.008 195.378 140.448 201.235 140.448 201.235Z" fill="#6B7EB3"/>
</g>
<path d="M143.521 186.55L164.76 177.872C164.76 177.872 164.427 178.824 165.447 176.33C166.466 173.835 164.818 173.602 164.818 173.602L143.937 184.499C143.937 184.499 142.125 185.827 141.982 186.667C141.839 187.508 143.521 186.55 143.521 186.55Z" fill="#4C5F94"/>
<g filter="url(#filter23_i_34:332)">
<path d="M194.38 38.6058C198.754 39.5564 206.305 42.5288 206.305 42.5288C206.305 42.5288 202.016 39.2333 194.209 35.7577C186.402 32.2821 183.112 34.2827 178.479 34.9919C173.846 35.7012 173.503 36.4723 166.868 34.6735C160.233 32.8748 151.53 32.4896 144.189 33.3548C136.849 34.2199 135.552 35.5153 133.35 37.7686C131.147 40.022 128.573 44.1886 128.973 47.6004C129.373 51.0123 139.98 71.9037 138.521 76.7978C137.062 81.6919 136.289 86.6605 134.143 91.48C131.997 96.2996 126.849 103.016 121.043 105.282C115.237 107.548 107.301 109.212 102.196 109.365C97.0907 109.517 90.1023 107.824 88.5009 107.111C86.8994 106.398 86.6097 106.122 86.6097 106.122L81.8908 107.024C81.8908 107.024 86.2659 110.127 92.9006 111.925C99.5353 113.724 106.742 112.082 110.918 111.862C115.093 111.642 123.759 109.956 127.992 107.452C132.225 104.947 139.405 96.3633 142.294 92.5677C145.183 88.7721 147.071 82.9141 147.215 78.8203C147.358 74.7264 145.3 66.4186 143.557 60.0986C141.813 53.7786 135.579 48.9245 137.839 44.3869C140.099 39.8493 144.617 42.0918 151.881 41.3989C159.146 40.7061 167.21 43.6033 172.787 42.3903C178.364 41.1773 183.455 39.9788 183.455 39.9788C183.455 39.9788 190.006 37.6552 194.38 38.6058Z" fill="#4C5F94"/>
</g>
<g filter="url(#filter24_i_34:332)">
<path d="M235.116 157.221C236.46 160.129 235.974 160.144 235.973 161.761C235.973 161.761 234.315 160.098 231.884 156.937C229.454 153.777 226.594 151.58 223.191 150.065L215.184 146.5C215.184 146.5 209.408 144.39 206.519 141.718C203.631 139.047 204.146 136.273 205.091 134.153C206.035 132.032 207.35 131.232 209.438 130.313C210.649 129.781 216.067 128.353 220.049 128.569C224.03 128.785 225.74 129.255 225.74 129.255C225.74 129.255 223.424 124.759 217.733 120.84C212.042 116.921 202.291 113.503 197.4 113.174C192.51 112.845 185.704 111.432 185.704 111.432C185.704 111.432 178.697 109.929 176.753 108.371C174.808 106.812 175.809 105.641 175.809 105.641C175.809 105.641 177.555 100.643 180.014 101.045C182.473 101.447 181.816 101.847 186.477 103.229C191.138 104.611 197.43 105.565 204.208 108.12C210.985 110.675 219.478 115.842 219.478 115.842C219.478 115.842 222.595 117.461 225.998 120.593C229.401 123.724 232.632 128.859 232.632 128.859C232.632 128.859 234.319 132.612 232.459 135.711C230.6 138.811 226.282 138.274 224.337 138.332C222.392 138.39 214.499 138.341 214.499 138.341C214.499 138.341 218.102 138.328 221.162 140.615C224.222 142.901 224.651 143.554 226.767 146.344C228.883 149.133 233.772 154.313 235.116 157.221Z" fill="#4C5F94"/>
</g>
<g filter="url(#filter25_i_34:332)">
<path d="M188.225 82.0634C182.819 82.8908 176.756 84.1184 169.521 83.6691C162.285 83.2198 168.034 83.2381 161.084 82.6851C154.135 82.1322 154.345 79.6848 156.337 83.1125C158.329 86.5401 161.942 85.6078 175.297 89.0125C188.652 92.4172 211.732 87.4469 216.022 87.5088C220.312 87.5707 226.46 91.0008 228.462 91.892C230.464 92.7831 232.637 96.5224 233.065 102.026C233.493 107.529 230.003 115.908 230.003 115.908C230.003 115.908 237.898 101.406 238.671 96.437C239.444 91.4683 234.411 87.1489 233.325 85.2792C232.238 83.4096 228.692 81.138 220.913 79.7539C213.135 78.3698 193.63 81.2359 188.225 82.0634Z" fill="#4C5F94"/>
</g>
<g filter="url(#filter26_i_34:332)">
<path d="M174.27 166.39C173.561 165.287 173.294 164.809 173.771 165.714C173.896 165.952 174.064 166.177 174.27 166.39C175.687 168.595 178.87 173.297 181.405 174.425C185.209 176.119 194.103 178.23 198.02 181.822C201.938 185.414 206.77 194.495 208.6 197.389C210.429 200.282 214.118 206.544 214.947 208.992C215.776 211.44 217.205 215.772 213.573 220.16C209.94 224.549 202.532 229.336 202.532 229.336C205.152 229.124 216.089 223.129 216.089 223.129C216.089 223.129 219.778 222.923 223.154 217.496C226.516 212.089 223.663 206.208 221.662 202.085L221.64 202.039C219.639 197.914 209.517 183.476 206.2 180.151C202.883 176.826 192.931 170.086 187.555 169.772C182.649 169.484 176.411 168.604 174.27 166.39Z" fill="#4C5F94"/>
</g>
<g filter="url(#filter27_i_34:332)">
<path d="M163.359 174.014C168.106 178.437 171.166 182.34 171.166 182.34C171.166 182.34 169.565 176.777 165.934 171.465C162.302 166.152 156.04 160.823 156.04 160.823L155.295 167.883C155.295 167.883 158.613 169.591 163.359 174.014Z" fill="#4C5F94"/>
</g>
<g filter="url(#filter28_i_34:332)">
<path d="M131.818 150.04C135.25 153.647 155.295 167.883 155.295 167.883L156.04 160.823C156.04 160.823 151.622 155.662 146.947 152.155C142.272 148.649 138.94 146.974 134.193 142.551C129.446 138.128 121.841 121.807 109.973 117.216C98.1054 112.626 93.357 119.52 91.7549 123.658C90.1528 127.795 89.4662 129.338 90.7814 131.771C92.0966 134.204 93.6693 136.06 93.0397 138.551C92.4102 141.043 91.8097 140.775 92.3812 143.802C92.9528 146.828 92.9811 148.919 94.5825 149.632C96.1839 150.345 95.3832 149.989 97.0137 147.943C98.6441 145.897 101.361 145.72 101.647 144C101.933 142.279 97.7014 138.317 96.7861 139.295C95.8708 140.273 98.1298 142.203 96.2707 143.685C94.4116 145.167 96.4255 146.439 95.155 146.191C93.64 145.896 93.9826 144.885 93.9827 144.515C93.9829 142.898 96.5288 138.256 96.7007 136.254C96.8726 134.252 95.4723 127.161 95.4723 127.161C95.4723 127.161 95.1577 126.79 98.3325 125.046C100.017 124.339 102.369 124.052 105.482 125.149C112.946 127.779 128.387 146.434 131.818 150.04Z" fill="#FFE580"/>
</g>
<defs>
<filter id="filter0_i_34:332" x="140.486" y="222.125" width="38.1074" height="31.2227" filterUnits="userSpaceOnUse" color-interpolation-filters="sRGB">
<feFlood flood-opacity="0" result="BackgroundImageFix"/>
<feBlend mode="normal" in="SourceGraphic" in2="BackgroundImageFix" result="shape"/>
<feColorMatrix in="SourceAlpha" type="matrix" values="0 0 0 0 0 0 0 0 0 0 0 0 0 0 0 0 0 0 127 0" result="hardAlpha"/>
<feOffset dy="4"/>
<feGaussianBlur stdDeviation="2"/>
<feComposite in2="hardAlpha" operator="arithmetic" k2="-1" k3="1"/>
<feColorMatrix type="matrix" values="0 0 0 0 0 0 0 0 0 0 0 0 0 0 0 0 0 0 0.25 0"/>
<feBlend mode="normal" in2="shape" result="effect1_innerShadow_34:332"/>
</filter>
<filter id="filter1_i_34:332" x="127.835" y="201.234" width="20.7629" height="14.8666" filterUnits="userSpaceOnUse" color-interpolation-filters="sRGB">
<feFlood flood-opacity="0" result="BackgroundImageFix"/>
<feBlend mode="normal" in="SourceGraphic" in2="BackgroundImageFix" result="shape"/>
<feColorMatrix in="SourceAlpha" type="matrix" values="0 0 0 0 0 0 0 0 0 0 0 0 0 0 0 0 0 0 127 0" result="hardAlpha"/>
<feOffset dy="4"/>
<feGaussianBlur stdDeviation="2"/>
<feComposite in2="hardAlpha" operator="arithmetic" k2="-1" k3="1"/>
<feColorMatrix type="matrix" values="0 0 0 0 0 0 0 0 0 0 0 0 0 0 0 0 0 0 0.25 0"/>
<feBlend mode="normal" in2="shape" result="effect1_innerShadow_34:332"/>
</filter>
<filter id="filter2_i_34:332" x="158.246" y="205.461" width="17.8413" height="47.8672" filterUnits="userSpaceOnUse" color-interpolation-filters="sRGB">
<feFlood flood-opacity="0" result="BackgroundImageFix"/>
<feBlend mode="normal" in="SourceGraphic" in2="BackgroundImageFix" result="shape"/>
<feColorMatrix in="SourceAlpha" type="matrix" values="0 0 0 0 0 0 0 0 0 0 0 0 0 0 0 0 0 0 127 0" result="hardAlpha"/>
<feOffset dy="4"/>
<feGaussianBlur stdDeviation="2"/>
<feComposite in2="hardAlpha" operator="arithmetic" k2="-1" k3="1"/>
<feColorMatrix type="matrix" values="0 0 0 0 0 0 0 0 0 0 0 0 0 0 0 0 0 0 0.25 0"/>
<feBlend mode="normal" in2="shape" result="effect1_innerShadow_34:332"/>
</filter>
<filter id="filter3_i_34:332" x="89.2158" y="233.178" width="71.7891" height="54.4427" filterUnits="userSpaceOnUse" color-interpolation-filters="sRGB">
<feFlood flood-opacity="0" result="BackgroundImageFix"/>
<feBlend mode="normal" in="SourceGraphic" in2="BackgroundImageFix" result="shape"/>
<feColorMatrix in="SourceAlpha" type="matrix" values="0 0 0 0 0 0 0 0 0 0 0 0 0 0 0 0 0 0 127 0" result="hardAlpha"/>
<feOffset dy="4"/>
<feGaussianBlur stdDeviation="2"/>
<feComposite in2="hardAlpha" operator="arithmetic" k2="-1" k3="1"/>
<feColorMatrix type="matrix" values="0 0 0 0 0 0 0 0 0 0 0 0 0 0 0 0 0 0 0.25 0"/>
<feBlend mode="normal" in2="shape" result="effect1_innerShadow_34:332"/>
</filter>
<filter id="filter4_i_34:332" x="88.9597" y="273.249" width="23.1421" height="35.9636" filterUnits="userSpaceOnUse" color-interpolation-filters="sRGB">
<feFlood flood-opacity="0" result="BackgroundImageFix"/>
<feBlend mode="normal" in="SourceGraphic" in2="BackgroundImageFix" result="shape"/>
<feColorMatrix in="SourceAlpha" type="matrix" values="0 0 0 0 0 0 0 0 0 0 0 0 0 0 0 0 0 0 127 0" result="hardAlpha"/>
<feOffset dy="4"/>
<feGaussianBlur stdDeviation="2"/>
<feComposite in2="hardAlpha" operator="arithmetic" k2="-1" k3="1"/>
<feColorMatrix type="matrix" values="0 0 0 0 0 0 0 0 0 0 0 0 0 0 0 0 0 0 0.25 0"/>
<feBlend mode="normal" in2="shape" result="effect1_innerShadow_34:332"/>
</filter>
<filter id="filter5_i_34:332" x="107.924" y="208.302" width="49.427" height="88.3331" filterUnits="userSpaceOnUse" color-interpolation-filters="sRGB">
<feFlood flood-opacity="0" result="BackgroundImageFix"/>
<feBlend mode="normal" in="SourceGraphic" in2="BackgroundImageFix" result="shape"/>
<feColorMatrix in="SourceAlpha" type="matrix" values="0 0 0 0 0 0 0 0 0 0 0 0 0 0 0 0 0 0 127 0" result="hardAlpha"/>
<feOffset dy="4"/>
<feGaussianBlur stdDeviation="2"/>
<feComposite in2="hardAlpha" operator="arithmetic" k2="-1" k3="1"/>
<feColorMatrix type="matrix" values="0 0 0 0 0 0 0 0 0 0 0 0 0 0 0 0 0 0 0.25 0"/>
<feBlend mode="normal" in2="shape" result="effect1_innerShadow_34:332"/>
</filter>
<filter id="filter6_i_34:332" x="138.643" y="217.405" width="27.8218" height="36.8347" filterUnits="userSpaceOnUse" color-interpolation-filters="sRGB">
<feFlood flood-opacity="0" result="BackgroundImageFix"/>
<feBlend mode="normal" in="SourceGraphic" in2="BackgroundImageFix" result="shape"/>
<feColorMatrix in="SourceAlpha" type="matrix" values="0 0 0 0 0 0 0 0 0 0 0 0 0 0 0 0 0 0 127 0" result="hardAlpha"/>
<feOffset dy="4"/>
<feGaussianBlur stdDeviation="2"/>
<feComposite in2="hardAlpha" operator="arithmetic" k2="-1" k3="1"/>
<feColorMatrix type="matrix" values="0 0 0 0 0 0 0 0 0 0 0 0 0 0 0 0 0 0 0.25 0"/>
<feBlend mode="normal" in2="shape" result="effect1_innerShadow_34:332"/>
</filter>
<filter id="filter7_i_34:332" x="77.9814" y="95.5363" width="15.8635" height="18.2686" filterUnits="userSpaceOnUse" color-interpolation-filters="sRGB">
<feFlood flood-opacity="0" result="BackgroundImageFix"/>
<feBlend mode="normal" in="SourceGraphic" in2="BackgroundImageFix" result="shape"/>
<feColorMatrix in="SourceAlpha" type="matrix" values="0 0 0 0 0 0 0 0 0 0 0 0 0 0 0 0 0 0 127 0" result="hardAlpha"/>
<feOffset dy="4"/>
<feGaussianBlur stdDeviation="2"/>
<feComposite in2="hardAlpha" operator="arithmetic" k2="-1" k3="1"/>
<feColorMatrix type="matrix" values="0 0 0 0 0 0 0 0 0 0 0 0 0 0 0 0 0 0 0.25 0"/>
<feBlend mode="normal" in2="shape" result="effect1_innerShadow_34:332"/>
</filter>
<filter id="filter8_i_34:332" x="148.003" y="119.367" width="22.8503" height="46.2676" filterUnits="userSpaceOnUse" color-interpolation-filters="sRGB">
<feFlood flood-opacity="0" result="BackgroundImageFix"/>
<feBlend mode="normal" in="SourceGraphic" in2="BackgroundImageFix" result="shape"/>
<feColorMatrix in="SourceAlpha" type="matrix" values="0 0 0 0 0 0 0 0 0 0 0 0 0 0 0 0 0 0 127 0" result="hardAlpha"/>
<feOffset dy="4"/>
<feGaussianBlur stdDeviation="2"/>
<feComposite in2="hardAlpha" operator="arithmetic" k2="-1" k3="1"/>
<feColorMatrix type="matrix" values="0 0 0 0 0 0 0 0 0 0 0 0 0 0 0 0 0 0 0.25 0"/>
<feBlend mode="normal" in2="shape" result="effect1_innerShadow_34:332"/>
</filter>
<filter id="filter9_i_34:332" x="92.8591" y="82.3157" width="53.2461" height="71.321" filterUnits="userSpaceOnUse" color-interpolation-filters="sRGB">
<feFlood flood-opacity="0" result="BackgroundImageFix"/>
<feBlend mode="normal" in="SourceGraphic" in2="BackgroundImageFix" result="shape"/>
<feColorMatrix in="SourceAlpha" type="matrix" values="0 0 0 0 0 0 0 0 0 0 0 0 0 0 0 0 0 0 127 0" result="hardAlpha"/>
<feOffset dy="4"/>
<feGaussianBlur stdDeviation="2"/>
<feComposite in2="hardAlpha" operator="arithmetic" k2="-1" k3="1"/>
<feColorMatrix type="matrix" values="0 0 0 0 0 0 0 0 0 0 0 0 0 0 0 0 0 0 0.25 0"/>
<feBlend mode="normal" in2="shape" result="effect1_innerShadow_34:332"/>
</filter>
<filter id="filter10_i_34:332" x="90.1963" y="81.8531" width="82.6978" height="66.6108" filterUnits="userSpaceOnUse" color-interpolation-filters="sRGB">
<feFlood flood-opacity="0" result="BackgroundImageFix"/>
<feBlend mode="normal" in="SourceGraphic" in2="BackgroundImageFix" result="shape"/>
<feColorMatrix in="SourceAlpha" type="matrix" values="0 0 0 0 0 0 0 0 0 0 0 0 0 0 0 0 0 0 127 0" result="hardAlpha"/>
<feOffset dy="4"/>
<feGaussianBlur stdDeviation="2"/>
<feComposite in2="hardAlpha" operator="arithmetic" k2="-1" k3="1"/>
<feColorMatrix type="matrix" values="0 0 0 0 0 0 0 0 0 0 0 0 0 0 0 0 0 0 0.25 0"/>
<feBlend mode="normal" in2="shape" result="effect1_innerShadow_34:332"/>
</filter>
<filter id="filter11_i_34:332" x="104.558" y="185.45" width="14.7859" height="14.9631" filterUnits="userSpaceOnUse" color-interpolation-filters="sRGB">
<feFlood flood-opacity="0" result="BackgroundImageFix"/>
<feBlend mode="normal" in="SourceGraphic" in2="BackgroundImageFix" result="shape"/>
<feColorMatrix in="SourceAlpha" type="matrix" values="0 0 0 0 0 0 0 0 0 0 0 0 0 0 0 0 0 0 127 0" result="hardAlpha"/>
<feOffset dy="4"/>
<feGaussianBlur stdDeviation="2"/>
<feComposite in2="hardAlpha" operator="arithmetic" k2="-1" k3="1"/>
<feColorMatrix type="matrix" values="0 0 0 0 0 0 0 0 0 0 0 0 0 0 0 0 0 0 0.25 0"/>
<feBlend mode="normal" in2="shape" result="effect1_innerShadow_34:332"/>
</filter>
<filter id="filter12_i_34:332" x="104.644" y="190.608" width="38.9192" height="36.4603" filterUnits="userSpaceOnUse" color-interpolation-filters="sRGB">
<feFlood flood-opacity="0" result="BackgroundImageFix"/>
<feBlend mode="normal" in="SourceGraphic" in2="BackgroundImageFix" result="shape"/>
<feColorMatrix in="SourceAlpha" type="matrix" values="0 0 0 0 0 0 0 0 0 0 0 0 0 0 0 0 0 0 127 0" result="hardAlpha"/>
<feOffset dy="4"/>
<feGaussianBlur stdDeviation="2"/>
<feComposite in2="hardAlpha" operator="arithmetic" k2="-1" k3="1"/>
<feColorMatrix type="matrix" values="0 0 0 0 0 0 0 0 0 0 0 0 0 0 0 0 0 0 0.25 0"/>
<feBlend mode="normal" in2="shape" result="effect1_innerShadow_34:332"/>
</filter>
<filter id="filter13_i_34:332" x="159.069" y="182.328" width="15.7" height="28.4741" filterUnits="userSpaceOnUse" color-interpolation-filters="sRGB">
<feFlood flood-opacity="0" result="BackgroundImageFix"/>
<feBlend mode="normal" in="SourceGraphic" in2="BackgroundImageFix" result="shape"/>
<feColorMatrix in="SourceAlpha" type="matrix" values="0 0 0 0 0 0 0 0 0 0 0 0 0 0 0 0 0 0 127 0" result="hardAlpha"/>
<feOffset dy="4"/>
<feGaussianBlur stdDeviation="2"/>
<feComposite in2="hardAlpha" operator="arithmetic" k2="-1" k3="1"/>
<feColorMatrix type="matrix" values="0 0 0 0 0 0 0 0 0 0 0 0 0 0 0 0 0 0 0.25 0"/>
<feBlend mode="normal" in2="shape" result="effect1_innerShadow_34:332"/>
</filter>
<filter id="filter14_i_34:332" x="178.452" y="218.9" width="35.9216" height="21.3336" filterUnits="userSpaceOnUse" color-interpolation-filters="sRGB">
<feFlood flood-opacity="0" result="BackgroundImageFix"/>
<feBlend mode="normal" in="SourceGraphic" in2="BackgroundImageFix" result="shape"/>
<feColorMatrix in="SourceAlpha" type="matrix" values="0 0 0 0 0 0 0 0 0 0 0 0 0 0 0 0 0 0 127 0" result="hardAlpha"/>
<feOffset dy="4"/>
<feGaussianBlur stdDeviation="2"/>
<feComposite in2="hardAlpha" operator="arithmetic" k2="-1" k3="1"/>
<feColorMatrix type="matrix" values="0 0 0 0 0 0 0 0 0 0 0 0 0 0 0 0 0 0 0.25 0"/>
<feBlend mode="normal" in2="shape" result="effect1_innerShadow_34:332"/>
</filter>
<filter id="filter15_i_34:332" x="173.604" y="100.423" width="62.7783" height="74.8185" filterUnits="userSpaceOnUse" color-interpolation-filters="sRGB">
<feFlood flood-opacity="0" result="BackgroundImageFix"/>
<feBlend mode="normal" in="SourceGraphic" in2="BackgroundImageFix" result="shape"/>
<feColorMatrix in="SourceAlpha" type="matrix" values="0 0 0 0 0 0 0 0 0 0 0 0 0 0 0 0 0 0 127 0" result="hardAlpha"/>
<feOffset dy="4"/>
<feGaussianBlur stdDeviation="2"/>
<feComposite in2="hardAlpha" operator="arithmetic" k2="-1" k3="1"/>
<feColorMatrix type="matrix" values="0 0 0 0 0 0 0 0 0 0 0 0 0 0 0 0 0 0 0.25 0"/>
<feBlend mode="normal" in2="shape" result="effect1_innerShadow_34:332"/>
</filter>
<filter id="filter16_i_34:332" x="85.761" y="41.5626" width="72.125" height="41.4189" filterUnits="userSpaceOnUse" color-interpolation-filters="sRGB">
<feFlood flood-opacity="0" result="BackgroundImageFix"/>
<feBlend mode="normal" in="SourceGraphic" in2="BackgroundImageFix" result="shape"/>
<feColorMatrix in="SourceAlpha" type="matrix" values="0 0 0 0 0 0 0 0 0 0 0 0 0 0 0 0 0 0 127 0" result="hardAlpha"/>
<feOffset dy="4"/>
<feGaussianBlur stdDeviation="2"/>
<feComposite in2="hardAlpha" operator="arithmetic" k2="-1" k3="1"/>
<feColorMatrix type="matrix" values="0 0 0 0 0 0 0 0 0 0 0 0 0 0 0 0 0 0 0.25 0"/>
<feBlend mode="normal" in2="shape" result="effect1_innerShadow_34:332"/>
</filter>
<filter id="filter17_i_34:332" x="111.737" y="141.971" width="53.281" height="50.8655" filterUnits="userSpaceOnUse" color-interpolation-filters="sRGB">
<feFlood flood-opacity="0" result="BackgroundImageFix"/>
<feBlend mode="normal" in="SourceGraphic" in2="BackgroundImageFix" result="shape"/>
<feColorMatrix in="SourceAlpha" type="matrix" values="0 0 0 0 0 0 0 0 0 0 0 0 0 0 0 0 0 0 127 0" result="hardAlpha"/>
<feOffset dy="4"/>
<feGaussianBlur stdDeviation="2"/>
<feComposite in2="hardAlpha" operator="arithmetic" k2="-1" k3="1"/>
<feColorMatrix type="matrix" values="0 0 0 0 0 0 0 0 0 0 0 0 0 0 0 0 0 0 0.25 0"/>
<feBlend mode="normal" in2="shape" result="effect1_innerShadow_34:332"/>
</filter>
<filter id="filter18_i_34:332" x="178.298" y="38.2084" width="31.9006" height="67.8023" filterUnits="userSpaceOnUse" color-interpolation-filters="sRGB">
<feFlood flood-opacity="0" result="BackgroundImageFix"/>
<feBlend mode="normal" in="SourceGraphic" in2="BackgroundImageFix" result="shape"/>
<feColorMatrix in="SourceAlpha" type="matrix" values="0 0 0 0 0 0 0 0 0 0 0 0 0 0 0 0 0 0 127 0" result="hardAlpha"/>
<feOffset dy="4"/>
<feGaussianBlur stdDeviation="2"/>
<feComposite in2="hardAlpha" operator="arithmetic" k2="-1" k3="1"/>
<feColorMatrix type="matrix" values="0 0 0 0 0 0 0 0 0 0 0 0 0 0 0 0 0 0 0.25 0"/>
<feBlend mode="normal" in2="shape" result="effect1_innerShadow_34:332"/>
</filter>
<filter id="filter19_i_34:332" x="86.7588" y="57.4929" width="52.4761" height="31.018" filterUnits="userSpaceOnUse" color-interpolation-filters="sRGB">
<feFlood flood-opacity="0" result="BackgroundImageFix"/>
<feBlend mode="normal" in="SourceGraphic" in2="BackgroundImageFix" result="shape"/>
<feColorMatrix in="SourceAlpha" type="matrix" values="0 0 0 0 0 0 0 0 0 0 0 0 0 0 0 0 0 0 127 0" result="hardAlpha"/>
<feOffset dy="4"/>
<feGaussianBlur stdDeviation="2"/>
<feComposite in2="hardAlpha" operator="arithmetic" k2="-1" k3="1"/>
<feColorMatrix type="matrix" values="0 0 0 0 0 0 0 0 0 0 0 0 0 0 0 0 0 0 0.25 0"/>
<feBlend mode="normal" in2="shape" result="effect1_innerShadow_34:332"/>
</filter>
<filter id="filter20_i_34:332" x="149.376" y="22.914" width="32.8789" height="65.2916" filterUnits="userSpaceOnUse" color-interpolation-filters="sRGB">
<feFlood flood-opacity="0" result="BackgroundImageFix"/>
<feBlend mode="normal" in="SourceGraphic" in2="BackgroundImageFix" result="shape"/>
<feColorMatrix in="SourceAlpha" type="matrix" values="0 0 0 0 0 0 0 0 0 0 0 0 0 0 0 0 0 0 127 0" result="hardAlpha"/>
<feOffset dy="4"/>
<feGaussianBlur stdDeviation="2"/>
<feComposite in2="hardAlpha" operator="arithmetic" k2="-1" k3="1"/>
<feColorMatrix type="matrix" values="0 0 0 0 0 0 0 0 0 0 0 0 0 0 0 0 0 0 0.25 0"/>
<feBlend mode="normal" in2="shape" result="effect1_innerShadow_34:332"/>
</filter>
<filter id="filter21_i_34:332" x="161.956" y="152.129" width="74.5071" height="39.7728" filterUnits="userSpaceOnUse" color-interpolation-filters="sRGB">
<feFlood flood-opacity="0" result="BackgroundImageFix"/>
<feBlend mode="normal" in="SourceGraphic" in2="BackgroundImageFix" result="shape"/>
<feColorMatrix in="SourceAlpha" type="matrix" values="0 0 0 0 0 0 0 0 0 0 0 0 0 0 0 0 0 0 127 0" result="hardAlpha"/>
<feOffset dy="4"/>
<feGaussianBlur stdDeviation="2"/>
<feComposite in2="hardAlpha" operator="arithmetic" k2="-1" k3="1"/>
<feColorMatrix type="matrix" values="0 0 0 0 0 0 0 0 0 0 0 0 0 0 0 0 0 0 0.25 0"/>
<feBlend mode="normal" in2="shape" result="effect1_innerShadow_34:332"/>
</filter>
<filter id="filter22_i_34:332" x="140.448" y="173.286" width="31.2202" height="37.8865" filterUnits="userSpaceOnUse" color-interpolation-filters="sRGB">
<feFlood flood-opacity="0" result="BackgroundImageFix"/>
<feBlend mode="normal" in="SourceGraphic" in2="BackgroundImageFix" result="shape"/>
<feColorMatrix in="SourceAlpha" type="matrix" values="0 0 0 0 0 0 0 0 0 0 0 0 0 0 0 0 0 0 127 0" result="hardAlpha"/>
<feOffset dy="4"/>
<feGaussianBlur stdDeviation="2"/>
<feComposite in2="hardAlpha" operator="arithmetic" k2="-1" k3="1"/>
<feColorMatrix type="matrix" values="0 0 0 0 0 0 0 0 0 0 0 0 0 0 0 0 0 0 0.25 0"/>
<feBlend mode="normal" in2="shape" result="effect1_innerShadow_34:332"/>
</filter>
<filter id="filter23_i_34:332" x="81.8909" y="32.9124" width="124.414" height="83.8458" filterUnits="userSpaceOnUse" color-interpolation-filters="sRGB">
<feFlood flood-opacity="0" result="BackgroundImageFix"/>
<feBlend mode="normal" in="SourceGraphic" in2="BackgroundImageFix" result="shape"/>
<feColorMatrix in="SourceAlpha" type="matrix" values="0 0 0 0 0 0 0 0 0 0 0 0 0 0 0 0 0 0 127 0" result="hardAlpha"/>
<feOffset dy="4"/>
<feGaussianBlur stdDeviation="2"/>
<feComposite in2="hardAlpha" operator="arithmetic" k2="-1" k3="1"/>
<feColorMatrix type="matrix" values="0 0 0 0 0 0 0 0 0 0 0 0 0 0 0 0 0 0 0.25 0"/>
<feBlend mode="normal" in2="shape" result="effect1_innerShadow_34:332"/>
</filter>
<filter id="filter24_i_34:332" x="175.552" y="101.022" width="60.5076" height="64.7387" filterUnits="userSpaceOnUse" color-interpolation-filters="sRGB">
<feFlood flood-opacity="0" result="BackgroundImageFix"/>
<feBlend mode="normal" in="SourceGraphic" in2="BackgroundImageFix" result="shape"/>
<feColorMatrix in="SourceAlpha" type="matrix" values="0 0 0 0 0 0 0 0 0 0 0 0 0 0 0 0 0 0 127 0" result="hardAlpha"/>
<feOffset dy="4"/>
<feGaussianBlur stdDeviation="2"/>
<feComposite in2="hardAlpha" operator="arithmetic" k2="-1" k3="1"/>
<feColorMatrix type="matrix" values="0 0 0 0 0 0 0 0 0 0 0 0 0 0 0 0 0 0 0.25 0"/>
<feBlend mode="normal" in2="shape" result="effect1_innerShadow_34:332"/>
</filter>
<filter id="filter25_i_34:332" x="155.129" y="79.3821" width="83.6221" height="40.5256" filterUnits="userSpaceOnUse" color-interpolation-filters="sRGB">
<feFlood flood-opacity="0" result="BackgroundImageFix"/>
<feBlend mode="normal" in="SourceGraphic" in2="BackgroundImageFix" result="shape"/>
<feColorMatrix in="SourceAlpha" type="matrix" values="0 0 0 0 0 0 0 0 0 0 0 0 0 0 0 0 0 0 127 0" result="hardAlpha"/>
<feOffset dy="4"/>
<feGaussianBlur stdDeviation="2"/>
<feComposite in2="hardAlpha" operator="arithmetic" k2="-1" k3="1"/>
<feColorMatrix type="matrix" values="0 0 0 0 0 0 0 0 0 0 0 0 0 0 0 0 0 0 0.25 0"/>
<feBlend mode="normal" in2="shape" result="effect1_innerShadow_34:332"/>
</filter>
<filter id="filter26_i_34:332" x="173.531" y="165.239" width="51.1755" height="68.0968" filterUnits="userSpaceOnUse" color-interpolation-filters="sRGB">
<feFlood flood-opacity="0" result="BackgroundImageFix"/>
<feBlend mode="normal" in="SourceGraphic" in2="BackgroundImageFix" result="shape"/>
<feColorMatrix in="SourceAlpha" type="matrix" values="0 0 0 0 0 0 0 0 0 0 0 0 0 0 0 0 0 0 127 0" result="hardAlpha"/>
<feOffset dy="4"/>
<feGaussianBlur stdDeviation="2"/>
<feComposite in2="hardAlpha" operator="arithmetic" k2="-1" k3="1"/>
<feColorMatrix type="matrix" values="0 0 0 0 0 0 0 0 0 0 0 0 0 0 0 0 0 0 0.25 0"/>
<feBlend mode="normal" in2="shape" result="effect1_innerShadow_34:332"/>
</filter>
<filter id="filter27_i_34:332" x="155.295" y="160.823" width="15.8704" height="25.5171" filterUnits="userSpaceOnUse" color-interpolation-filters="sRGB">
<feFlood flood-opacity="0" result="BackgroundImageFix"/>
<feBlend mode="normal" in="SourceGraphic" in2="BackgroundImageFix" result="shape"/>
<feColorMatrix in="SourceAlpha" type="matrix" values="0 0 0 0 0 0 0 0 0 0 0 0 0 0 0 0 0 0 127 0" result="hardAlpha"/>
<feOffset dy="4"/>
<feGaussianBlur stdDeviation="2"/>
<feComposite in2="hardAlpha" operator="arithmetic" k2="-1" k3="1"/>
<feColorMatrix type="matrix" values="0 0 0 0 0 0 0 0 0 0 0 0 0 0 0 0 0 0 0.25 0"/>
<feBlend mode="normal" in2="shape" result="effect1_innerShadow_34:332"/>
</filter>
<filter id="filter28_i_34:332" x="90.0884" y="115.698" width="65.9514" height="56.1857" filterUnits="userSpaceOnUse" color-interpolation-filters="sRGB">
<feFlood flood-opacity="0" result="BackgroundImageFix"/>
<feBlend mode="normal" in="SourceGraphic" in2="BackgroundImageFix" result="shape"/>
<feColorMatrix in="SourceAlpha" type="matrix" values="0 0 0 0 0 0 0 0 0 0 0 0 0 0 0 0 0 0 127 0" result="hardAlpha"/>
<feOffset dy="4"/>
<feGaussianBlur stdDeviation="2"/>
<feComposite in2="hardAlpha" operator="arithmetic" k2="-1" k3="1"/>
<feColorMatrix type="matrix" values="0 0 0 0 0 0 0 0 0 0 0 0 0 0 0 0 0 0 0.25 0"/>
<feBlend mode="normal" in2="shape" result="effect1_innerShadow_34:332"/>
</filter>
</defs>
</svg>
