<svg width="100" height="100" viewBox="0 0 100 100" fill="none" xmlns="http://www.w3.org/2000/svg">
<path d="M47.9167 0C21.4917 0 0 21.4958 0 47.9167C0 74.3417 21.4917 95.8333 47.9167 95.8333C74.3333 95.8333 95.8333 74.3417 95.8333 47.9167C95.8333 21.4958 74.3333 0 47.9167 0ZM72.3083 45.225C71.4958 46.0375 70.175 46.0375 69.3625 45.225L50 25.8625V75C50 76.15 49.0667 77.0833 47.9167 77.0833C46.7667 77.0833 45.8333 76.15 45.8333 75V25.8625L26.4708 45.225C25.6583 46.0375 24.3375 46.0375 23.525 45.225C22.7125 44.4125 22.7125 43.0917 23.525 42.2792L46.4417 19.3625C47.2542 18.55 48.575 18.55 49.3875 19.3625L72.3042 42.2792C73.1208 43.0917 73.1208 44.4083 72.3083 45.225Z" fill="#232C33"/>
</svg>
