<svg width="233" height="67" viewBox="0 0 233 67" fill="none" xmlns="http://www.w3.org/2000/svg">
<g filter="url(#filter0_d_11:1872)">
<rect x="4" width="225" height="59" fill="#6B7EB3"/>
<path d="M90.296 36V23.652H93.086V33.696H98.162L98.468 36H90.296ZM108.66 31.662C108.66 32.586 108.462 33.39 108.066 34.074C107.682 34.758 107.148 35.28 106.464 35.64C105.78 36 105.012 36.18 104.16 36.18H103.872C103.02 36.18 102.252 36 101.568 35.64C100.884 35.28 100.344 34.758 99.9477 34.074C99.5637 33.39 99.3717 32.586 99.3717 31.662V31.14C99.3717 30.216 99.5637 29.412 99.9477 28.728C100.344 28.044 100.884 27.522 101.568 27.162C102.252 26.802 103.02 26.622 103.872 26.622H104.16C105.012 26.622 105.78 26.802 106.464 27.162C107.148 27.522 107.682 28.044 108.066 28.728C108.462 29.412 108.66 30.216 108.66 31.14V31.662ZM105.996 30.672C105.996 29.94 105.81 29.382 105.438 28.998C105.078 28.614 104.604 28.422 104.016 28.422C103.428 28.422 102.948 28.614 102.576 28.998C102.216 29.382 102.036 29.94 102.036 30.672V32.13C102.036 32.862 102.216 33.42 102.576 33.804C102.948 34.188 103.428 34.38 104.016 34.38C104.604 34.38 105.078 34.188 105.438 33.804C105.81 33.42 105.996 32.862 105.996 32.13V30.672ZM116.932 33.912C117.772 33.912 118.414 34.152 118.858 34.632C119.314 35.1 119.542 35.718 119.542 36.486C119.542 37.038 119.386 37.536 119.074 37.98C118.762 38.424 118.336 38.766 117.796 39.006C117.268 39.258 116.68 39.384 116.032 39.384H112.234C111.502 39.384 110.884 39.18 110.38 38.772C109.888 38.376 109.642 37.824 109.642 37.116C109.642 36.684 109.768 36.294 110.02 35.946C110.284 35.586 110.614 35.316 111.01 35.136C110.734 34.956 110.524 34.734 110.38 34.47C110.236 34.206 110.164 33.918 110.164 33.606C110.164 33.162 110.308 32.778 110.596 32.454C110.884 32.118 111.256 31.878 111.712 31.734C111.304 31.482 110.986 31.164 110.758 30.78C110.53 30.384 110.416 29.964 110.416 29.52C110.416 28.668 110.746 27.972 111.406 27.432C112.078 26.892 113.056 26.622 114.34 26.622H114.628C115.192 26.622 115.696 26.694 116.14 26.838C116.632 26.55 116.974 26.256 117.166 25.956C117.358 25.656 117.466 25.386 117.49 25.146H119.542C119.542 26.418 118.906 27.21 117.634 27.522L117.616 27.576C118.252 28.116 118.57 28.764 118.57 29.52C118.57 30.048 118.42 30.534 118.12 30.978C117.82 31.41 117.394 31.758 116.842 32.022C116.302 32.274 115.678 32.4 114.97 32.4H113.728C113.368 32.4 113.086 32.478 112.882 32.634C112.69 32.79 112.594 32.964 112.594 33.156C112.594 33.396 112.684 33.582 112.864 33.714C113.056 33.846 113.344 33.912 113.728 33.912H116.932ZM112.936 29.52C112.936 29.94 113.086 30.27 113.386 30.51C113.686 30.738 114.064 30.852 114.52 30.852C114.988 30.852 115.372 30.738 115.672 30.51C115.972 30.27 116.122 29.94 116.122 29.52C116.122 29.1 115.972 28.776 115.672 28.548C115.372 28.308 114.988 28.188 114.52 28.188C114.064 28.188 113.686 28.308 113.386 28.548C113.086 28.776 112.936 29.1 112.936 29.52ZM115.96 37.764C116.272 37.764 116.542 37.668 116.77 37.476C116.998 37.296 117.112 37.08 117.112 36.828C117.112 36.588 117.016 36.384 116.824 36.216C116.632 36.06 116.38 35.982 116.068 35.982H112.936C112.672 35.982 112.444 36.066 112.252 36.234C112.06 36.414 111.964 36.624 111.964 36.864C111.964 37.104 112.06 37.314 112.252 37.494C112.444 37.674 112.672 37.764 112.936 37.764H115.96ZM124.978 23.652H130.666V25.866H129.226V33.786H130.666V36H124.978V33.786H126.436V25.866H124.978V23.652ZM135.417 28.152C136.173 27.132 137.151 26.622 138.351 26.622C139.287 26.622 140.055 26.874 140.655 27.378C141.267 27.882 141.573 28.614 141.573 29.574V36H138.945V30.15C138.945 29.682 138.807 29.298 138.531 28.998C138.267 28.686 137.925 28.53 137.505 28.53C137.037 28.53 136.635 28.71 136.299 29.07C135.963 29.418 135.795 29.844 135.795 30.348V36H133.167V26.802H135.129L135.417 28.152Z" fill="#F2F4F8"/>
</g>
<defs>
<filter id="filter0_d_11:1872" x="0" y="0" width="233" height="67" filterUnits="userSpaceOnUse" color-interpolation-filters="sRGB">
<feFlood flood-opacity="0" result="BackgroundImageFix"/>
<feColorMatrix in="SourceAlpha" type="matrix" values="0 0 0 0 0 0 0 0 0 0 0 0 0 0 0 0 0 0 127 0" result="hardAlpha"/>
<feOffset dy="4"/>
<feGaussianBlur stdDeviation="2"/>
<feComposite in2="hardAlpha" operator="out"/>
<feColorMatrix type="matrix" values="0 0 0 0 0 0 0 0 0 0 0 0 0 0 0 0 0 0 0.25 0"/>
<feBlend mode="normal" in2="BackgroundImageFix" result="effect1_dropShadow_11:1872"/>
<feBlend mode="normal" in="SourceGraphic" in2="effect1_dropShadow_11:1872" result="shape"/>
</filter>
</defs>
</svg>
