<svg width="233" height="67" viewBox="0 0 233 67" fill="none" xmlns="http://www.w3.org/2000/svg">
<g filter="url(#filter0_d_11:1873)">
<rect x="4" width="225" height="59" fill="#6B7EB3"/>
<path d="M90.664 35.892C90.268 36.048 89.752 36.126 89.116 36.126C88.504 36.126 88.006 35.976 87.622 35.676C87.238 35.376 87.046 34.872 87.046 34.164C87.046 33.132 86.908 32.328 86.632 31.752C86.368 31.176 85.864 30.888 85.12 30.888H83.032V36H80.296V23.652H85.822C86.998 23.652 87.982 23.892 88.774 24.372C89.578 24.852 89.98 25.632 89.98 26.712C89.98 27.144 89.884 27.57 89.692 27.99C89.5 28.41 89.23 28.77 88.882 29.07C88.546 29.37 88.174 29.556 87.766 29.628V29.718C88.294 29.886 88.756 30.246 89.152 30.798C89.548 31.35 89.746 32.088 89.746 33.012C89.746 34.332 90.052 35.088 90.664 35.28V35.892ZM85.732 28.71C86.128 28.71 86.464 28.578 86.74 28.314C87.028 28.05 87.172 27.732 87.172 27.36V27.234C87.172 26.838 87.034 26.514 86.758 26.262C86.494 25.998 86.152 25.866 85.732 25.866H83.032V28.71H85.732ZM100.691 32.562C100.691 33.366 100.499 34.044 100.115 34.596C99.7307 35.136 99.2207 35.538 98.5847 35.802C97.9607 36.054 97.2767 36.18 96.5327 36.18H96.2447C95.3927 36.18 94.6247 36 93.9407 35.64C93.2567 35.28 92.7167 34.764 92.3207 34.092C91.9367 33.408 91.7447 32.598 91.7447 31.662V31.14C91.7447 30.216 91.9427 29.412 92.3387 28.728C92.7347 28.044 93.2687 27.522 93.9407 27.162C94.6247 26.802 95.3927 26.622 96.2447 26.622H96.5327C97.2767 26.622 97.9667 26.778 98.6027 27.09C99.2387 27.39 99.7487 27.834 100.133 28.422C100.517 28.998 100.709 29.682 100.709 30.474V31.842H94.4087V32.274C94.4087 32.874 94.5827 33.378 94.9307 33.786C95.2907 34.182 95.7767 34.38 96.3887 34.38C96.9407 34.38 97.3727 34.23 97.6847 33.93C98.0087 33.618 98.1707 33.162 98.1707 32.562H100.691ZM96.2627 28.422C95.7347 28.422 95.3027 28.608 94.9667 28.98C94.6427 29.352 94.4567 29.826 94.4087 30.402H98.0447C98.0447 29.79 97.9007 29.31 97.6127 28.962C97.3367 28.602 96.8867 28.422 96.2627 28.422ZM108.988 33.912C109.828 33.912 110.47 34.152 110.914 34.632C111.37 35.1 111.598 35.718 111.598 36.486C111.598 37.038 111.442 37.536 111.13 37.98C110.818 38.424 110.392 38.766 109.852 39.006C109.324 39.258 108.736 39.384 108.088 39.384H104.29C103.558 39.384 102.94 39.18 102.436 38.772C101.944 38.376 101.698 37.824 101.698 37.116C101.698 36.684 101.824 36.294 102.076 35.946C102.34 35.586 102.67 35.316 103.066 35.136C102.79 34.956 102.58 34.734 102.436 34.47C102.292 34.206 102.22 33.918 102.22 33.606C102.22 33.162 102.364 32.778 102.652 32.454C102.94 32.118 103.312 31.878 103.768 31.734C103.36 31.482 103.042 31.164 102.814 30.78C102.586 30.384 102.472 29.964 102.472 29.52C102.472 28.668 102.802 27.972 103.462 27.432C104.134 26.892 105.112 26.622 106.396 26.622H106.684C107.248 26.622 107.752 26.694 108.196 26.838C108.688 26.55 109.03 26.256 109.222 25.956C109.414 25.656 109.522 25.386 109.546 25.146H111.598C111.598 26.418 110.962 27.21 109.69 27.522L109.672 27.576C110.308 28.116 110.626 28.764 110.626 29.52C110.626 30.048 110.476 30.534 110.176 30.978C109.876 31.41 109.45 31.758 108.898 32.022C108.358 32.274 107.734 32.4 107.026 32.4H105.784C105.424 32.4 105.142 32.478 104.938 32.634C104.746 32.79 104.65 32.964 104.65 33.156C104.65 33.396 104.74 33.582 104.92 33.714C105.112 33.846 105.4 33.912 105.784 33.912H108.988ZM104.992 29.52C104.992 29.94 105.142 30.27 105.442 30.51C105.742 30.738 106.12 30.852 106.576 30.852C107.044 30.852 107.428 30.738 107.728 30.51C108.028 30.27 108.178 29.94 108.178 29.52C108.178 29.1 108.028 28.776 107.728 28.548C107.428 28.308 107.044 28.188 106.576 28.188C106.12 28.188 105.742 28.308 105.442 28.548C105.142 28.776 104.992 29.1 104.992 29.52ZM108.016 37.764C108.328 37.764 108.598 37.668 108.826 37.476C109.054 37.296 109.168 37.08 109.168 36.828C109.168 36.588 109.072 36.384 108.88 36.216C108.688 36.06 108.436 35.982 108.124 35.982H104.992C104.728 35.982 104.5 36.066 104.308 36.234C104.116 36.414 104.02 36.624 104.02 36.864C104.02 37.104 104.116 37.314 104.308 37.494C104.5 37.674 104.728 37.764 104.992 37.764H108.016ZM112.953 23.04H115.617V25.11H112.953V23.04ZM112.971 36V26.802H115.599V36H112.971ZM119.637 33.192C119.637 33.612 119.823 33.918 120.195 34.11C120.567 34.29 121.029 34.38 121.581 34.38C122.061 34.38 122.487 34.308 122.859 34.164C123.243 34.02 123.435 33.792 123.435 33.48C123.435 33.144 123.261 32.904 122.913 32.76C122.565 32.616 122.025 32.49 121.293 32.382C120.525 32.25 119.895 32.106 119.403 31.95C118.911 31.794 118.485 31.524 118.125 31.14C117.777 30.756 117.603 30.222 117.603 29.538C117.603 28.914 117.783 28.386 118.143 27.954C118.515 27.51 119.001 27.18 119.601 26.964C120.213 26.736 120.879 26.622 121.599 26.622H121.959C122.595 26.622 123.195 26.73 123.759 26.946C124.335 27.15 124.797 27.444 125.145 27.828C125.493 28.2 125.667 28.626 125.667 29.106C125.667 29.202 125.661 29.292 125.649 29.376C125.637 29.448 125.631 29.49 125.631 29.502H123.327C123.327 28.782 122.775 28.422 121.671 28.422C121.167 28.422 120.759 28.494 120.447 28.638C120.147 28.782 119.997 28.98 119.997 29.232C119.997 29.532 120.159 29.742 120.483 29.862C120.819 29.982 121.341 30.096 122.049 30.204C122.853 30.336 123.501 30.48 123.993 30.636C124.497 30.78 124.935 31.05 125.307 31.446C125.679 31.83 125.865 32.376 125.865 33.084C125.865 34.176 125.481 34.968 124.713 35.46C123.945 35.94 122.967 36.18 121.779 36.18H121.185C120.441 36.18 119.775 36.066 119.187 35.838C118.599 35.61 118.137 35.286 117.801 34.866C117.477 34.446 117.315 33.966 117.315 33.426L117.333 33.066H119.637V33.192ZM132.67 35.838C132.43 35.934 132.112 36.012 131.716 36.072C131.332 36.144 130.99 36.18 130.69 36.18C129.766 36.18 129.07 35.982 128.602 35.586C128.134 35.19 127.9 34.53 127.9 33.606V28.602H126.892V26.802H127.99L128.908 23.868H130.528V26.802H132.67V28.602H130.528V33.156C130.528 33.636 130.618 33.96 130.798 34.128C130.99 34.296 131.242 34.38 131.554 34.38C131.698 34.38 131.884 34.356 132.112 34.308C132.34 34.26 132.526 34.206 132.67 34.146V35.838ZM142.896 32.562C142.896 33.366 142.704 34.044 142.32 34.596C141.936 35.136 141.426 35.538 140.79 35.802C140.166 36.054 139.482 36.18 138.738 36.18H138.45C137.598 36.18 136.83 36 136.146 35.64C135.462 35.28 134.922 34.764 134.526 34.092C134.142 33.408 133.95 32.598 133.95 31.662V31.14C133.95 30.216 134.148 29.412 134.544 28.728C134.94 28.044 135.474 27.522 136.146 27.162C136.83 26.802 137.598 26.622 138.45 26.622H138.738C139.482 26.622 140.172 26.778 140.808 27.09C141.444 27.39 141.954 27.834 142.338 28.422C142.722 28.998 142.914 29.682 142.914 30.474V31.842H136.614V32.274C136.614 32.874 136.788 33.378 137.136 33.786C137.496 34.182 137.982 34.38 138.594 34.38C139.146 34.38 139.578 34.23 139.89 33.93C140.214 33.618 140.376 33.162 140.376 32.562H142.896ZM138.468 28.422C137.94 28.422 137.508 28.608 137.172 28.98C136.848 29.352 136.662 29.826 136.614 30.402H140.25C140.25 29.79 140.106 29.31 139.818 28.962C139.542 28.602 139.092 28.422 138.468 28.422ZM150.042 29.952C150.042 29.58 149.94 29.262 149.736 28.998C149.532 28.722 149.208 28.584 148.764 28.584C148.344 28.584 148.02 28.752 147.792 29.088C147.576 29.412 147.468 29.82 147.468 30.312V36H144.875V26.802H146.82L147.144 28.152C147.192 28.02 147.312 27.834 147.504 27.594C147.708 27.354 147.996 27.132 148.368 26.928C148.752 26.724 149.202 26.622 149.718 26.622C150.546 26.622 151.182 26.88 151.626 27.396C152.082 27.912 152.31 28.596 152.31 29.448C152.31 29.628 152.298 29.808 152.274 29.988C152.262 30.168 152.25 30.294 152.238 30.366H150.042V29.952Z" fill="#F2F4F8"/>
</g>
<defs>
<filter id="filter0_d_11:1873" x="0" y="0" width="233" height="67" filterUnits="userSpaceOnUse" color-interpolation-filters="sRGB">
<feFlood flood-opacity="0" result="BackgroundImageFix"/>
<feColorMatrix in="SourceAlpha" type="matrix" values="0 0 0 0 0 0 0 0 0 0 0 0 0 0 0 0 0 0 127 0" result="hardAlpha"/>
<feOffset dy="4"/>
<feGaussianBlur stdDeviation="2"/>
<feComposite in2="hardAlpha" operator="out"/>
<feColorMatrix type="matrix" values="0 0 0 0 0 0 0 0 0 0 0 0 0 0 0 0 0 0 0.25 0"/>
<feBlend mode="normal" in2="BackgroundImageFix" result="effect1_dropShadow_11:1873"/>
<feBlend mode="normal" in="SourceGraphic" in2="effect1_dropShadow_11:1873" result="shape"/>
</filter>
</defs>
</svg>
