<svg width="589" height="820" viewBox="0 0 589 820" fill="none" xmlns="http://www.w3.org/2000/svg">
<path d="M394.487 465.189L405.168 507.142C405.168 507.142 407.871 512.092 410.368 507.527C412.864 502.962 411.582 503.659 411.582 503.659L396.431 459.792C396.431 459.792 394.774 457.295 393.984 459.611C393.195 461.927 394.487 465.189 394.487 465.189Z" fill="#4C5F94"/>
<path d="M375.758 455.654L356.513 500.061C356.513 500.061 355.585 506.409 361.084 504.391C366.583 502.373 364.904 501.988 364.904 501.988L381.322 452.493C381.322 452.493 381.517 449.064 379.171 450.455C376.825 451.846 375.758 455.654 375.758 455.654Z" fill="#4C5F94"/>
<path d="M475.111 294.381L440.621 328.211C440.621 328.211 437.371 333.694 443.202 333.795C449.032 333.896 447.63 332.949 447.63 332.949L481.432 293.459C481.432 293.459 482.905 290.389 480.218 290.831C477.53 291.273 475.111 294.381 475.111 294.381Z" fill="#4C5F94"/>
<path d="M337.449 458.671L318.203 503.078C318.203 503.078 317.275 509.426 322.774 507.408C328.273 505.39 326.595 505.005 326.595 505.005L343.012 455.51C343.012 455.51 343.208 452.081 340.861 453.472C338.515 454.863 337.449 458.671 337.449 458.671Z" fill="#4C5F94"/>
<path d="M470.616 576.06L403.458 576.643C403.458 576.643 395.543 577.812 402.874 580.539C410.204 583.265 409.08 582.161 409.08 582.161L479.277 578.516C479.277 578.516 483.269 577.702 479.552 576.683C475.835 575.663 470.616 576.06 470.616 576.06Z" fill="#E4E9F1"/>
<path d="M406.264 555.124L370.001 556.556C370.001 556.556 365.392 558.007 368.497 561.103C371.603 564.198 371.336 562.925 371.336 562.925L410.167 557.888C410.167 557.888 412.56 556.895 410.875 555.749C409.189 554.602 406.264 555.124 406.264 555.124Z" fill="#E4E9F1"/>
<path d="M486.705 703.939L455.069 740.988C455.069 740.988 452.307 746.87 458.209 746.671C464.111 746.472 462.604 745.558 462.604 745.558L493.005 702.648C493.005 702.648 494.202 699.372 491.528 699.973C488.854 700.574 486.705 703.939 486.705 703.939Z" fill="#E4E9F1"/>
<path d="M467.047 681.113L421.684 728.993C421.684 728.993 417.396 736.039 425.031 734.373C432.667 732.706 430.836 732.087 430.836 732.087L475.332 678.167C475.332 678.167 477.278 674.328 473.756 675.635C470.234 676.943 467.047 681.113 467.047 681.113Z" fill="#E4E9F1"/>
<g filter="url(#filter0_i_11:678)">
<path d="M504.339 498.509C510.198 495.404 516.356 485.69 516.356 485.69L504.587 470.497C504.587 470.497 492.43 477.4 488.458 478.294L466.33 483.279C464.061 483.791 455.678 486.274 448.244 490.328C440.811 494.381 435.335 499.184 432.441 502.215C429.547 505.246 429.401 523.123 431.186 531.048C432.971 538.973 437.294 552.869 442.031 555.371C446.768 557.872 459.193 557.452 465.561 556.613C471.93 555.773 492.796 550.477 494.995 547.008C497.194 543.538 507.241 524.621 507.241 524.621L497.614 508.351C497.614 508.351 496.664 506.781 487.216 512.478C477.768 518.175 479.228 522.009 472.618 527.067C466.007 532.126 459.836 536.49 458.446 535.613C457.056 534.737 455.596 530.902 456.406 526.556C457.215 522.21 461.799 513.445 466.522 510.597C471.246 507.748 498.48 501.613 504.339 498.509Z" fill="#F2F4F8"/>
</g>
<g filter="url(#filter1_i_11:678)">
<path d="M379.316 470.168L406.123 470.076C406.123 470.076 403.823 483.68 399.736 489.359C395.65 495.038 374.81 511.034 374.81 511.034L364.33 506.852C364.33 506.852 375.964 492.335 377.583 483.644C379.202 474.952 379.316 470.168 379.316 470.168Z" fill="#F2F4F8"/>
</g>
<path d="M432.474 558.874L466.02 545.028C466.02 545.028 469.845 542.077 465.857 540.244C461.87 538.411 462.562 539.514 462.562 539.514L427.852 557.626C427.852 557.626 425.949 559.383 427.929 559.877C429.908 560.372 432.474 558.874 432.474 558.874Z" fill="#E4E9F1"/>
<path d="M467.344 471.355L468.547 502.145C468.547 502.145 469.944 506.204 472.993 503.937C476.043 501.669 474.793 501.749 474.793 501.749L470.073 468.375C470.073 468.375 469.114 466.24 467.981 467.532C466.849 468.824 467.344 471.355 467.344 471.355Z" fill="#E4E9F1"/>
<g filter="url(#filter2_i_11:678)">
<path d="M472.66 466.388C465.456 460.874 437.023 440.513 437.023 440.513L458.755 428.48C458.755 428.48 466.526 433.867 472.283 440.897C478.04 447.927 479.245 450.63 486.009 456.838C492.773 463.047 500.373 475.61 506.2 485.599C512.027 495.587 516.108 513.701 514.234 521.261C512.36 528.821 487.83 557.544 495.492 543.922C503.154 530.3 501.051 522.39 496.976 505.521C492.29 486.118 474.638 467.902 472.66 466.388Z" fill="#E4E9F1"/>
</g>
<path d="M540.3 658.14C542.952 659.327 555.167 650.033 555.167 650.033L550.034 640.483C550.034 640.483 529.513 631.426 533.37 635.315C537.227 639.205 537.648 656.954 540.3 658.14Z" fill="#F2F4F8"/>
<g filter="url(#filter3_i_11:678)">
<path d="M488.371 546.716C485.183 532.564 458.407 519.562 458.407 519.562L488.135 527.141C488.135 527.141 495.466 533.221 496.965 553.107C498.464 572.992 485.95 588.897 479.282 596.347C472.614 603.797 469.306 618.223 461.191 627.189C453.075 636.154 427.385 654.433 419.34 666.356C411.295 678.28 403.492 685.986 404.142 694.167C404.793 702.347 415.51 726.104 415.51 726.104C415.51 726.104 408.702 727.638 398.718 720.37C388.734 713.103 386.35 718.398 382.907 703.114C379.464 687.83 384.94 683.028 387.624 671.122C390.307 659.216 398.167 649.119 409.559 638.82C420.951 628.521 463.395 599.926 469.426 589.645C475.456 579.365 491.559 560.867 488.371 546.716Z" fill="#F2F4F8"/>
</g>
<path d="M430.641 665.736L395.689 702.86C395.689 702.86 392.43 708.453 398.425 707.489C404.421 706.526 402.966 705.915 402.966 705.915L437.126 663.75C437.126 663.75 438.594 660.682 435.838 661.572C433.082 662.462 430.641 665.736 430.641 665.736Z" fill="#E4E9F1"/>
<path d="M432.689 622.227L400.44 661.711C400.44 661.711 397.583 667.518 403.497 666.136C409.41 664.754 407.915 664.247 407.915 664.247L439.019 619.791C439.019 619.791 440.267 616.627 437.58 617.708C434.893 618.789 432.689 622.227 432.689 622.227Z" fill="#E4E9F1"/>
<path d="M410.531 608.818L427.604 638.996C427.604 638.996 431.056 642.327 432.844 638.462C434.633 634.597 433.461 635.33 433.461 635.33L411.641 604.409C411.641 604.409 409.607 602.775 409.175 604.66C408.743 606.545 410.531 608.818 410.531 608.818Z" fill="#E4E9F1"/>
<path d="M407.644 478.69L428.452 506.433C428.452 506.433 432.304 509.295 433.582 505.233C434.859 501.172 433.791 502.049 433.791 502.049L408.179 474.175C408.179 474.175 405.952 472.814 405.765 474.739C405.579 476.664 407.644 478.69 407.644 478.69Z" fill="#E4E9F1"/>
<path d="M459.877 411.041L419.105 396.278C419.105 396.278 413.482 395.726 415.856 400.351C418.231 404.975 418.376 403.525 418.376 403.525L463.252 415.678C463.252 415.678 466.255 415.714 464.781 413.761C463.307 411.808 459.877 411.041 459.877 411.041Z" fill="#4C5F94"/>
<g filter="url(#filter4_i_11:678)">
<path d="M442.835 757.421L483.686 748.218C483.686 748.218 487.148 745.059 482.284 741.991C477.419 738.923 454.061 730.505 447.749 728.953C441.438 727.401 436.529 732.075 425.354 727.455C414.178 722.835 385.77 713.175 385.77 713.175C385.77 713.175 405.495 731.929 419.024 744.346C432.552 756.763 442.835 757.421 442.835 757.421Z" fill="#E4E9F1"/>
</g>
<g filter="url(#filter5_i_11:678)">
<path d="M352.352 535.722C350.892 531.887 371.349 514.193 371.349 514.193L361.62 508.057C361.62 508.057 349.731 521.442 344.51 527.377C339.289 533.311 331.486 541.017 333.839 548.814C336.192 556.611 336.517 560.702 341.764 565.468C347.011 570.234 374.029 579.017 381.928 584.97C389.827 590.923 414.658 608.526 424.444 612.27C434.23 616.013 489.445 625.582 493.672 625.819C497.899 626.057 527.314 634.895 535.327 636.064C543.341 637.232 545.948 646.162 549.678 649.485C553.407 652.809 556.869 649.65 558.373 645.742C559.878 641.834 556.971 639.515 553.993 634.238C551.016 628.961 531.119 617.383 531.119 617.383C531.119 617.383 514.256 608.691 504.031 605.642C493.805 602.592 440.987 593.078 427.344 585.445C413.701 577.812 398.215 564.646 389.494 557.689C380.773 550.732 353.812 539.556 352.352 535.722Z" fill="#E4E9F1"/>
</g>
<g filter="url(#filter6_i_11:678)">
<path d="M494.975 512.514C497.71 522.01 496.64 549.017 496.64 549.017C496.64 549.017 493.324 534.299 488.46 531.231C483.596 528.163 479.994 525.406 472.547 524.109C465.101 522.813 453.059 524.931 439.939 524.912C426.819 524.894 410.537 521.424 410.537 521.424L411.875 500.9C411.875 500.9 436.4 495.97 443.463 495.568C450.527 495.167 470.653 497.175 473.873 498.234C477.092 499.294 492.239 503.019 494.975 512.514Z" fill="#E4E9F1"/>
</g>
<g filter="url(#filter7_i_11:678)">
<path d="M116.823 326.475C116.823 326.475 99.1253 311.428 106.144 318.769C113.164 326.11 104.27 326.329 99.859 327.917C95.4475 329.506 87.9126 343.694 87.1604 345.648C86.4082 347.602 86.7335 351.692 88.9457 353.573C91.1579 355.454 103.966 356.732 103.966 356.732L112.521 347.072C112.521 347.072 112.065 346.763 111.359 346.292C112.243 346.48 113.197 346.618 114.223 346.689C120.279 347.109 133.769 343.475 133.769 343.475L116.823 326.475Z" fill="#FFEFAD"/>
</g>
<g filter="url(#filter8_i_11:678)">
<path d="M326.071 284.095C325.923 269.258 306.39 257.599 304.095 247.41C301.799 237.22 336.896 273.924 336.896 273.924C336.896 273.924 344.61 281.703 343.743 288.441C342.876 295.179 325.428 305.058 326.576 310.152C327.723 315.247 326.576 310.152 335.099 313.585C343.623 317.018 347.225 319.775 348.755 326.568C350.285 333.361 331.767 370.247 331.767 370.247C331.767 370.247 338.568 339.57 335.661 337.25C332.754 334.931 330.867 337.141 326.513 336.337C322.159 335.534 319.111 327.299 318.658 322.642C318.205 317.986 317.383 316.981 317.357 306.281C317.331 295.58 326.22 298.931 326.071 284.095Z" fill="#FFEFAD"/>
</g>
<g filter="url(#filter9_i_11:678)">
<path d="M202.699 416.572C197.605 423.073 202.839 422.488 201.15 428.222C199.461 433.956 190.357 425.3 186.245 420.279C182.133 415.257 181.355 406.51 182.036 401.598C182.718 396.686 190.891 385.329 194.537 380.343C198.184 375.358 215.382 340.554 216.65 317.072C217.918 293.589 214.634 265.779 209.049 251.572C203.464 237.365 182.846 214.65 182.846 214.65L184.223 210.176C184.223 210.176 186.18 210.924 197.101 214.412C208.021 217.9 227.351 229.605 234.013 245.948C240.676 262.291 243.552 277.703 244.853 294.064C246.154 310.425 241.412 331.717 236.089 347.786C230.766 363.855 200.958 400.905 199.893 404.118C198.829 407.332 207.792 410.071 202.699 416.572Z" fill="#FFEFAD"/>
</g>
<path d="M256.872 246.587L313.136 255.848C313.136 255.848 320.396 255.35 315.851 250.309C311.307 245.269 311.612 247.032 311.612 247.032L251.064 241.738C251.064 241.738 247.275 242.313 249.787 244.344C252.299 246.376 256.872 246.587 256.872 246.587Z" fill="#FFE580"/>
<path d="M280.424 301.387L325.732 266.774C325.732 266.774 330.341 261.151 323.545 261.012C316.748 260.874 318.245 261.857 318.245 261.857L272.902 302.299C272.902 302.299 270.726 305.449 273.931 305.01C277.136 304.571 280.424 301.387 280.424 301.387Z" fill="#FFE580"/>
<path d="M294.869 309.811L332.136 280.784C332.136 280.784 335.908 276.042 330.267 275.861C324.627 275.679 325.878 276.53 325.878 276.53L288.636 310.516C288.636 310.516 286.861 313.177 289.516 312.833C292.171 312.489 294.869 309.811 294.869 309.811Z" fill="#FFE580"/>
<path d="M276.204 307.936L231.388 293.037C231.388 293.037 225.346 292.529 228.31 297.318C231.274 302.108 231.293 300.596 231.293 300.596L280.236 312.727C280.236 312.727 283.438 312.729 281.684 310.712C279.93 308.695 276.204 307.936 276.204 307.936Z" fill="#FFE580"/>
<path d="M296.627 341.07L334.276 354.648C334.276 354.648 339.987 354.905 339.111 350.017C338.235 345.129 337.575 346.715 337.575 346.715L294.704 336.23C294.704 336.23 291.564 336.374 292.429 338.409C293.293 340.445 296.627 341.07 296.627 341.07Z" fill="#FFE580"/>
<path d="M273.005 398.03L325.791 403.456C325.791 403.456 332.728 402.342 328.785 397.304C324.842 392.266 325 394.131 325 394.131L267.846 393.299C267.846 393.299 264.201 394.217 266.437 396.194C268.673 398.17 273.005 398.03 273.005 398.03Z" fill="#FFE580"/>
<path d="M244.449 402.716L197.04 409.039C197.04 409.039 191.499 410.788 196.787 412.644C202.076 414.5 201.237 413.59 201.237 413.59L250.666 404.21C250.666 404.21 253.452 403.123 250.785 402.513C248.119 401.904 244.449 402.716 244.449 402.716Z" fill="#FFE580"/>
<path d="M290.364 411.155L307.876 368.46C307.876 368.46 308.7 362.496 303.644 364.792C298.588 367.088 300.136 367.316 300.136 367.316L285.254 414.517C285.254 414.517 285.091 417.714 287.246 416.243C289.4 414.771 290.364 411.155 290.364 411.155Z" fill="#FFE580"/>
<path d="M162.972 263.793L180.484 221.098C180.484 221.098 181.307 215.134 176.251 217.43C171.196 219.726 172.744 219.955 172.744 219.955L157.862 267.155C157.862 267.155 157.699 270.353 159.854 268.881C162.008 267.41 162.972 263.793 162.972 263.793Z" fill="#FFE580"/>
<path d="M129.252 311.882L149.047 276.445C149.047 276.445 150.429 271.396 145.857 273.053C141.284 274.709 142.578 274.998 142.578 274.998L124.512 314.446C124.512 314.446 124.009 317.17 126.014 316.043C128.018 314.915 129.252 311.882 129.252 311.882Z" fill="#FFE580"/>
<path d="M273.702 390.271L263.496 358.731C263.496 358.731 261.16 355.07 259.4 358.653C257.64 362.235 258.616 361.651 258.616 361.651L272.412 394.466C272.412 394.466 273.821 396.301 274.339 394.503C274.858 392.704 273.702 390.271 273.702 390.271Z" fill="#FFE580"/>
<path d="M215.646 288.605L196.604 261.457C196.604 261.457 193.293 258.642 192.665 262.582C192.036 266.522 192.798 265.677 192.798 265.677L215.647 292.991C215.647 292.991 217.534 294.332 217.501 292.462C217.467 290.591 215.646 288.605 215.646 288.605Z" fill="#FFE580"/>
<path d="M271.743 351.791L264.827 319.371C264.827 319.371 262.88 315.489 260.762 318.874C258.644 322.258 259.674 321.777 259.674 321.777L270.029 355.832C270.029 355.832 271.242 357.802 271.942 356.066C272.643 354.33 271.743 351.791 271.743 351.791Z" fill="#FFE580"/>
<path d="M299.646 253.761L306.283 305.477C306.283 305.477 308.016 311.488 309.705 305.634C311.394 299.78 310.542 300.729 310.542 300.729L300.979 246.902C300.979 246.902 299.911 243.887 299.368 246.827C298.826 249.768 299.646 253.761 299.646 253.761Z" fill="#FFE580"/>
<path d="M265.653 423.874L312.791 445.546C312.791 445.546 319.279 446.859 316.499 441.344C313.72 435.83 313.565 437.45 313.565 437.45L261.72 418.223C261.72 418.223 258.258 417.814 259.975 420.201C261.691 422.587 265.653 423.874 265.653 423.874Z" fill="#FFE580"/>
<path d="M123.982 391.705L174.87 401.934C174.87 401.934 181.487 401.716 177.507 396.992C173.527 392.268 173.751 393.879 173.751 393.879L118.847 387.114C118.847 387.114 115.383 387.513 117.606 389.439C119.829 391.365 123.982 391.705 123.982 391.705Z" fill="#FFE580"/>
<path d="M245.467 373.139L196.733 391.058C196.733 391.058 191.209 394.705 197.082 396.643C202.955 398.581 201.918 397.327 201.918 397.327L252.254 374.36C252.254 374.36 254.996 372.208 252.09 371.732C249.185 371.256 245.467 373.139 245.467 373.139Z" fill="#FFE580"/>
<path d="M169.997 308.059L121.263 325.977C121.263 325.977 115.738 329.624 121.611 331.563C127.484 333.501 126.447 332.247 126.447 332.247L176.784 309.28C176.784 309.28 179.525 307.128 176.62 306.652C173.714 306.175 169.997 308.059 169.997 308.059Z" fill="#FFE580"/>
<path d="M253.522 339.784L207.906 364.575C207.906 364.575 202.971 368.983 209.064 370.049C215.158 371.115 213.949 370.025 213.949 370.025L260.416 340.008C260.416 340.008 262.815 337.482 259.871 337.432C256.926 337.382 253.522 339.784 253.522 339.784Z" fill="#FFE580"/>
<path d="M288.409 427.281L298.93 460.502C298.93 460.502 302.348 466.991 306.724 469.894C311.1 472.797 309.072 470.748 309.072 470.748L292.062 428.918C292.062 428.918 289.894 425.121 288.394 424.498C286.894 423.876 288.409 427.281 288.409 427.281Z" fill="#FFE580"/>
<path d="M292.311 336.233L329.471 327.175C329.471 327.175 333.826 324.943 329.712 322.978C325.597 321.012 326.243 322.039 326.243 322.039L287.466 334.722C287.466 334.722 285.274 336.085 287.353 336.697C289.431 337.31 292.311 336.233 292.311 336.233Z" fill="#FFE580"/>
<path d="M361.649 271.282L340.888 286.794C340.888 286.794 338.726 289.75 341.714 290.916C344.702 292.083 344.066 291.201 344.066 291.201L364.981 271.875C364.981 271.875 366.013 270.155 364.592 269.935C363.171 269.716 361.649 271.282 361.649 271.282Z" fill="#FFE580"/>
<g filter="url(#filter10_i_11:678)">
<path d="M298.157 244.599C290.883 236.126 296.117 235.542 303.492 233.88C310.868 232.219 333.711 262.166 339.908 268.502C346.105 274.839 346.271 291.455 344.327 296.057C342.383 300.659 340.566 305.826 333.573 309.186C326.58 312.546 304.452 317.531 294.806 319.704C285.161 321.876 247.899 328.486 238.808 325.181C229.717 321.876 219.095 311.778 213.013 300.657C206.931 289.537 214.383 267.04 209.646 264.538C204.909 262.037 174.689 286.673 165.668 286.326C156.647 285.979 126.993 281.374 121.702 284.35C116.411 287.326 117.995 289.333 118.575 294.556C119.155 299.778 127.807 306.156 128.33 313.771C128.853 321.386 125.391 322.165 128.751 329.141C132.111 336.116 134.024 344.607 134.024 344.607C134.024 344.607 118.78 327.223 111.009 321.837C103.237 316.45 97.4934 314.77 94.1777 300.052C90.8621 285.334 100.214 265.978 120.2 262.071C140.185 258.163 148.894 262.149 159.929 260.853C170.965 259.557 200.006 242.918 211.991 243.192C223.976 243.466 237.619 251.099 237.333 263.06C237.046 275.02 232.252 274.91 235.115 284.972C237.978 295.033 237.41 295.161 244.359 299.544C251.308 303.926 263.593 297.59 276.585 297.042C289.578 296.495 299.294 297.28 299.294 297.28C299.294 297.28 325.419 302.101 331.277 298.997C337.136 295.893 340.598 292.734 338.5 286.069C336.402 279.403 305.431 253.072 298.157 244.599Z" fill="#FFE580"/>
</g>
<g filter="url(#filter11_i_11:678)">
<path d="M293.119 481.853L314.679 476.996C314.679 476.996 313.997 481.908 312.691 489.34C311.384 496.772 315.624 502.36 315.624 502.36L286.49 505.354C286.49 505.354 284.959 498.561 286.521 492.262C288.083 485.962 293.119 481.853 293.119 481.853Z" fill="#6B7EB3"/>
</g>
<g filter="url(#filter12_i_11:678)">
<path d="M410.537 521.424L411.875 500.9C411.875 500.9 361.594 497.357 330.503 499.603C299.412 501.848 286.362 504.788 286.362 504.788C286.362 504.788 295.453 508.093 311.863 512.129C328.272 516.165 410.537 521.424 410.537 521.424Z" fill="#4C5F94"/>
</g>
<g filter="url(#filter13_i_11:678)">
<path d="M399.357 410.931C398.382 398.66 421.72 372.585 421.72 372.585C421.72 372.585 420.127 391.977 428.096 400.888C436.065 409.8 458.755 428.48 458.755 428.48L437.023 440.513C437.023 440.513 400.333 423.202 399.357 410.931Z" fill="#4C5F94"/>
</g>
<g filter="url(#filter14_i_11:678)">
<path d="M547.502 428.116C559.889 411.645 564.376 389.221 564.376 389.221C564.376 389.221 567.335 412.942 559.985 425.304C552.635 437.666 516.356 485.69 516.356 485.69L504.459 469.931C504.459 469.931 535.116 444.586 547.502 428.116Z" fill="#6B7EB3"/>
</g>
<g filter="url(#filter15_i_11:678)">
<path d="M417.637 118.931C418.631 112.759 412.791 97.4206 412.791 97.4206L420.977 91.413C420.977 91.413 430.63 118.384 430.031 131.604C429.432 144.824 425.288 152.895 427.839 164.217C430.389 175.538 435.701 207.056 435.071 233.369C434.441 259.682 433.829 267.552 430.916 289.026C428.003 310.5 425.983 335.937 417.785 336.594C409.587 337.251 398.494 340.94 392.24 336.995C385.986 333.051 415.381 307.396 415.73 269.25C416.079 231.104 415.212 237.842 413.828 213.173C412.444 188.503 408.376 175.739 408.267 156.73C408.158 137.721 416.643 125.103 417.637 118.931Z" fill="#6B7EB3"/>
</g>
<path d="M325.446 417.525L362.383 367.647C362.383 367.647 362.902 370.37 361.879 363.032C360.856 355.694 356.77 357.407 356.77 357.407L323.637 412.072C323.637 412.072 321.277 417.726 322.081 419.923C322.884 422.119 325.446 417.525 325.446 417.525Z" fill="#4C5F94"/>
<g filter="url(#filter16_i_11:678)">
<path d="M174.389 108.301C170.022 102.148 149.13 96.7425 149.13 96.7425C149.13 96.7425 151.725 100.322 153.128 106.548C154.53 112.775 160.964 138.686 161.117 149.953C161.271 161.22 154.826 182.895 148.853 190.783C142.88 198.671 120.918 220.273 107.811 225.605C94.7044 230.937 77.5684 239.556 68.86 237.949C60.1516 236.342 66.3096 226.627 62.6503 226.262C58.9909 225.897 41.9252 237.474 41.2562 247.736C40.5872 257.998 46.7008 256.026 53.9622 259.149C61.2235 262.271 79.5644 256.355 79.5644 256.355L101.692 251.37C112.472 248.942 128.856 242.277 142.83 230.207C156.804 218.137 164.791 208.605 171.957 198.069C179.122 187.533 182.545 168.323 183.724 160.325C184.903 152.327 184.239 138.796 182.454 130.871C180.669 122.946 178.756 114.455 174.389 108.301Z" fill="#6B7EB3"/>
</g>
<path d="M106.991 274.291L95.3359 215.235C95.3359 215.235 92.5196 208.369 90.1325 215.053C87.7455 221.736 89.3743 217.862 89.3743 217.862L105.175 282.123C105.175 282.123 106.89 285.566 107.624 282.208C108.359 278.851 106.991 274.291 106.991 274.291Z" fill="#4C5F94"/>
<path d="M125.837 263.514L144.62 206.286C144.62 206.286 145.529 198.919 140.173 203.587C134.816 208.255 136.45 207.927 136.45 207.927L120.416 269.462C120.416 269.462 120.223 273.304 122.508 270.732C124.794 268.16 125.837 263.514 125.837 263.514Z" fill="#4C5F94"/>
<g filter="url(#filter17_i_11:678)">
<path d="M332.878 412.227C332.425 407.571 334.841 389.183 337.397 376.711C339.953 364.239 346.366 355.657 349.374 347.842C352.383 340.026 354.059 328.942 352.089 322.843C350.119 316.744 345.312 311.284 340.83 309.915C336.349 308.545 318.76 312.508 318.76 312.508C318.76 312.508 334.602 316.671 337.127 317.292C339.651 317.913 343.636 322.368 344.911 328.029C346.186 333.69 339.958 340.446 337.007 345.869C334.055 351.293 329.682 368.932 327.993 374.666C326.304 380.399 322.212 409.872 318.011 420.335C313.811 430.798 302.616 444.621 299.933 456.526C297.249 468.432 293.119 481.853 293.119 481.853L314.679 476.996C314.679 476.996 326.09 448.255 329.468 436.787C332.846 425.32 333.331 416.884 332.878 412.227Z" fill="#FFE580"/>
</g>
<path d="M308.503 445.766L302.475 493.61C302.475 493.61 303.069 499.673 307.035 495.528C311.001 491.383 309.58 491.755 309.58 491.755L312.281 440.573C312.281 440.573 311.715 437.429 310.135 439.67C308.554 441.912 308.503 445.766 308.503 445.766Z" fill="#4C5F94"/>
<g filter="url(#filter18_i_11:678)">
<path d="M303.766 137.446C305.832 157.204 309.614 181.928 309.614 181.928L299.726 188.319L292.967 158.318C291.82 153.223 287.484 133.977 287.133 119.186C286.781 104.395 286.456 100.305 284.543 91.8135C282.631 83.3224 279.953 71.435 275.828 61.0631C271.703 50.6912 264.485 39.8263 258.671 35.1881C252.857 30.5499 250.83 26.8431 243.511 26.1126C236.192 25.3821 221.951 30.9696 221.951 30.9696C221.951 30.9696 224.022 26.9341 232.903 21.3648C241.783 15.7955 256.847 11.2123 264.606 11.2489C272.364 11.2855 278.816 18.754 284.885 24.5243C290.955 30.2946 296.712 37.3249 300.027 52.0427C303.343 66.7605 304.367 73.0725 304.402 87.3399C304.436 101.607 301.7 117.688 303.766 137.446Z" fill="#6B7EB3"/>
</g>
<g filter="url(#filter19_i_11:678)">
<path d="M171.275 202.981C175.756 204.351 185.67 208.66 185.67 208.66L187.2 215.453C187.2 215.453 165.926 208.35 150.282 207.71C134.637 207.071 76.7645 220.108 61.2032 227.778C45.6418 235.447 41.3837 248.302 41.3837 248.302C41.3837 248.302 39.8534 241.509 42.2376 236.214C44.6216 230.918 49.218 227.504 59.8004 221.551C70.3829 215.598 136.454 201.903 148.879 201.484C161.304 201.064 166.793 201.612 171.275 202.981Z" fill="#4C5F94"/>
</g>
<g filter="url(#filter20_i_11:678)">
<path d="M155.416 87.5941L174.899 110.566C174.899 110.566 158.591 96.3956 148.945 98.5685C139.3 100.741 128.608 87.6852 126.938 74.976C125.267 62.2668 127.95 50.3612 136.321 42.5276C144.691 34.694 154.719 34.2193 166.194 32.2291C177.669 30.2388 192.689 33.398 203.807 40.41C214.926 47.4221 212.37 59.8938 219.6 76.109C226.83 92.3242 231.395 102.002 234.965 117.852C238.536 133.702 242.151 141.81 237.07 153.661C231.99 165.511 239.366 163.85 240.768 170.077C242.171 176.303 230.696 178.294 224.142 180.96C217.589 183.626 214.427 180.174 211.111 165.457C207.796 150.739 215.669 145.991 216.905 135.601C218.141 125.211 214.584 114.711 211.039 109.562C207.494 104.412 199.525 95.5012 196.038 87.9597C192.55 80.4182 190.198 72.621 188.54 65.2621C186.882 57.9032 176.032 57.3736 176.032 57.3736C176.032 57.3736 171.493 58.3961 160.783 63.7828C150.073 69.1695 142.952 71.9632 144.61 79.3221C146.267 86.6811 155.416 87.5941 155.416 87.5941Z" fill="#6B7EB3"/>
</g>
<g filter="url(#filter21_i_11:678)">
<path d="M506.829 223.746C500.385 222.236 484.618 220.423 484.618 220.423C484.618 220.423 498.496 230.993 502.143 239.057C505.791 247.121 506.299 249.376 507.569 255.014C508.839 260.651 508.366 266.681 506.986 274.101C505.606 281.52 500.668 292.11 497.618 297.536C494.569 302.962 483.75 317.247 478.831 322.502C473.911 327.757 462.203 338.095 453.418 342.444C444.633 346.792 423.94 363.301 417.587 373.026C411.233 382.75 400.976 402.239 400.976 402.239C400.976 402.239 407.311 397.85 415.988 387.603C424.665 377.355 458.644 360.222 474.218 350.79C489.792 341.358 502.48 327.244 502.48 327.244C502.48 327.244 511.284 317.56 518.999 305.752C526.714 293.944 528.895 293.091 531.764 284.151C534.632 275.212 532.649 258.97 532.649 258.97C532.649 258.97 530.027 241.661 524.637 233.99C519.247 226.319 513.272 225.256 506.829 223.746Z" fill="#6B7EB3"/>
</g>
<path d="M397.488 278.453L408.75 325.351C408.75 325.351 411.783 330.95 414.878 326.015C417.973 321.08 416.436 321.792 416.436 321.792L399.958 272.571C399.958 272.571 398.081 269.733 397.074 272.259C396.067 274.785 397.488 278.453 397.488 278.453Z" fill="#4C5F94"/>
<path d="M275.662 101.722L287.454 143.798C287.454 143.798 290.547 148.84 293.581 144.462C296.615 140.083 295.088 140.702 295.088 140.702L278.061 96.4905C278.061 96.4905 276.153 93.9302 275.177 96.178C274.201 98.4258 275.662 101.722 275.662 101.722Z" fill="#4C5F94"/>
<path d="M248.629 106.275L256.91 160.296C256.91 160.296 258.914 166.557 260.617 160.397C262.32 154.237 261.418 155.247 261.418 155.247L249.925 99.069C249.925 99.069 248.705 95.9321 248.181 99.0212C247.657 102.11 248.629 106.275 248.629 106.275Z" fill="#4C5F94"/>
<path d="M434.783 277.137L417.357 298.544C417.357 298.544 415.844 302.524 419.118 303.883C422.392 305.242 421.553 304.125 421.553 304.125L438.274 277.728C438.274 277.728 438.927 275.424 437.445 275.216C435.964 275.007 434.783 277.137 434.783 277.137Z" fill="#4C5F94"/>
<path d="M375.787 253.273L423.828 258.561C423.828 258.561 430.137 257.607 426.537 253.033C422.938 248.458 423.086 250.142 423.086 250.142L371.082 248.965C371.082 248.965 367.768 249.767 369.807 251.567C371.846 253.366 375.787 253.273 375.787 253.273Z" fill="#4C5F94"/>
<path d="M182.58 132.917L226.171 153.718C226.171 153.718 232.441 154.894 230.555 149.389C228.669 143.885 228.253 145.524 228.253 145.524L179.563 127.301C179.563 127.301 176.171 126.968 177.5 129.338C178.83 131.709 182.58 132.917 182.58 132.917Z" fill="#4C5F94"/>
<path d="M383.622 185.964L421.306 184.11C421.306 184.11 426.509 182.152 424.329 177.943C422.149 173.735 422.008 175.464 422.008 175.464L380.515 182.203C380.515 182.203 377.736 183.545 379.093 185.105C380.45 186.665 383.622 185.964 383.622 185.964Z" fill="#4C5F94"/>
<path d="M328.469 84.0465L366.153 82.1918C366.153 82.1918 371.356 80.2339 369.176 76.0255C366.996 71.817 366.855 73.5461 366.855 73.5461L325.362 80.2853C325.362 80.2853 322.583 81.627 323.94 83.1871C325.297 84.7472 328.469 84.0465 328.469 84.0465Z" fill="#4C5F94"/>
<path d="M309.617 89.8843L353.459 96.6789C353.459 96.6789 359.58 95.8361 357.214 90.9268C354.849 86.0174 354.617 87.7943 354.617 87.7943L306.158 85.2282C306.158 85.2282 302.877 85.988 304.391 87.9351C305.905 89.8822 309.617 89.8843 309.617 89.8843Z" fill="#4C5F94"/>
<path d="M384.64 145.737L417.961 139.338C417.961 139.338 422.763 136.647 421.345 132.434C419.928 128.221 419.6 130.074 419.6 130.074L382.355 142.108C382.355 142.108 379.755 143.859 380.763 145.357C381.77 146.854 384.64 145.737 384.64 145.737Z" fill="#4C5F94"/>
<path d="M365.894 122.752L410.757 101.182C410.757 101.182 418.984 94.9684 421.545 88.0109C424.106 81.0534 421.881 84.4082 421.881 84.4082L366.871 117.089C366.871 117.089 362.123 120.97 361.795 123.287C361.466 125.603 365.894 122.752 365.894 122.752Z" fill="#4C5F94"/>
<path d="M103.766 267.592L55.9371 238.815C55.9371 238.815 49.5103 236.439 52.7261 242.157C55.9419 247.874 54.2235 244.398 54.2235 244.398L108.116 273.64C108.116 273.64 111.518 274.631 109.627 272.067C107.736 269.504 103.766 267.592 103.766 267.592Z" fill="#4C5F94"/>
<path d="M87.1172 253.951L65.6042 231.739C65.6042 231.739 61.6762 229.614 60.4919 233.287C59.3075 236.961 60.2335 234.755 60.2335 234.755L86.6878 257.949C86.6878 257.949 88.9526 258.92 89.0937 257.22C89.2347 255.52 87.1172 253.951 87.1172 253.951Z" fill="#4C5F94"/>
<path d="M98.0059 248.988L67.5639 243.328C67.5639 243.328 63.1261 243.868 64.2924 247.545C65.4586 251.222 64.9335 248.89 64.9335 248.89L99.9759 252.492C99.9759 252.492 102.387 251.974 101.515 250.508C100.644 249.041 98.0059 248.988 98.0059 248.988Z" fill="#4C5F94"/>
<path d="M179.542 213.965L149.1 208.306C149.1 208.306 144.662 208.845 145.829 212.522C146.995 216.199 146.47 213.867 146.47 213.867L181.512 217.47C181.512 217.47 183.923 216.952 183.052 215.485C182.18 214.019 179.542 213.965 179.542 213.965Z" fill="#4C5F94"/>
<path d="M123.097 236.136L92.2799 239.242C92.2799 239.242 88.1716 241.004 90.3265 244.205C92.4814 247.405 91.3207 245.315 91.3207 245.315L125.975 238.946C125.975 238.946 128.144 237.773 126.895 236.61C125.645 235.448 123.097 236.136 123.097 236.136Z" fill="#4C5F94"/>
<path d="M178.567 225.17L136.289 223.471C136.289 223.471 130.87 224.648 134.377 228.328C137.884 232.008 135.936 229.644 135.936 229.644L183.015 228.558C183.015 228.558 185.837 227.684 183.914 226.273C181.992 224.861 178.567 225.17 178.567 225.17Z" fill="#4C5F94"/>
<path d="M506.816 307.709L520.31 284.906C520.31 284.906 521.283 280.509 518.243 278.661C515.203 276.813 516.054 278.162 516.054 278.162L503.655 306.716C503.655 306.716 503.29 309.282 504.628 309.655C505.965 310.028 506.816 307.709 506.816 307.709Z" fill="#4C5F94"/>
<path d="M498.315 335.713L501.184 315.446C501.184 315.446 500.573 312.053 497.853 311.718C495.134 311.382 496.142 312.059 496.142 312.059L495.763 336.016C495.763 336.016 496.264 337.932 497.33 337.771C498.396 337.609 498.315 335.713 498.315 335.713Z" fill="#4C5F94"/>
<path d="M503.667 359.033L471.412 341.193C471.412 341.193 466.253 340.127 466.331 344.702C466.408 349.278 467.242 347.931 467.242 347.931L504.704 363.717C504.704 363.717 507.582 364.044 507.095 362.065C506.608 360.087 503.667 359.033 503.667 359.033Z" fill="#4C5F94"/>
<path d="M472.522 385.193L431.75 370.43C431.75 370.43 426.127 369.878 428.501 374.503C430.875 379.127 431.021 377.678 431.021 377.678L475.897 389.83C475.897 389.83 478.899 389.866 477.426 387.913C475.952 385.96 472.522 385.193 472.522 385.193Z" fill="#4C5F94"/>
<path d="M487.972 420.526L535.759 447.765C535.759 447.765 542.303 449.854 539.401 444.038C536.498 438.221 536.375 439.812 536.375 439.812L483.908 414.434C483.908 414.434 480.422 413.609 482.194 416.188C483.967 418.768 487.972 420.526 487.972 420.526Z" fill="#4C5F94"/>
<path d="M507.931 393.114L560.484 409.444C560.484 409.444 567.327 410.078 563.237 405.022C559.147 399.967 559.37 401.546 559.37 401.546L502.647 388.04C502.647 388.04 499.064 387.983 501.352 390.121C503.639 392.258 507.931 393.114 507.931 393.114Z" fill="#4C5F94"/>
<path d="M524.198 365.4L569.002 376.931C569.002 376.931 574.951 377.011 571.755 372.509C568.56 368.008 568.633 369.495 568.633 369.495L519.957 360.972C519.957 360.972 516.821 361.192 518.662 363.053C520.502 364.913 524.198 365.4 524.198 365.4Z" fill="#4C5F94"/>
<path d="M466.977 441.678L509.473 476.569C509.473 476.569 515.569 479.729 513.691 473.506C511.813 467.284 511.423 468.831 511.423 468.831L464 434.99C464 434.99 460.704 433.59 462.015 436.431C463.326 439.272 466.977 441.678 466.977 441.678Z" fill="#4C5F94"/>
<path d="M498.727 281.251L518.983 246.044C518.983 246.044 520.335 240.769 515.499 241.755C510.663 242.74 512.05 243.291 512.05 243.291L493.734 283.199C493.734 283.199 493.263 286.09 495.373 285.218C497.484 284.347 498.727 281.251 498.727 281.251Z" fill="#4C5F94"/>
<path d="M470.965 266.918L490.994 224.571C490.994 224.571 492.217 218.695 487.147 221.073C482.077 223.451 483.563 223.638 483.563 223.638L465.766 270.344C465.766 270.344 465.381 273.487 467.577 271.989C469.772 270.492 470.965 266.918 470.965 266.918Z" fill="#4C5F94"/>
<path d="M515.592 690.52L546.5 652.864C546.5 652.864 549.147 646.93 543.25 647.243C537.353 647.557 538.877 648.441 538.877 648.441L509.318 691.933C509.318 691.933 508.185 695.231 510.847 694.578C513.509 693.925 515.592 690.52 515.592 690.52Z" fill="#E4E9F1"/>
<path d="M499.05 666.268L533.635 631.944C533.635 631.944 536.874 626.308 530.976 626.021C525.078 625.734 526.504 626.769 526.504 626.769L492.665 667.036C492.665 667.036 491.202 670.202 493.916 669.823C496.631 669.444 499.05 666.268 499.05 666.268Z" fill="#E4E9F1"/>
<path d="M452.405 656.024L490.005 625.018C490.005 625.018 493.749 619.704 487.904 618.876C482.058 618.048 483.382 619.21 483.382 619.21L445.976 656.202C445.976 656.202 444.228 659.221 446.965 659.093C449.703 658.965 452.405 656.024 452.405 656.024Z" fill="#E4E9F1"/>
<path d="M139.439 278.345L172.922 311.093C172.922 311.093 178.08 314.17 177.5 308.613C176.92 303.055 176.253 304.395 176.253 304.395L137.909 272.323C137.909 272.323 135.061 270.93 135.755 273.49C136.449 276.05 139.439 278.345 139.439 278.345Z" fill="#4C5F94"/>
<path d="M114.278 303.476L147.762 336.225C147.762 336.225 152.92 339.302 152.339 333.744C151.759 328.186 151.093 329.526 151.093 329.526L112.748 297.454C112.748 297.454 109.9 296.061 110.594 298.621C111.288 301.181 114.278 303.476 114.278 303.476Z" fill="#4C5F94"/>
<path d="M137.363 253.413L194.163 273.641C194.163 273.641 201.517 274.74 196.991 269.275C192.465 263.81 192.748 265.449 192.748 265.449L131.556 247.85C131.556 247.85 127.713 247.557 130.225 249.904C132.738 252.252 137.363 253.413 137.363 253.413Z" fill="#4C5F94"/>
<path d="M406.569 211.736L396.921 165.937C396.921 165.937 394.342 160.52 391.736 165.469C389.131 170.419 390.429 169.672 390.429 169.672L404.495 217.597C404.495 217.597 406.089 220.333 406.935 217.817C407.78 215.301 406.569 211.736 406.569 211.736Z" fill="#4C5F94"/>
<path d="M371.737 220.031L353.09 183.675C353.09 183.675 349.479 179.671 347.927 184.351C346.376 189.031 347.495 188.138 347.495 188.138L370.889 225.364C370.889 225.364 372.998 227.326 373.319 225.046C373.639 222.766 371.737 220.031 371.737 220.031Z" fill="#4C5F94"/>
<path d="M337.245 142.346L301.715 162.684C301.715 162.684 297.875 166.477 302.631 167.798C307.387 169.119 306.442 168.047 306.442 168.047L342.623 142.934C342.623 142.934 344.49 140.737 342.192 140.528C339.895 140.319 337.245 142.346 337.245 142.346Z" fill="#4C5F94"/>
<path d="M361.143 186.867L320.349 183.429C320.349 183.429 315.03 184.369 318.186 188.157C321.341 191.945 321.175 190.526 321.175 190.526L365.227 190.405C365.227 190.405 368.014 189.657 366.246 188.18C364.477 186.704 361.143 186.867 361.143 186.867Z" fill="#4C5F94"/>
<path d="M281.414 74.0272L264.374 25.9011C264.374 25.9011 261.113 20.4779 259.795 26.3602C258.478 32.2425 259.461 31.1856 259.461 31.1856L280.729 80.8044C280.729 80.8044 282.629 83.489 282.884 80.5883C283.139 77.6877 281.414 74.0272 281.414 74.0272Z" fill="#4C5F94"/>
<path d="M307.638 78.2154L289.017 49.7034C289.017 49.7034 285.597 46.6884 284.519 50.6752C283.442 54.662 284.371 53.8355 284.371 53.8355L307.219 82.6856C307.219 82.6856 309.193 84.1359 309.335 82.2283C309.477 80.3207 307.638 78.2154 307.638 78.2154Z" fill="#4C5F94"/>
<path d="M322.618 93.9958L294.606 83.3782C294.606 83.3782 290.65 82.9846 292.047 86.3185C293.444 89.6524 293.638 88.6067 293.638 88.6067L324.724 97.3377C324.724 97.3377 326.853 97.3615 325.929 95.954C325.004 94.5465 322.618 93.9958 322.618 93.9958Z" fill="#4C5F94"/>
<path d="M201.178 77.6686L171.827 71.6303C171.827 71.6303 167.858 71.8692 169.768 74.9386C171.678 78.0081 171.703 76.9451 171.703 76.9451L203.79 80.6333C203.79 80.6333 205.895 80.3193 204.759 79.0765C203.622 77.8337 201.178 77.6686 201.178 77.6686Z" fill="#4C5F94"/>
<path d="M127.358 110.822L162.676 115.771C162.676 115.771 167.215 115.343 164.317 112.238C161.418 109.133 161.628 110.239 161.628 110.239L123.671 107.857C123.671 107.857 121.305 108.279 122.899 109.52C124.493 110.761 127.358 110.822 127.358 110.822Z" fill="#4C5F94"/>
<path d="M96.533 121.093L122.246 113.179C122.246 113.179 126.313 110.435 126.138 106.706C125.963 102.978 125.343 104.678 125.343 104.678L95.6035 117.948C95.6035 117.948 93.3408 119.7 93.7718 120.994C94.2029 122.287 96.533 121.093 96.533 121.093Z" fill="#4C5F94"/>
<path d="M133.608 138.746L168.762 132.687C168.762 132.687 172.955 130.895 169.243 128.823C165.532 126.752 166.07 127.741 166.07 127.741L129.188 137.049C129.188 137.049 127.064 138.172 128.962 138.867C130.86 139.562 133.608 138.746 133.608 138.746Z" fill="#4C5F94"/>
<path d="M250.035 69.8821L236.489 24.2891C236.489 24.2891 233.496 19.0346 231.431 24.3112C229.366 29.5878 230.553 28.7047 230.553 28.7047L248.568 76.034C248.568 76.034 250.362 78.6599 250.948 76.0236C251.535 73.3873 250.035 69.8821 250.035 69.8821Z" fill="#4C5F94"/>
<path d="M443.874 255.819L447.211 229.555C447.211 229.555 446.357 225.135 442.831 224.642C439.305 224.148 440.622 225.05 440.622 225.05L440.576 256.159C440.576 256.159 441.261 258.658 442.637 258.471C444.014 258.284 443.874 255.819 443.874 255.819Z" fill="#4C5F94"/>
<g filter="url(#filter22_i_11:678)">
<path d="M379.316 470.168L406.123 470.076C406.123 470.076 405.121 464.354 408.997 449.801C412.872 435.247 424.686 425.449 427.37 413.543C430.053 401.637 422.568 384.29 414.797 378.903C407.025 373.516 383.953 370.387 383.953 370.387C383.953 370.387 403.678 389.14 403.449 398.709C403.219 408.277 390.833 424.748 387.327 435.649C383.821 446.55 379.316 470.168 379.316 470.168Z" fill="#6B7EB3"/>
</g>
<path d="M362.26 432.674L393.351 378.976C393.351 378.976 394.173 381.623 392.331 374.447C390.488 367.271 386.62 369.431 386.62 369.431L359.848 427.459C359.848 427.459 358.139 433.341 359.185 435.433C360.23 437.526 362.26 432.674 362.26 432.674Z" fill="#4C5F94"/>
<g filter="url(#filter23_i_11:678)">
<path d="M232.59 22.6248C243.388 17.6261 264.166 11.9428 264.166 11.9428C264.166 11.9428 249.783 11.614 227.656 16.5988C205.528 21.5837 201.767 31.3529 193.084 40.4465C184.402 49.54 184.912 51.8043 167.961 58.5969C151.01 65.3896 131.943 78.6701 117.771 92.5058C103.599 106.342 102.93 111.314 101.879 119.878C100.827 128.442 102.058 141.845 108.382 148.747C114.707 155.65 170.726 184.666 175.488 197.868C180.251 211.07 186.588 223.323 189.776 237.475C192.964 251.627 192.831 274.854 184.162 289.298C175.492 303.741 161.34 320.312 150.764 328.94C140.188 337.568 122.656 345.168 118.117 346.191C113.578 347.213 112.52 347.072 112.52 347.072L103.965 356.732C103.965 356.732 118.22 356.495 135.171 349.702C152.122 342.909 164.764 327.571 173.261 320.303C181.759 313.036 197.422 295.232 202.375 282.815C207.328 270.398 208.768 239.739 208.799 226.647C208.831 213.554 203.43 197.522 197.163 188.227C190.896 178.932 173.198 163.886 159.358 152.729C145.517 141.571 124.511 140.95 122.018 127.237C119.525 113.523 132.702 111.15 146.988 97.8199C161.274 84.49 183.019 77.8069 192.894 66.0656C202.769 54.3244 211.636 43.4048 211.636 43.4048C211.636 43.4048 221.793 27.6235 232.59 22.6248Z" fill="#4C5F94"/>
</g>
<g filter="url(#filter24_i_11:678)">
<path d="M518.444 227.672C515.849 224.093 516.856 223.271 509.34 219.017C501.824 214.762 483.144 211.238 474.181 208.498C465.217 205.759 463.26 205.011 453.105 204.919C443.403 204.832 436.017 210.194 435.376 210.673C436.335 209.948 452.264 197.899 456.171 194.712C460.2 191.425 470.215 185.6 469.182 175.721C468.149 165.842 458.548 160.273 458.548 160.273C458.548 160.273 443.458 154.156 431.217 152.749C418.977 151.343 409.771 152.822 409.771 152.822C409.771 152.822 383.474 155.178 365.006 160.528C346.537 165.878 331.671 173.985 319.571 178.495C307.471 183.006 308.224 181.052 302.365 184.156C296.506 187.26 300.829 201.156 300.829 201.156C300.829 201.156 300.587 205.374 307.211 205.667C313.835 205.959 331.098 197.906 331.098 197.906C331.098 197.906 347.794 189.981 358.689 182.769C369.584 175.556 395.74 167.284 414.094 166.718C432.448 166.152 444.574 172.343 444.574 172.343C444.574 172.343 440.196 174.08 431.41 180.067C422.623 186.054 413.429 198.012 411.718 201.157C408.766 206.581 407.262 210.488 408.664 216.715C410.067 222.942 413.427 229.917 423.838 231.141C434.248 232.364 449.88 227.653 449.88 227.653L472.575 222.541C482.221 220.368 491.809 220.587 502.034 223.636C512.26 226.686 518.444 227.672 518.444 227.672Z" fill="#4C5F94"/>
</g>
<g filter="url(#filter25_i_11:678)">
<path d="M289.3 128.809C279.171 139.418 268.289 151.981 252.23 162.736C236.172 173.491 248.386 164.197 232.768 174.258C217.149 184.32 213.666 178.561 223.39 182.914C233.115 187.266 239.277 179.335 273.052 165.183C306.826 151.032 347.772 102.551 356.965 95.7219C366.157 88.8927 384.696 86.5007 390.37 85.2226C396.043 83.9444 406.652 88.6921 416.393 100.178C426.135 111.664 432.186 135.877 432.186 135.877C432.186 135.877 425.643 90.9566 419.306 78.7039C412.969 66.4513 395.367 65.0633 390.063 62.6894C384.759 60.3154 373.596 61.0458 354.885 70.614C336.175 80.1822 299.43 118.2 289.3 128.809Z" fill="#4C5F94"/>
</g>
<g filter="url(#filter26_i_11:678)">
<path d="M395.077 338.119C391.805 336.829 390.472 336.204 392.935 337.434C393.583 337.757 394.3 337.982 395.077 338.119C401.621 340.699 415.916 345.937 423.102 344.318C433.882 341.89 456.125 332.121 470.195 333.709C484.265 335.298 509.083 347.551 517.607 350.984C526.13 354.417 544 362.287 549.687 366.359C555.374 370.432 565.357 377.699 564.701 393.312C564.045 408.924 556.026 431.549 556.026 431.549C561.24 426.825 574.799 395.795 574.799 395.795C574.799 395.795 582.29 389.349 580.734 371.856C579.183 354.427 563.693 346.043 552.835 340.167L552.714 340.101C541.851 334.221 497.218 318.7 484.85 316.727C472.483 314.755 440.569 315.997 428.667 324.031C417.808 331.361 403.171 339.542 395.077 338.119Z" fill="#4C5F94"/>
</g>
<g filter="url(#filter27_i_11:678)">
<path d="M384.19 372.712C401.352 374.794 414.102 378.465 414.102 378.465C414.102 378.465 401.778 368.75 385.554 362.888C369.329 357.027 347.5 355.401 347.5 355.401L357.255 372.237C357.255 372.237 367.028 370.631 384.19 372.712Z" fill="#4C5F94"/>
</g>
<g filter="url(#filter28_i_11:678)">
<path d="M278.848 370.867C291.91 373.278 357.255 372.237 357.255 372.237L347.5 355.401C347.5 355.401 329.85 351.152 314.311 350.982C298.773 350.812 289.022 352.516 271.86 350.434C254.698 348.352 212.379 324.577 179.854 333.688C147.328 342.8 148.33 365.771 151.575 377.531C154.821 389.291 155.841 393.819 162.535 397.07C169.229 400.32 175.54 401.872 178.205 408.409C180.87 414.947 179.168 415.33 185.237 421.1C191.307 426.871 194.724 431.454 199.263 430.432C203.802 429.409 201.532 429.92 201.704 422.744C201.876 415.568 207.352 410.765 205.197 406.492C203.042 402.219 187.71 400.32 187.341 403.972C186.971 407.624 194.857 408.227 193.295 414.527C191.734 420.827 198.044 420.371 194.953 421.886C191.267 423.692 190.371 420.898 189.776 420.078C187.182 416.499 185.128 402.091 182.279 397.38C179.429 392.669 165.078 379.248 165.078 379.248C165.078 379.248 163.816 378.937 167.746 369.922C170.182 365.622 174.708 361.168 183.068 358.541C203.111 352.241 265.785 368.457 278.848 370.867Z" fill="#FFE580"/>
</g>
<defs>
<filter id="filter0_i_11:678" x="430.019" y="470.497" width="86.3367" height="90.7669" filterUnits="userSpaceOnUse" color-interpolation-filters="sRGB">
<feFlood flood-opacity="0" result="BackgroundImageFix"/>
<feBlend mode="normal" in="SourceGraphic" in2="BackgroundImageFix" result="shape"/>
<feColorMatrix in="SourceAlpha" type="matrix" values="0 0 0 0 0 0 0 0 0 0 0 0 0 0 0 0 0 0 127 0" result="hardAlpha"/>
<feOffset dy="4"/>
<feGaussianBlur stdDeviation="2"/>
<feComposite in2="hardAlpha" operator="arithmetic" k2="-1" k3="1"/>
<feColorMatrix type="matrix" values="0 0 0 0 0 0 0 0 0 0 0 0 0 0 0 0 0 0 0.25 0"/>
<feBlend mode="normal" in2="shape" result="effect1_innerShadow_11:678"/>
</filter>
<filter id="filter1_i_11:678" x="364.33" y="470.076" width="41.7938" height="44.9575" filterUnits="userSpaceOnUse" color-interpolation-filters="sRGB">
<feFlood flood-opacity="0" result="BackgroundImageFix"/>
<feBlend mode="normal" in="SourceGraphic" in2="BackgroundImageFix" result="shape"/>
<feColorMatrix in="SourceAlpha" type="matrix" values="0 0 0 0 0 0 0 0 0 0 0 0 0 0 0 0 0 0 127 0" result="hardAlpha"/>
<feOffset dy="4"/>
<feGaussianBlur stdDeviation="2"/>
<feComposite in2="hardAlpha" operator="arithmetic" k2="-1" k3="1"/>
<feColorMatrix type="matrix" values="0 0 0 0 0 0 0 0 0 0 0 0 0 0 0 0 0 0 0.25 0"/>
<feBlend mode="normal" in2="shape" result="effect1_innerShadow_11:678"/>
</filter>
<filter id="filter2_i_11:678" x="437.022" y="428.48" width="77.6719" height="123.057" filterUnits="userSpaceOnUse" color-interpolation-filters="sRGB">
<feFlood flood-opacity="0" result="BackgroundImageFix"/>
<feBlend mode="normal" in="SourceGraphic" in2="BackgroundImageFix" result="shape"/>
<feColorMatrix in="SourceAlpha" type="matrix" values="0 0 0 0 0 0 0 0 0 0 0 0 0 0 0 0 0 0 127 0" result="hardAlpha"/>
<feOffset dy="4"/>
<feGaussianBlur stdDeviation="2"/>
<feComposite in2="hardAlpha" operator="arithmetic" k2="-1" k3="1"/>
<feColorMatrix type="matrix" values="0 0 0 0 0 0 0 0 0 0 0 0 0 0 0 0 0 0 0.25 0"/>
<feBlend mode="normal" in2="shape" result="effect1_innerShadow_11:678"/>
</filter>
<filter id="filter3_i_11:678" x="347.201" y="512.737" width="183.714" height="223.247" filterUnits="userSpaceOnUse" color-interpolation-filters="sRGB">
<feFlood flood-opacity="0" result="BackgroundImageFix"/>
<feBlend mode="normal" in="SourceGraphic" in2="BackgroundImageFix" result="shape"/>
<feColorMatrix in="SourceAlpha" type="matrix" values="0 0 0 0 0 0 0 0 0 0 0 0 0 0 0 0 0 0 127 0" result="hardAlpha"/>
<feOffset dy="4"/>
<feGaussianBlur stdDeviation="2"/>
<feComposite in2="hardAlpha" operator="arithmetic" k2="-1" k3="1"/>
<feColorMatrix type="matrix" values="0 0 0 0 0 0 0 0 0 0 0 0 0 0 0 0 0 0 0.25 0"/>
<feBlend mode="normal" in2="shape" result="effect1_innerShadow_11:678"/>
</filter>
<filter id="filter4_i_11:678" x="385.77" y="693.478" width="99.6816" height="78.0407" filterUnits="userSpaceOnUse" color-interpolation-filters="sRGB">
<feFlood flood-opacity="0" result="BackgroundImageFix"/>
<feBlend mode="normal" in="SourceGraphic" in2="BackgroundImageFix" result="shape"/>
<feColorMatrix in="SourceAlpha" type="matrix" values="0 0 0 0 0 0 0 0 0 0 0 0 0 0 0 0 0 0 127 0" result="hardAlpha"/>
<feOffset dy="4"/>
<feGaussianBlur stdDeviation="2"/>
<feComposite in2="hardAlpha" operator="arithmetic" k2="-1" k3="1"/>
<feColorMatrix type="matrix" values="0 0 0 0 0 0 0 0 0 0 0 0 0 0 0 0 0 0 0.25 0"/>
<feBlend mode="normal" in2="shape" result="effect1_innerShadow_11:678"/>
</filter>
<filter id="filter5_i_11:678" x="326.417" y="472.309" width="233.766" height="224.694" filterUnits="userSpaceOnUse" color-interpolation-filters="sRGB">
<feFlood flood-opacity="0" result="BackgroundImageFix"/>
<feBlend mode="normal" in="SourceGraphic" in2="BackgroundImageFix" result="shape"/>
<feColorMatrix in="SourceAlpha" type="matrix" values="0 0 0 0 0 0 0 0 0 0 0 0 0 0 0 0 0 0 127 0" result="hardAlpha"/>
<feOffset dy="4"/>
<feGaussianBlur stdDeviation="2"/>
<feComposite in2="hardAlpha" operator="arithmetic" k2="-1" k3="1"/>
<feColorMatrix type="matrix" values="0 0 0 0 0 0 0 0 0 0 0 0 0 0 0 0 0 0 0.25 0"/>
<feBlend mode="normal" in2="shape" result="effect1_innerShadow_11:678"/>
</filter>
<filter id="filter6_i_11:678" x="410.537" y="495.516" width="86.3091" height="57.5007" filterUnits="userSpaceOnUse" color-interpolation-filters="sRGB">
<feFlood flood-opacity="0" result="BackgroundImageFix"/>
<feBlend mode="normal" in="SourceGraphic" in2="BackgroundImageFix" result="shape"/>
<feColorMatrix in="SourceAlpha" type="matrix" values="0 0 0 0 0 0 0 0 0 0 0 0 0 0 0 0 0 0 127 0" result="hardAlpha"/>
<feOffset dy="4"/>
<feGaussianBlur stdDeviation="2"/>
<feComposite in2="hardAlpha" operator="arithmetic" k2="-1" k3="1"/>
<feColorMatrix type="matrix" values="0 0 0 0 0 0 0 0 0 0 0 0 0 0 0 0 0 0 0.25 0"/>
<feBlend mode="normal" in2="shape" result="effect1_innerShadow_11:678"/>
</filter>
<filter id="filter7_i_11:678" x="86.7955" y="316.751" width="46.9731" height="43.9811" filterUnits="userSpaceOnUse" color-interpolation-filters="sRGB">
<feFlood flood-opacity="0" result="BackgroundImageFix"/>
<feBlend mode="normal" in="SourceGraphic" in2="BackgroundImageFix" result="shape"/>
<feColorMatrix in="SourceAlpha" type="matrix" values="0 0 0 0 0 0 0 0 0 0 0 0 0 0 0 0 0 0 127 0" result="hardAlpha"/>
<feOffset dy="4"/>
<feGaussianBlur stdDeviation="2"/>
<feComposite in2="hardAlpha" operator="arithmetic" k2="-1" k3="1"/>
<feColorMatrix type="matrix" values="0 0 0 0 0 0 0 0 0 0 0 0 0 0 0 0 0 0 0.25 0"/>
<feBlend mode="normal" in2="shape" result="effect1_innerShadow_11:678"/>
</filter>
<filter id="filter8_i_11:678" x="303.987" y="245.622" width="44.8582" height="128.624" filterUnits="userSpaceOnUse" color-interpolation-filters="sRGB">
<feFlood flood-opacity="0" result="BackgroundImageFix"/>
<feBlend mode="normal" in="SourceGraphic" in2="BackgroundImageFix" result="shape"/>
<feColorMatrix in="SourceAlpha" type="matrix" values="0 0 0 0 0 0 0 0 0 0 0 0 0 0 0 0 0 0 127 0" result="hardAlpha"/>
<feOffset dy="4"/>
<feGaussianBlur stdDeviation="2"/>
<feComposite in2="hardAlpha" operator="arithmetic" k2="-1" k3="1"/>
<feColorMatrix type="matrix" values="0 0 0 0 0 0 0 0 0 0 0 0 0 0 0 0 0 0 0.25 0"/>
<feBlend mode="normal" in2="shape" result="effect1_innerShadow_11:678"/>
</filter>
<filter id="filter9_i_11:678" x="181.817" y="210.176" width="63.2531" height="223.939" filterUnits="userSpaceOnUse" color-interpolation-filters="sRGB">
<feFlood flood-opacity="0" result="BackgroundImageFix"/>
<feBlend mode="normal" in="SourceGraphic" in2="BackgroundImageFix" result="shape"/>
<feColorMatrix in="SourceAlpha" type="matrix" values="0 0 0 0 0 0 0 0 0 0 0 0 0 0 0 0 0 0 127 0" result="hardAlpha"/>
<feOffset dy="4"/>
<feGaussianBlur stdDeviation="2"/>
<feComposite in2="hardAlpha" operator="arithmetic" k2="-1" k3="1"/>
<feColorMatrix type="matrix" values="0 0 0 0 0 0 0 0 0 0 0 0 0 0 0 0 0 0 0.25 0"/>
<feBlend mode="normal" in2="shape" result="effect1_innerShadow_11:678"/>
</filter>
<filter id="filter10_i_11:678" x="93.5222" y="233.814" width="251.903" height="114.794" filterUnits="userSpaceOnUse" color-interpolation-filters="sRGB">
<feFlood flood-opacity="0" result="BackgroundImageFix"/>
<feBlend mode="normal" in="SourceGraphic" in2="BackgroundImageFix" result="shape"/>
<feColorMatrix in="SourceAlpha" type="matrix" values="0 0 0 0 0 0 0 0 0 0 0 0 0 0 0 0 0 0 127 0" result="hardAlpha"/>
<feOffset dy="4"/>
<feGaussianBlur stdDeviation="2"/>
<feComposite in2="hardAlpha" operator="arithmetic" k2="-1" k3="1"/>
<feColorMatrix type="matrix" values="0 0 0 0 0 0 0 0 0 0 0 0 0 0 0 0 0 0 0.25 0"/>
<feBlend mode="normal" in2="shape" result="effect1_innerShadow_11:678"/>
</filter>
<filter id="filter11_i_11:678" x="285.819" y="476.996" width="29.8051" height="32.358" filterUnits="userSpaceOnUse" color-interpolation-filters="sRGB">
<feFlood flood-opacity="0" result="BackgroundImageFix"/>
<feBlend mode="normal" in="SourceGraphic" in2="BackgroundImageFix" result="shape"/>
<feColorMatrix in="SourceAlpha" type="matrix" values="0 0 0 0 0 0 0 0 0 0 0 0 0 0 0 0 0 0 127 0" result="hardAlpha"/>
<feOffset dy="4"/>
<feGaussianBlur stdDeviation="2"/>
<feComposite in2="hardAlpha" operator="arithmetic" k2="-1" k3="1"/>
<feColorMatrix type="matrix" values="0 0 0 0 0 0 0 0 0 0 0 0 0 0 0 0 0 0 0.25 0"/>
<feBlend mode="normal" in2="shape" result="effect1_innerShadow_11:678"/>
</filter>
<filter id="filter12_i_11:678" x="286.362" y="498.857" width="125.513" height="26.5674" filterUnits="userSpaceOnUse" color-interpolation-filters="sRGB">
<feFlood flood-opacity="0" result="BackgroundImageFix"/>
<feBlend mode="normal" in="SourceGraphic" in2="BackgroundImageFix" result="shape"/>
<feColorMatrix in="SourceAlpha" type="matrix" values="0 0 0 0 0 0 0 0 0 0 0 0 0 0 0 0 0 0 127 0" result="hardAlpha"/>
<feOffset dy="4"/>
<feGaussianBlur stdDeviation="2"/>
<feComposite in2="hardAlpha" operator="arithmetic" k2="-1" k3="1"/>
<feColorMatrix type="matrix" values="0 0 0 0 0 0 0 0 0 0 0 0 0 0 0 0 0 0 0.25 0"/>
<feBlend mode="normal" in2="shape" result="effect1_innerShadow_11:678"/>
</filter>
<filter id="filter13_i_11:678" x="399.328" y="372.585" width="59.4272" height="71.9284" filterUnits="userSpaceOnUse" color-interpolation-filters="sRGB">
<feFlood flood-opacity="0" result="BackgroundImageFix"/>
<feBlend mode="normal" in="SourceGraphic" in2="BackgroundImageFix" result="shape"/>
<feColorMatrix in="SourceAlpha" type="matrix" values="0 0 0 0 0 0 0 0 0 0 0 0 0 0 0 0 0 0 127 0" result="hardAlpha"/>
<feOffset dy="4"/>
<feGaussianBlur stdDeviation="2"/>
<feComposite in2="hardAlpha" operator="arithmetic" k2="-1" k3="1"/>
<feColorMatrix type="matrix" values="0 0 0 0 0 0 0 0 0 0 0 0 0 0 0 0 0 0 0.25 0"/>
<feBlend mode="normal" in2="shape" result="effect1_innerShadow_11:678"/>
</filter>
<filter id="filter14_i_11:678" x="504.459" y="389.221" width="60.5054" height="100.469" filterUnits="userSpaceOnUse" color-interpolation-filters="sRGB">
<feFlood flood-opacity="0" result="BackgroundImageFix"/>
<feBlend mode="normal" in="SourceGraphic" in2="BackgroundImageFix" result="shape"/>
<feColorMatrix in="SourceAlpha" type="matrix" values="0 0 0 0 0 0 0 0 0 0 0 0 0 0 0 0 0 0 127 0" result="hardAlpha"/>
<feOffset dy="4"/>
<feGaussianBlur stdDeviation="2"/>
<feComposite in2="hardAlpha" operator="arithmetic" k2="-1" k3="1"/>
<feColorMatrix type="matrix" values="0 0 0 0 0 0 0 0 0 0 0 0 0 0 0 0 0 0 0.25 0"/>
<feBlend mode="normal" in2="shape" result="effect1_innerShadow_11:678"/>
</filter>
<filter id="filter15_i_11:678" x="391.367" y="91.413" width="43.7549" height="251.378" filterUnits="userSpaceOnUse" color-interpolation-filters="sRGB">
<feFlood flood-opacity="0" result="BackgroundImageFix"/>
<feBlend mode="normal" in="SourceGraphic" in2="BackgroundImageFix" result="shape"/>
<feColorMatrix in="SourceAlpha" type="matrix" values="0 0 0 0 0 0 0 0 0 0 0 0 0 0 0 0 0 0 127 0" result="hardAlpha"/>
<feOffset dy="4"/>
<feGaussianBlur stdDeviation="2"/>
<feComposite in2="hardAlpha" operator="arithmetic" k2="-1" k3="1"/>
<feColorMatrix type="matrix" values="0 0 0 0 0 0 0 0 0 0 0 0 0 0 0 0 0 0 0.25 0"/>
<feBlend mode="normal" in2="shape" result="effect1_innerShadow_11:678"/>
</filter>
<filter id="filter16_i_11:678" x="41.2061" y="96.7425" width="143.11" height="167.316" filterUnits="userSpaceOnUse" color-interpolation-filters="sRGB">
<feFlood flood-opacity="0" result="BackgroundImageFix"/>
<feBlend mode="normal" in="SourceGraphic" in2="BackgroundImageFix" result="shape"/>
<feColorMatrix in="SourceAlpha" type="matrix" values="0 0 0 0 0 0 0 0 0 0 0 0 0 0 0 0 0 0 127 0" result="hardAlpha"/>
<feOffset dy="4"/>
<feGaussianBlur stdDeviation="2"/>
<feComposite in2="hardAlpha" operator="arithmetic" k2="-1" k3="1"/>
<feColorMatrix type="matrix" values="0 0 0 0 0 0 0 0 0 0 0 0 0 0 0 0 0 0 0.25 0"/>
<feBlend mode="normal" in2="shape" result="effect1_innerShadow_11:678"/>
</filter>
<filter id="filter17_i_11:678" x="293.119" y="309.627" width="59.8214" height="176.226" filterUnits="userSpaceOnUse" color-interpolation-filters="sRGB">
<feFlood flood-opacity="0" result="BackgroundImageFix"/>
<feBlend mode="normal" in="SourceGraphic" in2="BackgroundImageFix" result="shape"/>
<feColorMatrix in="SourceAlpha" type="matrix" values="0 0 0 0 0 0 0 0 0 0 0 0 0 0 0 0 0 0 127 0" result="hardAlpha"/>
<feOffset dy="4"/>
<feGaussianBlur stdDeviation="2"/>
<feComposite in2="hardAlpha" operator="arithmetic" k2="-1" k3="1"/>
<feColorMatrix type="matrix" values="0 0 0 0 0 0 0 0 0 0 0 0 0 0 0 0 0 0 0.25 0"/>
<feBlend mode="normal" in2="shape" result="effect1_innerShadow_11:678"/>
</filter>
<filter id="filter18_i_11:678" x="221.951" y="11.2487" width="87.663" height="181.071" filterUnits="userSpaceOnUse" color-interpolation-filters="sRGB">
<feFlood flood-opacity="0" result="BackgroundImageFix"/>
<feBlend mode="normal" in="SourceGraphic" in2="BackgroundImageFix" result="shape"/>
<feColorMatrix in="SourceAlpha" type="matrix" values="0 0 0 0 0 0 0 0 0 0 0 0 0 0 0 0 0 0 127 0" result="hardAlpha"/>
<feOffset dy="4"/>
<feGaussianBlur stdDeviation="2"/>
<feComposite in2="hardAlpha" operator="arithmetic" k2="-1" k3="1"/>
<feColorMatrix type="matrix" values="0 0 0 0 0 0 0 0 0 0 0 0 0 0 0 0 0 0 0.25 0"/>
<feBlend mode="normal" in2="shape" result="effect1_innerShadow_11:678"/>
</filter>
<filter id="filter19_i_11:678" x="40.9001" y="201.345" width="146.3" height="50.9565" filterUnits="userSpaceOnUse" color-interpolation-filters="sRGB">
<feFlood flood-opacity="0" result="BackgroundImageFix"/>
<feBlend mode="normal" in="SourceGraphic" in2="BackgroundImageFix" result="shape"/>
<feColorMatrix in="SourceAlpha" type="matrix" values="0 0 0 0 0 0 0 0 0 0 0 0 0 0 0 0 0 0 127 0" result="hardAlpha"/>
<feOffset dy="4"/>
<feGaussianBlur stdDeviation="2"/>
<feComposite in2="hardAlpha" operator="arithmetic" k2="-1" k3="1"/>
<feColorMatrix type="matrix" values="0 0 0 0 0 0 0 0 0 0 0 0 0 0 0 0 0 0 0.25 0"/>
<feBlend mode="normal" in2="shape" result="effect1_innerShadow_11:678"/>
</filter>
<filter id="filter20_i_11:678" x="126.466" y="31.6424" width="114.42" height="154.142" filterUnits="userSpaceOnUse" color-interpolation-filters="sRGB">
<feFlood flood-opacity="0" result="BackgroundImageFix"/>
<feBlend mode="normal" in="SourceGraphic" in2="BackgroundImageFix" result="shape"/>
<feColorMatrix in="SourceAlpha" type="matrix" values="0 0 0 0 0 0 0 0 0 0 0 0 0 0 0 0 0 0 127 0" result="hardAlpha"/>
<feOffset dy="4"/>
<feGaussianBlur stdDeviation="2"/>
<feComposite in2="hardAlpha" operator="arithmetic" k2="-1" k3="1"/>
<feColorMatrix type="matrix" values="0 0 0 0 0 0 0 0 0 0 0 0 0 0 0 0 0 0 0.25 0"/>
<feBlend mode="normal" in2="shape" result="effect1_innerShadow_11:678"/>
</filter>
<filter id="filter21_i_11:678" x="400.976" y="220.423" width="132.34" height="185.817" filterUnits="userSpaceOnUse" color-interpolation-filters="sRGB">
<feFlood flood-opacity="0" result="BackgroundImageFix"/>
<feBlend mode="normal" in="SourceGraphic" in2="BackgroundImageFix" result="shape"/>
<feColorMatrix in="SourceAlpha" type="matrix" values="0 0 0 0 0 0 0 0 0 0 0 0 0 0 0 0 0 0 127 0" result="hardAlpha"/>
<feOffset dy="4"/>
<feGaussianBlur stdDeviation="2"/>
<feComposite in2="hardAlpha" operator="arithmetic" k2="-1" k3="1"/>
<feColorMatrix type="matrix" values="0 0 0 0 0 0 0 0 0 0 0 0 0 0 0 0 0 0 0.25 0"/>
<feBlend mode="normal" in2="shape" result="effect1_innerShadow_11:678"/>
</filter>
<filter id="filter22_i_11:678" x="379.316" y="370.387" width="48.6097" height="103.781" filterUnits="userSpaceOnUse" color-interpolation-filters="sRGB">
<feFlood flood-opacity="0" result="BackgroundImageFix"/>
<feBlend mode="normal" in="SourceGraphic" in2="BackgroundImageFix" result="shape"/>
<feColorMatrix in="SourceAlpha" type="matrix" values="0 0 0 0 0 0 0 0 0 0 0 0 0 0 0 0 0 0 127 0" result="hardAlpha"/>
<feOffset dy="4"/>
<feGaussianBlur stdDeviation="2"/>
<feComposite in2="hardAlpha" operator="arithmetic" k2="-1" k3="1"/>
<feColorMatrix type="matrix" values="0 0 0 0 0 0 0 0 0 0 0 0 0 0 0 0 0 0 0.25 0"/>
<feBlend mode="normal" in2="shape" result="effect1_innerShadow_11:678"/>
</filter>
<filter id="filter23_i_11:678" x="101.544" y="11.9384" width="162.622" height="348.794" filterUnits="userSpaceOnUse" color-interpolation-filters="sRGB">
<feFlood flood-opacity="0" result="BackgroundImageFix"/>
<feBlend mode="normal" in="SourceGraphic" in2="BackgroundImageFix" result="shape"/>
<feColorMatrix in="SourceAlpha" type="matrix" values="0 0 0 0 0 0 0 0 0 0 0 0 0 0 0 0 0 0 127 0" result="hardAlpha"/>
<feOffset dy="4"/>
<feGaussianBlur stdDeviation="2"/>
<feComposite in2="hardAlpha" operator="arithmetic" k2="-1" k3="1"/>
<feColorMatrix type="matrix" values="0 0 0 0 0 0 0 0 0 0 0 0 0 0 0 0 0 0 0.25 0"/>
<feBlend mode="normal" in2="shape" result="effect1_innerShadow_11:678"/>
</filter>
<filter id="filter24_i_11:678" x="299.293" y="152.143" width="219.151" height="83.2008" filterUnits="userSpaceOnUse" color-interpolation-filters="sRGB">
<feFlood flood-opacity="0" result="BackgroundImageFix"/>
<feBlend mode="normal" in="SourceGraphic" in2="BackgroundImageFix" result="shape"/>
<feColorMatrix in="SourceAlpha" type="matrix" values="0 0 0 0 0 0 0 0 0 0 0 0 0 0 0 0 0 0 127 0" result="hardAlpha"/>
<feOffset dy="4"/>
<feGaussianBlur stdDeviation="2"/>
<feComposite in2="hardAlpha" operator="arithmetic" k2="-1" k3="1"/>
<feColorMatrix type="matrix" values="0 0 0 0 0 0 0 0 0 0 0 0 0 0 0 0 0 0 0.25 0"/>
<feBlend mode="normal" in2="shape" result="effect1_innerShadow_11:678"/>
</filter>
<filter id="filter25_i_11:678" x="217.966" y="61.5458" width="214.22" height="126.56" filterUnits="userSpaceOnUse" color-interpolation-filters="sRGB">
<feFlood flood-opacity="0" result="BackgroundImageFix"/>
<feBlend mode="normal" in="SourceGraphic" in2="BackgroundImageFix" result="shape"/>
<feColorMatrix in="SourceAlpha" type="matrix" values="0 0 0 0 0 0 0 0 0 0 0 0 0 0 0 0 0 0 127 0" result="hardAlpha"/>
<feOffset dy="4"/>
<feGaussianBlur stdDeviation="2"/>
<feComposite in2="hardAlpha" operator="arithmetic" k2="-1" k3="1"/>
<feColorMatrix type="matrix" values="0 0 0 0 0 0 0 0 0 0 0 0 0 0 0 0 0 0 0.25 0"/>
<feBlend mode="normal" in2="shape" result="effect1_innerShadow_11:678"/>
</filter>
<filter id="filter26_i_11:678" x="391.664" y="315.903" width="189.282" height="119.646" filterUnits="userSpaceOnUse" color-interpolation-filters="sRGB">
<feFlood flood-opacity="0" result="BackgroundImageFix"/>
<feBlend mode="normal" in="SourceGraphic" in2="BackgroundImageFix" result="shape"/>
<feColorMatrix in="SourceAlpha" type="matrix" values="0 0 0 0 0 0 0 0 0 0 0 0 0 0 0 0 0 0 127 0" result="hardAlpha"/>
<feOffset dy="4"/>
<feGaussianBlur stdDeviation="2"/>
<feComposite in2="hardAlpha" operator="arithmetic" k2="-1" k3="1"/>
<feColorMatrix type="matrix" values="0 0 0 0 0 0 0 0 0 0 0 0 0 0 0 0 0 0 0.25 0"/>
<feBlend mode="normal" in2="shape" result="effect1_innerShadow_11:678"/>
</filter>
<filter id="filter27_i_11:678" x="347.5" y="355.401" width="66.6014" height="27.0634" filterUnits="userSpaceOnUse" color-interpolation-filters="sRGB">
<feFlood flood-opacity="0" result="BackgroundImageFix"/>
<feBlend mode="normal" in="SourceGraphic" in2="BackgroundImageFix" result="shape"/>
<feColorMatrix in="SourceAlpha" type="matrix" values="0 0 0 0 0 0 0 0 0 0 0 0 0 0 0 0 0 0 127 0" result="hardAlpha"/>
<feOffset dy="4"/>
<feGaussianBlur stdDeviation="2"/>
<feComposite in2="hardAlpha" operator="arithmetic" k2="-1" k3="1"/>
<feColorMatrix type="matrix" values="0 0 0 0 0 0 0 0 0 0 0 0 0 0 0 0 0 0 0.25 0"/>
<feBlend mode="normal" in2="shape" result="effect1_innerShadow_11:678"/>
</filter>
<filter id="filter28_i_11:678" x="150.049" y="331.617" width="207.206" height="102.958" filterUnits="userSpaceOnUse" color-interpolation-filters="sRGB">
<feFlood flood-opacity="0" result="BackgroundImageFix"/>
<feBlend mode="normal" in="SourceGraphic" in2="BackgroundImageFix" result="shape"/>
<feColorMatrix in="SourceAlpha" type="matrix" values="0 0 0 0 0 0 0 0 0 0 0 0 0 0 0 0 0 0 127 0" result="hardAlpha"/>
<feOffset dy="4"/>
<feGaussianBlur stdDeviation="2"/>
<feComposite in2="hardAlpha" operator="arithmetic" k2="-1" k3="1"/>
<feColorMatrix type="matrix" values="0 0 0 0 0 0 0 0 0 0 0 0 0 0 0 0 0 0 0.25 0"/>
<feBlend mode="normal" in2="shape" result="effect1_innerShadow_11:678"/>
</filter>
</defs>
</svg>
